<?xml version="1.0" encoding="UTF-8"?>
<svg id="Layer_2" data-name="Layer 2" xmlns="http://www.w3.org/2000/svg" xmlns:xlink="http://www.w3.org/1999/xlink" viewBox="0 0 759.03 846.05">
  <defs>
    <style>
      .cls-1, .cls-2, .cls-3, .cls-4, .cls-5, .cls-6 {
        fill: none;
      }

      .cls-7 {
        fill: #fff;
        font-family: Marcellus-Regular, Marcellus;
        font-size: 24px;
      }

      .cls-8 {
        letter-spacing: -.02em;
      }

      .cls-9 {
        clip-path: url(#clippath);
      }

      .cls-2 {
        stroke-width: .4px;
      }

      .cls-2, .cls-4 {
        stroke: #191ce4;
      }

      .cls-10 {
        fill: url(#Grid_1_pica_Lines);
        opacity: .64;
      }

      .cls-3 {
        stroke: #e01705;
        stroke-width: 2px;
      }

      .cls-4 {
        stroke-width: 4px;
      }

      .cls-11 {
        fill: url(#_10_lpi_20_);
        opacity: .56;
      }

      .cls-5 {
        stroke: #fff;
        stroke-miterlimit: 10;
      }

      .cls-12 {
        fill: url(#Scotch_Rule_2);
        opacity: .65;
      }

      .cls-6 {
        stroke: #7aff7f;
        stroke-width: 1.44px;
      }
    </style>
    <clipPath id="clippath">
      <path class="cls-1" d="m619.53,732.54c-10.23,0-22.36.15-34.49.59-3.31.12-4.43,1.32-4.04,4.79.89,7.89,1.83,15.78,2.75,23.66,1.34,11.43,2.58,22.88,4.12,34.29.43,3.17.72,6.39,1.67,9.5,1.24,4.1.48,8.31.11,12.46-.14,1.49-1.34,2.26-2.57,3.07-3.87,2.55-8.28,3.72-12.6,4.96-6.7,1.91-13.2,4.52-20.06,5.83-3.48.66-7.15.68-10.44,1.83-5.59,1.96-11.59.9-17.14,2.94-2.75,1.01-5.83.64-8.76,1.26-9.28,1.97-18.75,2.66-28.19,3.29-18.55,1.24-37.11,2.31-55.59,4.26-8.12.86-15.69.39-22.18-5.18-.6-.51-1.35-.93-1.75-1.56-2.15-3.41-5.31-3.81-9.03-3.73-6.71.16-13.45-.27-20.15-.2-6.53.06-13.07.08-19.6.24-1.42.04-2.16.85-2.97,1.82-3.58,4.29-7.58,8.01-13.38,9.01-3.29.57-6.6.39-9.92.2-17.52-1-35.07-1.71-52.49-3.78-12.64-1.5-25.09-4.5-37.69-6.3-13.12-1.88-25.69-5.8-38.51-8.81-7.98-1.87-16.18-2.8-23.94-5.6-.66-.24-1.33-.44-1.97-.71-4.39-1.83-4.71-2.28-4.43-6.92,1.22-20.14,3.94-40.12,6.69-60.1.69-5.02,1.32-10.04,2.09-15.04.32-2.06-.41-2.72-2.43-2.94-5.1-.57-10.16-1.42-15.3-.51-2.24.4-4.21-.94-6.42-.97-11.94-.15-23.87-.45-35.81-.54-5.09-.04-10.08-.82-15.09-1.49-1.73-.23-1.8-1.27-1.8-2.58.05-13.62.31-27.24,1.3-40.83.98-13.49,1.81-26.99,2.93-40.47,1.61-19.39,3.44-38.77,5.13-58.16,1.05-12.08,1.9-24.18,2.31-36.3.4-12.04,1.06-24.06,1.86-36.08.81-12.1,1.2-24.23,1.81-36.35.79-15.86,1.62-31.72,2.44-47.58.76-14.81,1.5-29.63,2.31-44.44.82-14.98,1.68-29.96,2.62-44.93,1.16-18.47,2.3-36.94,3.68-55.39,1.88-25.24,4.36-50.44,5.86-75.69,1.51-25.54,6.36-50.56,10.87-75.63,1.35-7.49,4.33-14.7,6.89-21.93,1.13-3.2,1.29-6.48,1.92-9.72.47-2.41.93-4.83,2.24-6.92,1.37-2.19,3.01-4.12,6.03-3.88.49.04,1.03-.15,1.49-.36,27.16-12.56,54.63-24.44,81.98-36.57,9.01-4,18.01-8.04,27.07-11.91,2.38-1.02,3.7-3.11,5.64-4.5,3.4-2.44,7.04-4.54,10.57-6.78,7.15-4.52,14.33-9,21.45-13.59,2.51-1.62,4.52-3.83,6.31-6.22.42-.56.8-1.14,1.2-1.71,1.91-2.74,4.22-3.8,7.85-3.76,26.37.28,52.74.22,79.1.27,6.2.01,12.4.04,18.6.06.61,0,1.29.17,1.82-.04,4.28-1.68,6.72.86,9.29,3.67,5.71,6.25,13.1,10.39,19.85,15.32,5.77,4.22,11.46,8.56,17.23,12.79.97.71,2.11,1.22,3.23,1.7,20.52,8.85,41.04,17.69,61.57,26.52,17.08,7.34,34.17,14.66,51.25,21.99.48.21.96.54,1.46.56,5.49.24,7.03,3.82,8.09,8.56,4.39,19.5,8.5,39.06,11.89,58.76,2.88,16.68,5.34,33.43,7.43,50.23,1.55,12.45,3.17,24.9,4.44,37.38,1.33,13.09,2.12,26.24,3.44,39.34,1.48,14.75,2.17,29.56,3.4,44.32.56,6.77,1.18,13.54,1.28,20.36.18,12.82,1.18,25.62,1.98,38.41.86,13.76,1.8,27.52,2.67,41.28,1.36,21.51,2.91,43.02,3.96,64.55.58,11.77,1.21,23.53,1.89,35.3.52,9.06,1.45,18.09,2.08,27.14.72,10.36,1.28,20.73,1.99,31.09,1.71,25.25,3.5,50.5,5.17,75.75.56,8.53.74,17.09,1.26,25.63.72,11.75,1.59,23.5,2.4,35.24.01.17.03.35.05.52.36,4.79.31,4.7-4.4,5.04-10.98.8-21.99.18-34.88.89Z"/>
    </clipPath>
    <pattern id="_10_lpi_20_" data-name="10 lpi 20%" x="0" y="0" width="72" height="72" patternTransform="translate(-67.4 -78.95)" patternUnits="userSpaceOnUse" viewBox="0 0 72 72">
      <g>
        <rect class="cls-1" width="72" height="72"/>
        <g>
          <line class="cls-6" x1="71.75" y1="68.4" x2="144.25" y2="68.4"/>
          <line class="cls-6" x1="71.75" y1="54" x2="144.25" y2="54"/>
          <line class="cls-6" x1="71.75" y1="39.6" x2="144.25" y2="39.6"/>
          <line class="cls-6" x1="71.75" y1="25.2" x2="144.25" y2="25.2"/>
          <line class="cls-6" x1="71.75" y1="10.8" x2="144.25" y2="10.8"/>
          <line class="cls-6" x1="71.75" y1="61.2" x2="144.25" y2="61.2"/>
          <line class="cls-6" x1="71.75" y1="46.8" x2="144.25" y2="46.8"/>
          <line class="cls-6" x1="71.75" y1="32.4" x2="144.25" y2="32.4"/>
          <line class="cls-6" x1="71.75" y1="18" x2="144.25" y2="18"/>
          <line class="cls-6" x1="71.75" y1="3.6" x2="144.25" y2="3.6"/>
        </g>
        <g>
          <line class="cls-6" x1="-.25" y1="68.4" x2="72.25" y2="68.4"/>
          <line class="cls-6" x1="-.25" y1="54" x2="72.25" y2="54"/>
          <line class="cls-6" x1="-.25" y1="39.6" x2="72.25" y2="39.6"/>
          <line class="cls-6" x1="-.25" y1="25.2" x2="72.25" y2="25.2"/>
          <line class="cls-6" x1="-.25" y1="10.8" x2="72.25" y2="10.8"/>
          <line class="cls-6" x1="-.25" y1="61.2" x2="72.25" y2="61.2"/>
          <line class="cls-6" x1="-.25" y1="46.8" x2="72.25" y2="46.8"/>
          <line class="cls-6" x1="-.25" y1="32.4" x2="72.25" y2="32.4"/>
          <line class="cls-6" x1="-.25" y1="18" x2="72.25" y2="18"/>
          <line class="cls-6" x1="-.25" y1="3.6" x2="72.25" y2="3.6"/>
        </g>
        <g>
          <line class="cls-6" x1="-72.25" y1="68.4" x2=".25" y2="68.4"/>
          <line class="cls-6" x1="-72.25" y1="54" x2=".25" y2="54"/>
          <line class="cls-6" x1="-72.25" y1="39.6" x2=".25" y2="39.6"/>
          <line class="cls-6" x1="-72.25" y1="25.2" x2=".25" y2="25.2"/>
          <line class="cls-6" x1="-72.25" y1="10.8" x2=".25" y2="10.8"/>
          <line class="cls-6" x1="-72.25" y1="61.2" x2=".25" y2="61.2"/>
          <line class="cls-6" x1="-72.25" y1="46.8" x2=".25" y2="46.8"/>
          <line class="cls-6" x1="-72.25" y1="32.4" x2=".25" y2="32.4"/>
          <line class="cls-6" x1="-72.25" y1="18" x2=".25" y2="18"/>
          <line class="cls-6" x1="-72.25" y1="3.6" x2=".25" y2="3.6"/>
        </g>
      </g>
    </pattern>
    <pattern id="Scotch_Rule_2" data-name="Scotch Rule 2" x="0" y="0" width="70.8" height="72" patternTransform="translate(-67.4 -78.95)" patternUnits="userSpaceOnUse" viewBox="0 0 70.8 72">
      <g>
        <rect class="cls-1" x="0" width="70.8" height="72"/>
        <line class="cls-2" x1="35.4" y1="72" x2="35.4" y2="0"/>
        <line class="cls-2" x1="11.8" y1="72" x2="11.8" y2="0"/>
        <line class="cls-2" x1="59" y1="72" x2="59" y2="0"/>
        <line class="cls-4" x1="30.8" y1="72" x2="30.8" y2="0"/>
        <line class="cls-4" x1="7.2" y1="72" x2="7.2" y2="0"/>
        <line class="cls-4" x1="54.4" y1="72" x2="54.4" y2="0"/>
        <line class="cls-4" x1="16.4" y1="72" x2="16.4" y2="0"/>
        <line class="cls-4" x1="40" y1="72" x2="40" y2="0"/>
        <line class="cls-4" x1="63.6" y1="72" x2="63.6" y2="0"/>
      </g>
    </pattern>
    <pattern id="Grid_1_pica_Lines" data-name="Grid 1 pica Lines" x="0" y="0" width="72" height="72" patternTransform="translate(-67.4 -78.95)" patternUnits="userSpaceOnUse" viewBox="0 0 72 72">
      <g>
        <rect class="cls-1" width="72" height="72"/>
        <g>
          <line class="cls-3" x1="6" y1="71.75" x2="6" y2="144.25"/>
          <line class="cls-3" x1="30" y1="71.75" x2="30" y2="144.25"/>
          <line class="cls-3" x1="54" y1="71.75" x2="54" y2="144.25"/>
          <line class="cls-3" x1="18" y1="71.75" x2="18" y2="144.25"/>
          <line class="cls-3" x1="42" y1="71.75" x2="42" y2="144.25"/>
          <line class="cls-3" x1="66" y1="71.75" x2="66" y2="144.25"/>
        </g>
        <g>
          <line class="cls-3" x1="71.75" y1="66" x2="144.25" y2="66"/>
          <line class="cls-3" x1="71.75" y1="42" x2="144.25" y2="42"/>
          <line class="cls-3" x1="71.75" y1="18" x2="144.25" y2="18"/>
          <line class="cls-3" x1="71.75" y1="54" x2="144.25" y2="54"/>
          <line class="cls-3" x1="71.75" y1="30" x2="144.25" y2="30"/>
          <line class="cls-3" x1="71.75" y1="6" x2="144.25" y2="6"/>
        </g>
        <g>
          <line class="cls-3" x1="6" y1="-.25" x2="6" y2="72.25"/>
          <line class="cls-3" x1="30" y1="-.25" x2="30" y2="72.25"/>
          <line class="cls-3" x1="54" y1="-.25" x2="54" y2="72.25"/>
          <line class="cls-3" x1="-.25" y1="66" x2="72.25" y2="66"/>
          <line class="cls-3" x1="-.25" y1="42" x2="72.25" y2="42"/>
          <line class="cls-3" x1="-.25" y1="18" x2="72.25" y2="18"/>
          <line class="cls-3" x1="-.25" y1="54" x2="72.25" y2="54"/>
          <line class="cls-3" x1="-.25" y1="30" x2="72.25" y2="30"/>
          <line class="cls-3" x1="-.25" y1="6" x2="72.25" y2="6"/>
          <line class="cls-3" x1="18" y1="-.25" x2="18" y2="72.25"/>
          <line class="cls-3" x1="42" y1="-.25" x2="42" y2="72.25"/>
          <line class="cls-3" x1="66" y1="-.25" x2="66" y2="72.25"/>
        </g>
        <g>
          <line class="cls-3" x1="-72.25" y1="66" x2=".25" y2="66"/>
          <line class="cls-3" x1="-72.25" y1="42" x2=".25" y2="42"/>
          <line class="cls-3" x1="-72.25" y1="18" x2=".25" y2="18"/>
          <line class="cls-3" x1="-72.25" y1="54" x2=".25" y2="54"/>
          <line class="cls-3" x1="-72.25" y1="30" x2=".25" y2="30"/>
          <line class="cls-3" x1="-72.25" y1="6" x2=".25" y2="6"/>
        </g>
        <g>
          <line class="cls-3" x1="6" y1="-72.25" x2="6" y2=".25"/>
          <line class="cls-3" x1="30" y1="-72.25" x2="30" y2=".25"/>
          <line class="cls-3" x1="54" y1="-72.25" x2="54" y2=".25"/>
          <line class="cls-3" x1="18" y1="-72.25" x2="18" y2=".25"/>
          <line class="cls-3" x1="42" y1="-72.25" x2="42" y2=".25"/>
          <line class="cls-3" x1="66" y1="-72.25" x2="66" y2=".25"/>
        </g>
      </g>
    </pattern>
  </defs>
  <g id="Layer_1-2" data-name="Layer 1">
    <g>
      <g class="cls-9">
        <rect class="cls-11" x="78.13" y="6.05" width="673.05" height="572.1"/>
        <rect class="cls-12" x="75.6" y="579.83" width="678.1" height="269.22"/>
        <path class="cls-10" d="m325.6,38.05l109.92-.45s3.08,2.45.08,22.45-18,113-18,113l-14,74-17,75-7,18s-11-43-14-53-10-35-10-45-5-35-6-45-17-87-17-90-1-8-3-14-4-13-4-23v-32Z"/>
      </g>
      <text class="cls-7"><tspan x="652" y="373.4">68% wool</tspan></text>
      <text class="cls-7"><tspan x="0" y="37.4">lining : </tspan><tspan x="0" y="71.4">100% culpro</tspan></text>
      <text class="cls-7"><tspan class="cls-8" x="14" y="782.4">3</tspan><tspan x="25.61" y="782.4">2% </tspan><tspan class="cls-8" x="66.44" y="782.4">V</tspan><tspan x="81.76" y="782.4">iscose</tspan></text>
      <path class="cls-5" d="m230.1,627.55s-76-7-125,44-41,79-41,79"/>
      <path class="cls-5" d="m584.1,208.55s85,25,110,130"/>
      <path class="cls-5" d="m370.1,107.55S290.1-.45,126.1,11.55"/>
    </g>
  </g>
</svg>