<?xml version="1.0" encoding="UTF-8"?>
<svg id="Layer_2" data-name="Layer 2" xmlns="http://www.w3.org/2000/svg" viewBox="0 0 629 808.43">
  <defs>
    <style>
    .highlight-symbols{
      fill: rgba(255, 246, 155, 1); 
      transition-delay: all 200s ease-out;
}
      .cls-1 {
        letter-spacing: -.01em;
      }

      .cls-2 {
        letter-spacing: -.02em;
      }

      .cls-3 {
        letter-spacing: -.02em;
      }

      .cls-4 {
        letter-spacing: .01em;
      }

      .cls-5 {
        letter-spacing: 0em;
      }

      .cls-6 {
        font-size: 48px;
      }

      .cls-6, .cls-7 {
        font-family: var(--pl-serif);
        font-weight: 500;
      }

      .cls-8 {
        letter-spacing: -.03em;
      }

      .cls-9 {
        letter-spacing: 0em;
      }

      .cls-10 {
        letter-spacing: .02em;
      }

      .cls-11 {
        letter-spacing: -.02em;
      }

      .cls-12 {
        letter-spacing: 0em;
      }

      .cls-13 {
        letter-spacing: -.04em;
      }

      .cls-14 {
        letter-spacing: 0em;
      }

      .cls-15 {
        fill: #fff;
        stroke: #000;
        stroke-miterlimit: 10;
      }

      .cls-16 {
        letter-spacing: -.02em;
      }

      .cls-17 {
        letter-spacing: 0em;
      }

      .cls-18 {
        letter-spacing: -.01em;
      }

      .cls-19 {
        letter-spacing: 0em;
      }

      .cls-20 {
        letter-spacing: 0em;
      }

      .cls-21 {
        letter-spacing: 0em;
      }

      .cls-22 {
        letter-spacing: 0em;
      }

      .cls-7 {
        font-size: 30px;
      }
    </style>
  </defs>
  <g id="Layer_1-2" data-name="Layer 1">
    <g>
      <rect class="cls-15" x=".5" y=".5" width="628" height="807.43"/>
      <g>
        <text class="cls-6" transform="translate(197.96 110.4)"><tspan class="cls-4" x="0" y="0">C</tspan><tspan x="32.88" y="0">a</tspan><tspan class="cls-11" x="59.13" y="0">r</tspan><tspan x="76.18" y="0">e </tspan><tspan class="cls-14" x="113.23" y="0">L</tspan><tspan x="140.59" y="0">a</tspan><tspan class="cls-19" x="166.85" y="0">b</tspan><tspan x="195.31" y="0">el</tspan></text>
        <text class="cls-7" transform="translate(222.7 169.4)"><tspan x="0" y="0">Jacket</tspan><tspan class="cls-13" x="94.74" y="0">Atelier</tspan></text>
      </g>
      <text class="cls-7" transform="translate(227.56 696.4)"><tspan x="0" y="0">Made In </tspan><tspan class="cls-18" x="116.01" y="0">Italy</tspan></text>
      <rect class="highlight-symbols" x="81" y="260" width="470" height="100"/>
      <g>
        <path d="m169.47,464.73c0,3.6-2.7,7.05-7.56,7.05s-7.74-3.36-7.74-8.19c0-4.53,2.64-8.13,6.12-11.43l1.35-1.26h4.5v.06l-3.36,3.06c-2.1,1.89-3.6,3.69-4.47,5.37,1.05-.96,2.49-1.5,4.35-1.5,4.11,0,6.81,3.15,6.81,6.84Zm-3.39.06c0-2.34-1.56-4.08-4.11-4.08s-4.35,1.74-4.35,4.08,1.74,4.08,4.32,4.08,4.14-1.74,4.14-4.08Z"/>
        <path d="m187.56,465.63c0,3.48-2.85,6.15-7.83,6.15s-7.86-2.67-7.86-6.15c0-2.52,1.38-4.41,3.75-5.4-1.71-.87-2.76-2.4-2.76-4.44,0-3.18,2.73-5.4,6.87-5.4s6.84,2.22,6.84,5.4c0,2.04-1.05,3.57-2.73,4.44,2.34.99,3.72,2.88,3.72,5.4Zm-3.45-.24c0-2.13-1.56-3.75-4.38-3.75s-4.41,1.62-4.41,3.75c0,1.98,1.59,3.6,4.41,3.6s4.38-1.62,4.38-3.6Zm-7.98-9.42c0,1.77,1.41,3.03,3.6,3.03s3.6-1.26,3.6-3.03-1.38-2.94-3.6-2.94-3.6,1.23-3.6,2.94Z"/>
        <path d="m199.8,455.46c0,2.94-2.13,4.92-4.86,4.92s-4.83-1.98-4.83-4.92,2.1-4.89,4.83-4.89,4.86,2.01,4.86,4.89Zm-7.32,0c0,1.65.93,2.85,2.46,2.85s2.49-1.2,2.49-2.85-.93-2.82-2.49-2.82-2.46,1.23-2.46,2.82Zm17.25-3.81l-14.19,20.13-1.92-1.26,14.13-20.1,1.98,1.23Zm3.33,15.03c0,2.94-2.1,4.95-4.86,4.95s-4.83-2.01-4.83-4.95,2.1-4.89,4.83-4.89,4.86,2.01,4.86,4.89Zm-7.32,0c0,1.65.93,2.85,2.46,2.85s2.49-1.2,2.49-2.85-.93-2.82-2.49-2.82-2.46,1.23-2.46,2.82Z"/>
        <path d="m243.8,456.24l-4.2,15.06h-3.96l-1.23-4.41c-.72-2.61-1.23-4.74-1.62-6.54-.42,1.8-.9,3.93-1.59,6.54l-1.2,4.41h-3.93l-4.23-15.06h3.48l1.32,5.25c.66,2.58,1.17,4.86,1.56,6.84.45-1.98,1.02-4.26,1.68-6.84l1.41-5.25h3.09l1.44,5.25c.69,2.61,1.23,4.92,1.68,6.9.39-1.98.9-4.29,1.56-6.9l1.35-5.25h3.39Z"/>
        <path d="m260.45,463.77c0,4.74-3.18,7.98-7.65,7.98s-7.68-3.24-7.68-7.98,3.15-8.01,7.68-8.01,7.65,3.24,7.65,8.01Zm-11.97,0c0,3.12,1.68,5.19,4.32,5.19s4.29-2.07,4.29-5.19-1.71-5.22-4.29-5.22-4.32,2.07-4.32,5.22Z"/>
        <path d="m278,463.77c0,4.74-3.18,7.98-7.65,7.98s-7.68-3.24-7.68-7.98,3.15-8.01,7.68-8.01,7.65,3.24,7.65,8.01Zm-11.97,0c0,3.12,1.68,5.19,4.32,5.19s4.29-2.07,4.29-5.19-1.71-5.22-4.29-5.22-4.32,2.07-4.32,5.22Z"/>
        <path d="m284.24,471.3h-3.3v-21.3h3.3v21.3Z"/>
        <path d="m291.68,471.3l-2.13,4.14h-1.92l1.89-4.14h-1.77v-3.84h3.93v3.84Z"/>
        <path d="m315.68,465.09c0,3.24-2.52,6.69-7.47,6.69-2.73,0-4.95-.69-7.71-2.58l1.65-2.43c2.4,1.47,3.96,2.1,5.97,2.1,2.58,0,4.14-1.56,4.14-3.75s-1.71-3.6-4.41-3.6c-1.2,0-1.95.21-2.4.39l-1.53-2.07,6.93-6.09h-9.33v-2.85h13.44v2.79l-6.03,5.31c3.81,0,6.75,2.22,6.75,6.09Z"/>
        <path d="m321.53,468.45h11.43v2.85h-14.94v-1.32c0-4.53,2.97-6.3,6.06-8.22,2.85-1.74,5.49-2.67,5.49-5.37,0-1.95-1.53-3.06-3.45-3.06-2.16,0-3.63,1.14-5.58,3.57l-2.49-1.8c2.04-2.91,4.44-4.68,7.98-4.68,4.47,0,6.96,2.7,6.96,5.91,0,4.32-3.36,5.61-6.84,7.71-2.28,1.38-4.23,2.34-4.62,4.41Z"/>
        <path d="m345.65,455.46c0,2.94-2.13,4.92-4.86,4.92s-4.83-1.98-4.83-4.92,2.1-4.89,4.83-4.89,4.86,2.01,4.86,4.89Zm-7.32,0c0,1.65.93,2.85,2.46,2.85s2.49-1.2,2.49-2.85-.93-2.82-2.49-2.82-2.46,1.23-2.46,2.82Zm17.25-3.81l-14.19,20.13-1.92-1.26,14.13-20.1,1.98,1.23Zm3.33,15.03c0,2.94-2.1,4.95-4.86,4.95s-4.83-2.01-4.83-4.95,2.1-4.89,4.83-4.89,4.86,2.01,4.86,4.89Zm-7.32,0c0,1.65.93,2.85,2.46,2.85s2.49-1.2,2.49-2.85-.93-2.82-2.49-2.82-2.46,1.23-2.46,2.82Z"/>
        <path d="m381.92,456.24l-5.19,15.06h-4.05l-5.16-15.06h3.48l1.65,5.19c.9,2.76,1.56,5.1,2.1,7.14.54-2.04,1.2-4.38,2.1-7.14l1.65-5.19h3.42Z"/>
        <path d="m387.41,453.63h-3.3v-3.39h3.3v3.39Zm0,17.67h-3.3v-15.06h3.3v15.06Z"/>
        <path d="m402.95,458.04l-1.8,2.19c-1.89-1.44-3.03-1.8-4.62-1.8-1.77,0-2.88.78-2.88,1.83,0,1.14,1.11,1.35,3.75,1.95,4.05.9,5.79,1.98,5.79,4.71s-2.37,4.83-6.27,4.83c-2.73,0-4.71-.69-7.14-2.82l1.92-2.16c2.22,1.83,3.48,2.31,5.28,2.31,1.68,0,2.97-.72,2.97-1.95,0-1.44-1.68-1.77-3.93-2.25-4.14-.93-5.52-1.92-5.52-4.5s2.28-4.62,6.09-4.62c2.49,0,4.26.6,6.36,2.28Z"/>
        <path d="m412.73,458.55c-2.79,0-4.2,2.46-4.2,5.22s1.41,5.16,4.2,5.16c1.53,0,2.61-.6,4.26-2.4l2.19,1.83c-2.07,2.61-3.93,3.39-6.48,3.39-4.5,0-7.53-3.09-7.53-7.98s3.12-8.01,7.56-8.01c2.43,0,4.26.72,6.21,2.85l-2.1,2.04c-1.71-1.71-2.82-2.1-4.11-2.1Z"/>
        <path d="m435.65,463.77c0,4.74-3.18,7.98-7.65,7.98s-7.68-3.24-7.68-7.98,3.15-8.01,7.68-8.01,7.65,3.24,7.65,8.01Zm-11.97,0c0,3.12,1.68,5.19,4.32,5.19s4.29-2.07,4.29-5.19-1.71-5.22-4.29-5.22-4.32,2.07-4.32,5.22Z"/>
        <path d="m450.38,458.04l-1.8,2.19c-1.89-1.44-3.03-1.8-4.62-1.8-1.77,0-2.88.78-2.88,1.83,0,1.14,1.11,1.35,3.75,1.95,4.05.9,5.79,1.98,5.79,4.71s-2.37,4.83-6.27,4.83c-2.73,0-4.71-.69-7.14-2.82l1.92-2.16c2.22,1.83,3.48,2.31,5.28,2.31,1.68,0,2.97-.72,2.97-1.95,0-1.44-1.68-1.77-3.93-2.25-4.14-.93-5.52-1.92-5.52-4.5s2.28-4.62,6.09-4.62c2.49,0,4.26.6,6.36,2.28Z"/>
        <path d="m466.97,468.72c-2.22,2.28-4.23,3.03-6.66,3.03-4.77,0-7.71-3.12-7.71-7.89s2.82-8.1,7.41-8.1,6.93,2.85,6.93,7.41c0,.39-.03,1.05-.06,1.35h-11.04c.24,2.46,1.62,4.44,4.53,4.44,1.83,0,2.88-.63,4.68-2.25l1.92,2.01Zm-11.04-6.6h7.77c-.12-2.28-1.47-3.75-3.78-3.75s-3.57,1.44-3.99,3.75Z"/>
        <path d="m474.29,471.3l-2.16,4.14h-1.89l1.89-4.14h-1.77v-3.84h3.93v3.84Zm-.15-11.22h-3.72v-3.84h3.72v3.84Z"/>
        <path d="m196.29,508.3h-3.3v-21.3h3.3v21.3Z"/>
        <path d="m203.37,490.63h-3.3v-3.39h3.3v3.39Zm0,17.67h-3.3v-15.06h3.3v15.06Z"/>
        <path d="m220.17,497.98v10.32h-3.3v-9.3c0-2.22-1.11-3.42-3.12-3.42s-3.39,1.47-3.39,3.51v9.21h-3.3v-15.06h3.06v1.83c.96-1.47,2.58-2.31,4.65-2.31,3.57,0,5.4,2.25,5.4,5.22Z"/>
        <path d="m227.16,490.63h-3.3v-3.39h3.3v3.39Zm0,17.67h-3.3v-15.06h3.3v15.06Z"/>
        <path d="m243.95,497.98v10.32h-3.3v-9.3c0-2.22-1.11-3.42-3.12-3.42s-3.39,1.47-3.39,3.51v9.21h-3.3v-15.06h3.06v1.83c.96-1.47,2.58-2.31,4.65-2.31,3.57,0,5.4,2.25,5.4,5.22Z"/>
        <path d="m261.29,493.24v14.49c0,4.14-2.97,6.39-7.14,6.39-2.43,0-4.71-.66-7.02-2.19l1.62-2.4c2.04,1.23,3.48,1.86,5.37,1.86,2.19,0,3.93-1.08,3.93-3.93v-1.56c-.96,1.32-2.46,2.13-4.59,2.13-3.84,0-6.6-3.12-6.6-7.65s2.76-7.62,6.6-7.62c2.28,0,3.81.9,4.77,2.37v-1.89h3.06Zm-3.15,7.14c0-2.85-1.62-4.8-3.99-4.8s-3.96,1.95-3.96,4.8,1.5,4.86,3.96,4.86,3.99-1.98,3.99-4.86Z"/>
        <path d="m269.06,497.08h-3.72v-3.84h3.72v3.84Zm0,11.22h-3.72v-3.84h3.72v3.84Z"/>
        <path d="m287.66,487.9v20.4h-3.42v-16.17l-3.87,2.7-1.68-2.34,6.33-4.59h2.64Z"/>
        <path d="m306.92,491.26c.93,1.83,1.41,4.23,1.41,6.84s-.48,5.01-1.41,6.84c-1.26,2.4-3.39,3.84-6.39,3.84s-5.13-1.44-6.39-3.84c-.93-1.83-1.41-4.23-1.41-6.84s.48-5.01,1.41-6.84c1.26-2.4,3.39-3.84,6.39-3.84s5.13,1.44,6.39,3.84Zm-9.78,1.41c-.63,1.35-.96,3.24-.96,5.43s.33,4.08.96,5.43c.72,1.56,1.86,2.34,3.39,2.34s2.67-.78,3.39-2.34c.63-1.35.96-3.24.96-5.43s-.33-4.08-.96-5.43c-.72-1.56-1.86-2.34-3.39-2.34s-2.67.78-3.39,2.34Z"/>
        <path d="m325.04,491.26c.93,1.83,1.41,4.23,1.41,6.84s-.48,5.01-1.41,6.84c-1.26,2.4-3.39,3.84-6.39,3.84s-5.13-1.44-6.39-3.84c-.93-1.83-1.41-4.23-1.41-6.84s.48-5.01,1.41-6.84c1.26-2.4,3.39-3.84,6.39-3.84s5.13,1.44,6.39,3.84Zm-9.78,1.41c-.63,1.35-.96,3.24-.96,5.43s.33,4.08.96,5.43c.72,1.56,1.86,2.34,3.39,2.34s2.67-.78,3.39-2.34c.63-1.35.96-3.24.96-5.43s-.33-4.08-.96-5.43c-.72-1.56-1.86-2.34-3.39-2.34s-2.67.78-3.39,2.34Z"/>
        <path d="m338.78,492.46c0,2.94-2.13,4.92-4.86,4.92s-4.83-1.98-4.83-4.92,2.1-4.89,4.83-4.89,4.86,2.01,4.86,4.89Zm-7.32,0c0,1.65.93,2.85,2.46,2.85s2.49-1.2,2.49-2.85-.93-2.82-2.49-2.82-2.46,1.23-2.46,2.82Zm17.25-3.81l-14.19,20.13-1.92-1.26,14.13-20.1,1.98,1.23Zm3.33,15.03c0,2.94-2.1,4.95-4.86,4.95s-4.83-2.01-4.83-4.95,2.1-4.89,4.83-4.89,4.86,2.01,4.86,4.89Zm-7.32,0c0,1.65.93,2.85,2.46,2.85s2.49-1.2,2.49-2.85-.93-2.82-2.49-2.82-2.46,1.23-2.46,2.82Z"/>
        <path d="m368.9,495.55c-2.79,0-4.2,2.46-4.2,5.22s1.41,5.16,4.2,5.16c1.53,0,2.61-.6,4.26-2.4l2.19,1.83c-2.07,2.61-3.93,3.39-6.48,3.39-4.5,0-7.53-3.09-7.53-7.98s3.12-8.01,7.56-8.01c2.43,0,4.26.72,6.21,2.85l-2.1,2.04c-1.71-1.71-2.82-2.1-4.11-2.1Z"/>
        <path d="m390.44,493.24v15.06h-3.03v-1.74c-.81,1.32-2.31,2.19-4.47,2.19-3.81,0-5.37-2.1-5.37-4.83v-10.68h3.3v9.78c0,1.8.93,2.88,2.79,2.88,2.01,0,3.48-1.17,3.48-3.54v-9.12h3.3Z"/>
        <path d="m408.86,500.74c0,4.86-2.85,7.95-6.69,7.95-2.13,0-3.69-.78-4.71-2.13v7.14h-3.3v-20.46h3.06v2.13c1.02-1.59,2.67-2.55,4.98-2.55,3.84,0,6.66,3.12,6.66,7.92Zm-3.36,0c0-3.06-1.53-5.1-3.99-5.1s-4.2,1.92-4.2,5.1,1.83,5.1,4.2,5.1,3.99-1.98,3.99-5.1Z"/>
        <path d="m420.98,493.48l-.6,2.85c-.78-.21-1.38-.3-1.92-.3-2.04,0-3.39,1.68-3.39,4.56v7.71h-3.3v-15.06h3.06v2.25c.72-1.47,1.92-2.46,3.78-2.46.84,0,1.59.21,2.37.45Z"/>
        <path d="m436.91,500.77c0,4.74-3.18,7.98-7.65,7.98s-7.68-3.24-7.68-7.98,3.15-8.01,7.68-8.01,7.65,3.24,7.65,8.01Zm-11.97,0c0,3.12,1.68,5.19,4.32,5.19s4.29-2.07,4.29-5.19-1.71-5.22-4.29-5.22-4.32,2.07-4.32,5.22Z"/>
      </g>
      <g>
        <g>
          <path d="m148.3,334.96h-52.24c-.69,0-1.31-.43-1.55-1.08l-16.47-43.9c-.32-.86.11-1.82.97-2.14.85-.32,1.81.11,2.14.97l16.07,42.83h49.95l16.07-42.83c.32-.86,1.28-1.29,2.14-.97.86.32,1.29,1.28.97,2.14l-16.47,43.9c-.24.65-.86,1.08-1.55,1.08Z"/>
          <path d="m136.63,306.61c-3.9,0-5.86-2.76-7.44-4.98-1.58-2.22-2.65-3.58-4.73-3.58s-3.15,1.36-4.73,3.58c-1.58,2.22-3.54,4.98-7.44,4.98s-5.86-2.76-7.43-4.98c-1.58-2.22-2.65-3.58-4.73-3.58s-3.15,1.36-4.72,3.58c-1.57,2.22-3.53,4.98-7.43,4.98-1.37,0-2.63-.35-3.75-1.05-.78-.48-1.02-1.51-.54-2.28.48-.78,1.5-1.02,2.28-.53.6.37,1.24.55,2,.55,2.07,0,3.14-1.36,4.72-3.58,1.57-2.22,3.53-4.98,7.43-4.98s5.86,2.76,7.43,4.98c1.58,2.22,2.65,3.58,4.73,3.58s3.15-1.36,4.73-3.58c1.58-2.22,3.54-4.98,7.43-4.98s5.86,2.76,7.43,4.98c1.58,2.22,2.65,3.58,4.73,3.58s3.16-1.36,4.74-3.58c1.58-2.22,3.54-4.98,7.45-4.98s5.87,2.76,7.45,4.98c1.04,1.46,2.02,2.84,3.38,3.35.86.32,1.29,1.28.97,2.14-.32.86-1.28,1.29-2.14.97-2.3-.86-3.69-2.81-4.91-4.53-1.58-2.22-2.66-3.59-4.74-3.59s-3.16,1.36-4.74,3.58c-1.58,2.22-3.54,4.98-7.45,4.98Z"/>
          <path d="m120.53,314.39c0,1.81-1.08,3.41-2.62,3.99v.1c1.99.63,3.15,2.26,3.15,4.46-.13,2.89-2.41,5.22-7.61,5.22s-7.69-2.33-7.69-5.19v-.55h4.62c0,1.18.63,2.15,2.73,2.15s2.73-1.02,2.73-2.41c0-1.29-.81-1.89-1.84-1.89h-1.92v-3.23h1.5c1.02,0,1.84-.6,1.84-1.89,0-1.07-.81-2.07-2.31-2.07-1.57,0-2.39.92-2.39,1.99h-4.38v-.66c0-2.7,2.6-4.93,7.22-4.93s6.98,2.23,6.98,4.91Zm18.05,4.43c0,5.59-1.68,9.34-7.66,9.34s-7.69-3.75-7.69-9.34,1.71-9.34,7.69-9.34,7.66,3.75,7.66,9.34Zm-10.18-1.31v2.6c0,3.17.68,4.51,2.52,4.51s2.47-1.34,2.47-4.51v-2.6c0-3.17-.63-4.49-2.47-4.49s-2.52,1.31-2.52,4.49Z"/>
        </g>
        <g>
          <path d="m396.98,337.81h-57.89c-.51,0-.97-.27-1.23-.71-.25-.44-.25-.98,0-1.42l28.95-50.14c.51-.88,1.95-.88,2.45,0l28.95,50.14c.25.44.25.98,0,1.42-.25.44-.72.71-1.23.71Zm-55.44-2.83h52.99l-26.49-45.89-26.49,45.89Z"/>
          <path d="m403.02,334.44c-.19,0-.37-.03-.56-.11l-69.97-29.81c-.72-.31-1.05-1.14-.75-1.86.31-.72,1.14-1.05,1.86-.75l69.97,29.81c.72.31,1.05,1.14.75,1.86-.23.54-.75.86-1.3.86Z"/>
          <path d="m333.04,334.44c-.55,0-1.07-.32-1.3-.86-.31-.72.03-1.55.75-1.86l69.97-29.81c.71-.31,1.55.03,1.86.75.31.72-.03,1.55-.75,1.86l-69.97,29.81c-.18.08-.37.11-.56.11Z"/>
        </g>
        <path d="m206.2,337.9c-14.64,0-26.55-11.91-26.55-26.55s11.91-26.55,26.55-26.55,26.55,11.91,26.55,26.55-11.91,26.55-26.55,26.55Zm0-50.4c-13.15,0-23.85,10.7-23.85,23.85s10.7,23.85,23.85,23.85,23.85-10.7,23.85-23.85-10.7-23.85-23.85-23.85Z"/>
        <g>
          <path d="m316.91,332.29s-.02,0-.03,0h-69.41c-.52,0-1-.27-1.27-.71-.27-.44-.29-.99-.06-1.45l3.6-7.13c5.43-10.76,16.28-17.44,28.33-17.44h31.1l-1.6-6.51c-1.54-6.26-7.12-10.64-13.57-10.64h-33c-.82,0-1.49-.67-1.49-1.49s.67-1.49,1.49-1.49h33c7.82,0,14.59,5.3,16.46,12.9l2.05,8.35s0,0,0,.01l5.84,23.72c.02.07.03.14.04.21.02.17.01.35-.03.51-.05.22-.15.42-.28.59-.13.17-.3.31-.5.41-.15.08-.32.13-.49.15-.06,0-.12.01-.18.01Zm-67.02-2.98h65.12l-5.11-20.78h-31.83c-10.92,0-20.75,6.06-25.67,15.81l-2.51,4.97Z"/>
          <g>
            <path d="m304.15,337.28c-.35,0-.7-.12-.99-.37l-39.87-35.25c-.62-.54-.67-1.49-.13-2.1.55-.62,1.49-.67,2.1-.13l39.87,35.25c.62.54.67,1.49.13,2.1-.29.33-.7.5-1.12.5Z"/>
            <path d="m264.29,337.28c-.41,0-.82-.17-1.12-.5-.54-.62-.49-1.56.13-2.1l39.87-35.25c.61-.54,1.56-.49,2.1.13.54.62.49,1.56-.13,2.1l-39.87,35.25c-.28.25-.64.37-.99.37Z"/>
          </g>
        </g>
        <g>
          <path d="m463.01,337.22h-38.98c-3.52,0-6.38-2.86-6.38-6.38v-38.98c0-3.52,2.86-6.38,6.38-6.38h38.98c3.52,0,6.38,2.86,6.38,6.38v38.98c0,3.52-2.86,6.38-6.38,6.38Zm-38.98-49.1c-2.06,0-3.74,1.68-3.74,3.74v38.98c0,2.06,1.68,3.74,3.74,3.74h38.98c2.06,0,3.74-1.68,3.74-3.74v-38.98c0-2.06-1.68-3.74-3.74-3.74h-38.98Z"/>
          <path d="m418.98,301.89c-.34,0-.67-.13-.93-.39-.51-.51-.51-1.35,0-1.86l13.77-13.77c.51-.51,1.35-.51,1.86,0s.51,1.35,0,1.86l-13.77,13.77c-.26.26-.6.39-.93.39Z"/>
          <path d="m418.98,312.67c-.34,0-.67-.13-.93-.39-.51-.51-.51-1.35,0-1.86l24.55-24.55c.51-.51,1.35-.51,1.86,0,.51.51.51,1.35,0,1.86l-24.55,24.55c-.26.26-.6.39-.93.39Z"/>
          <path d="m455.8,312.67h-24.55c-.73,0-1.32-.59-1.32-1.32s.59-1.32,1.32-1.32h24.55c.73,0,1.32.59,1.32,1.32s-.59,1.32-1.32,1.32Z"/>
        </g>
        <g>
          <path d="m536.55,337.5h-39.4c-3.55,0-6.45-2.89-6.45-6.45v-39.4c0-3.56,2.89-6.45,6.45-6.45h39.4c3.55,0,6.45,2.89,6.45,6.45v39.4c0,3.56-2.89,6.45-6.45,6.45Zm-39.4-49.63c-2.09,0-3.78,1.7-3.78,3.78v39.4c0,2.09,1.7,3.78,3.78,3.78h39.4c2.09,0,3.78-1.7,3.78-3.78v-39.4c0-2.09-1.7-3.78-3.78-3.78h-39.4Z"/>
          <path d="m516.85,337.5c-14.42,0-26.14-11.73-26.14-26.14s11.73-26.14,26.14-26.14,26.14,11.73,26.14,26.14-11.73,26.14-26.14,26.14Zm0-49.63c-12.95,0-23.48,10.53-23.48,23.48s10.53,23.48,23.48,23.48,23.48-10.53,23.48-23.48-10.53-23.48-23.48-23.48Z"/>
          <g>
            <path d="m549.75,326.7c-.17,0-.35-.03-.52-.11l-65.8-28.03c-.68-.29-.99-1.07-.7-1.75.29-.68,1.08-.99,1.75-.7l65.8,28.03c.68.29.99,1.07.7,1.75-.22.51-.71.81-1.23.81Z"/>
            <path d="m483.95,326.7c-.52,0-1.01-.3-1.23-.81-.29-.68.03-1.46.7-1.75l65.8-28.03c.67-.29,1.46.03,1.75.7.29.68-.03,1.46-.7,1.75l-65.8,28.03c-.17.07-.35.11-.52.11Z"/>
          </g>
        </g>
      </g>
    </g>
  </g>
</svg>