<?xml version="1.0" encoding="UTF-8"?>
<svg id="Layer_1" data-name="Layer 1" xmlns="http://www.w3.org/2000/svg" viewBox="0 0 600 800">
  <defs>
    <style>
    text{
    font-family: var(--pl-serif);
    }
      .cls-1 {
        letter-spacing: .02em;

      }

      .cls-2 {
        letter-spacing: -.03em;

      }

      .cls-3, .cls-4 {
        fill: #fff;
      }

      .cls-5 {
        letter-spacing: 0em;

      }

      .cls-6 {
        letter-spacing: 0em;

      }

      .cls-7 {
        letter-spacing: 0em;

      }

      .cls-8 {
        letter-spacing: 0em;

      }

      .cls-9 {
        letter-spacing: 0em;

      }

      .cls-4 {
        font-family: var(--pl-serif);
        font-size: 12px;
        font-weight: 700;
      }

      .cls-10 {
        letter-spacing: -.02em;

      }

      .cls-11 {
        letter-spacing: 0em;

      }
    </style>
  </defs>
  <g>
    <path class="cls-3" d="m143.45,162.75h-24.91c-.33,0-.62-.2-.74-.51l-7.85-20.93c-.15-.41.05-.87.46-1.02.41-.15.86.05,1.02.46l7.66,20.42h23.81l7.66-20.42c.15-.41.61-.61,1.02-.46.41.15.62.61.46,1.02l-7.85,20.93c-.12.31-.41.51-.74.51Z"/>
    <path class="cls-3" d="m137.89,149.23c-1.86,0-2.79-1.32-3.55-2.37-.75-1.06-1.26-1.71-2.26-1.71s-1.5.65-2.26,1.71c-.75,1.06-1.69,2.37-3.55,2.37s-2.79-1.32-3.54-2.37c-.75-1.06-1.26-1.71-2.26-1.71s-1.5.65-2.25,1.71c-.75,1.06-1.69,2.37-3.54,2.37-.65,0-1.25-.17-1.79-.5-.37-.23-.49-.72-.26-1.09.23-.37.72-.49,1.09-.26.29.18.59.26.95.26.99,0,1.5-.65,2.25-1.71.75-1.06,1.68-2.37,3.54-2.37s2.79,1.32,3.55,2.37c.75,1.06,1.26,1.71,2.26,1.71s1.5-.65,2.26-1.71c.75-1.06,1.69-2.37,3.55-2.37s2.79,1.32,3.55,2.37c.75,1.06,1.26,1.71,2.26,1.71s1.51-.65,2.26-1.71c.75-1.06,1.69-2.37,3.55-2.37s2.8,1.32,3.55,2.37c.5.7.96,1.35,1.61,1.6.41.15.62.61.46,1.02-.15.41-.61.62-1.02.46-1.1-.41-1.76-1.34-2.34-2.16-.75-1.06-1.27-1.71-2.26-1.71s-1.51.65-2.26,1.71c-.75,1.06-1.69,2.37-3.55,2.37Z"/>
    <path class="cls-3" d="m130.22,152.94c0,.86-.51,1.63-1.25,1.9v.05c.95.3,1.5,1.08,1.5,2.13-.06,1.38-1.15,2.49-3.63,2.49s-3.67-1.11-3.67-2.48v-.26h2.2c0,.56.3,1.03,1.3,1.03s1.3-.49,1.3-1.15c0-.61-.39-.9-.88-.9h-.91v-1.54h.71c.49,0,.88-.29.88-.9,0-.51-.39-.99-1.1-.99-.75,0-1.14.44-1.14.95h-2.09v-.31c0-1.29,1.24-2.35,3.44-2.35s3.33,1.06,3.33,2.34Zm8.61,2.11c0,2.66-.8,4.45-3.65,4.45s-3.67-1.79-3.67-4.45.81-4.45,3.67-4.45,3.65,1.79,3.65,4.45Zm-4.85-.63v1.24c0,1.51.33,2.15,1.2,2.15s1.18-.64,1.18-2.15v-1.24c0-1.51-.3-2.14-1.18-2.14s-1.2.63-1.2,2.14Z"/>
  </g>
  <g>
    <path class="cls-3" d="m196.14,162.75h-24.91c-.33,0-.62-.2-.74-.51l-7.85-20.93c-.15-.41.05-.87.46-1.02.41-.15.86.05,1.02.46l7.66,20.42h23.81l7.66-20.42c.15-.41.61-.62,1.02-.46.41.15.62.61.46,1.02l-7.85,20.93c-.12.31-.41.51-.74.51Z"/>
    <path class="cls-3" d="m190.58,149.23c-1.86,0-2.79-1.32-3.55-2.37-.75-1.06-1.26-1.71-2.26-1.71s-1.5.65-2.26,1.71c-.75,1.06-1.69,2.37-3.55,2.37s-2.79-1.32-3.54-2.37c-.75-1.06-1.26-1.71-2.26-1.71s-1.5.65-2.25,1.71c-.75,1.06-1.69,2.37-3.54,2.37-.65,0-1.25-.17-1.79-.5-.37-.23-.49-.72-.26-1.09.23-.37.72-.49,1.09-.26.29.18.59.26.95.26.99,0,1.5-.65,2.25-1.71.75-1.06,1.69-2.37,3.54-2.37s2.79,1.32,3.55,2.37c.75,1.06,1.26,1.71,2.26,1.71s1.5-.65,2.26-1.71c.75-1.06,1.69-2.37,3.55-2.37s2.79,1.32,3.55,2.37c.75,1.06,1.26,1.71,2.26,1.71s1.51-.65,2.26-1.71c.75-1.06,1.69-2.37,3.55-2.37s2.8,1.32,3.55,2.37c.5.7.97,1.35,1.61,1.6.41.15.62.61.46,1.02-.15.41-.61.62-1.02.46-1.1-.41-1.76-1.34-2.34-2.16-.75-1.06-1.27-1.71-2.26-1.71s-1.51.65-2.26,1.71c-.75,1.06-1.69,2.37-3.55,2.37Z"/>
    <g>
      <path class="cls-3" d="m177.34,155.75h2.48v-1.79c.43-.61,1.14-1.83,1.31-2.54h1.06v4.33h1.2v1.84h-1.2v1.76h-2.38v-1.76h-4.19v-1.87c.81-1.19,1.84-3.17,2.4-5.13h2.45c-.19,1.36-1.95,3.94-3.14,5.16Z"/>
      <path class="cls-3" d="m191.51,155.05c0,2.67-.8,4.46-3.65,4.46s-3.67-1.79-3.67-4.46.81-4.46,3.67-4.46,3.65,1.79,3.65,4.46Zm-4.86-.63v1.24c0,1.51.33,2.15,1.2,2.15s1.18-.64,1.18-2.15v-1.24c0-1.51-.3-2.14-1.18-2.14s-1.2.63-1.2,2.14Z"/>
    </g>
  </g>
  <g>
    <path class="cls-3" d="m248.82,162.75h-24.91c-.33,0-.62-.2-.74-.51l-7.86-20.93c-.15-.41.05-.87.46-1.02.41-.16.86.05,1.02.46l7.66,20.42h23.82l7.66-20.42c.15-.41.61-.62,1.02-.46.41.15.62.61.46,1.02l-7.85,20.93c-.12.31-.41.51-.74.51Z"/>
    <path class="cls-3" d="m243.26,149.23c-1.86,0-2.79-1.32-3.55-2.37-.75-1.06-1.26-1.71-2.26-1.71s-1.5.65-2.26,1.71c-.75,1.06-1.69,2.37-3.55,2.37s-2.79-1.32-3.55-2.37c-.75-1.06-1.26-1.71-2.25-1.71s-1.5.65-2.25,1.71c-.75,1.06-1.69,2.37-3.54,2.37-.65,0-1.25-.17-1.79-.5-.37-.23-.48-.72-.26-1.09.23-.37.71-.49,1.09-.26.29.18.59.26.95.26.99,0,1.5-.65,2.25-1.71.75-1.06,1.69-2.37,3.54-2.37s2.79,1.32,3.55,2.37c.75,1.06,1.26,1.71,2.25,1.71s1.5-.65,2.25-1.71c.75-1.06,1.69-2.37,3.55-2.37s2.79,1.32,3.55,2.37c.75,1.06,1.26,1.71,2.26,1.71s1.51-.65,2.26-1.71c.75-1.06,1.69-2.37,3.55-2.37s2.8,1.32,3.55,2.37c.5.7.97,1.35,1.61,1.6.41.15.62.61.46,1.02-.15.41-.61.62-1.02.46-1.1-.41-1.76-1.34-2.34-2.16-.76-1.06-1.27-1.71-2.26-1.71s-1.51.65-2.26,1.71c-.75,1.06-1.69,2.37-3.55,2.37Z"/>
    <g>
      <path class="cls-3" d="m231.11,152.87l-.1,1.3s.67-.56,1.84-.56c1.83,0,2.99,1.1,2.99,2.93,0,1.64-1.36,2.97-3.53,2.97-2.5,0-3.8-1.18-3.8-2.93h2.2c0,.65.45,1.2,1.34,1.2s1.33-.55,1.33-1.28-.46-1.29-1.31-1.29-1.06.46-1.2.63l-1.98-.28.36-4.82h5.96v2.13h-4.09Z"/>
      <path class="cls-3" d="m244.2,155.05c0,2.67-.8,4.46-3.65,4.46s-3.67-1.79-3.67-4.46.81-4.46,3.67-4.46,3.65,1.79,3.65,4.46Zm-4.86-.63v1.24c0,1.51.32,2.15,1.2,2.15s1.18-.64,1.18-2.15v-1.24c0-1.51-.3-2.14-1.18-2.14s-1.2.63-1.2,2.14Z"/>
    </g>
  </g>
  <g>
    <path class="cls-3" d="m301.51,162.75h-24.91c-.33,0-.62-.2-.74-.51l-7.86-20.93c-.15-.41.05-.87.46-1.02.4-.16.86.05,1.02.46l7.66,20.42h23.82l7.66-20.42c.15-.41.61-.62,1.02-.46.41.15.62.61.46,1.02l-7.85,20.93c-.12.31-.41.51-.74.51Z"/>
    <path class="cls-3" d="m295.95,149.23c-1.86,0-2.79-1.32-3.55-2.37-.75-1.06-1.26-1.71-2.26-1.71s-1.5.65-2.26,1.71c-.75,1.06-1.69,2.37-3.55,2.37s-2.79-1.32-3.55-2.37c-.75-1.06-1.26-1.71-2.25-1.71s-1.5.65-2.25,1.71c-.75,1.06-1.69,2.37-3.54,2.37-.65,0-1.25-.17-1.79-.5-.37-.23-.49-.72-.26-1.09.23-.37.71-.49,1.09-.26.29.18.59.26.95.26.99,0,1.5-.65,2.25-1.71.75-1.06,1.69-2.37,3.54-2.37s2.79,1.32,3.55,2.37c.75,1.06,1.26,1.71,2.25,1.71s1.5-.65,2.25-1.71c.75-1.06,1.69-2.37,3.55-2.37s2.79,1.32,3.55,2.37c.75,1.06,1.26,1.71,2.26,1.71s1.51-.65,2.26-1.71c.75-1.06,1.69-2.37,3.55-2.37s2.8,1.32,3.55,2.37c.5.7.97,1.35,1.61,1.6.41.15.62.61.46,1.02-.15.41-.61.62-1.02.46-1.1-.41-1.76-1.34-2.34-2.16-.75-1.06-1.27-1.71-2.26-1.71s-1.51.65-2.26,1.71c-.75,1.06-1.69,2.37-3.55,2.37Z"/>
    <g>
      <path class="cls-3" d="m288.39,153.5h-2.23v-.09c0-.61-.38-1.13-1.18-1.13s-1.25.6-1.25,1.5v.73c.51-.46,1.28-.65,1.81-.65,1.7,0,3.05.93,3.05,2.64,0,1.93-1.43,3-3.65,3-2.5,0-3.73-1.33-3.73-4.24,0-3.34,1.23-4.67,3.73-4.67,2.04,0,3.44,1,3.44,2.9Zm-4.66,3.09c0,.79.43,1.23,1.21,1.23s1.24-.41,1.24-1.2-.44-1.25-1.23-1.25-1.23.44-1.23,1.23Z"/>
      <path class="cls-3" d="m296.88,155.05c0,2.67-.8,4.46-3.65,4.46s-3.67-1.79-3.67-4.46.81-4.46,3.67-4.46,3.65,1.79,3.65,4.46Zm-4.86-.63v1.24c0,1.51.32,2.15,1.2,2.15s1.18-.64,1.18-2.15v-1.24c0-1.51-.3-2.14-1.18-2.14s-1.2.63-1.2,2.14Z"/>
    </g>
  </g>
  <g>
    <path class="cls-3" d="m354.19,162.75h-24.91c-.33,0-.62-.2-.74-.51l-7.86-20.93c-.15-.41.05-.87.46-1.02.41-.16.86.05,1.02.46l7.66,20.42h23.82l7.66-20.42c.15-.41.61-.62,1.02-.46.41.15.62.61.46,1.02l-7.86,20.93c-.12.31-.41.51-.74.51Z"/>
    <path class="cls-3" d="m348.63,149.23c-1.86,0-2.79-1.32-3.55-2.37-.75-1.06-1.26-1.71-2.26-1.71s-1.5.65-2.25,1.71c-.75,1.06-1.69,2.37-3.55,2.37s-2.79-1.32-3.55-2.37c-.75-1.06-1.26-1.71-2.25-1.71s-1.5.65-2.25,1.71c-.75,1.06-1.69,2.37-3.54,2.37-.65,0-1.25-.17-1.79-.5-.37-.23-.48-.72-.26-1.09.23-.37.71-.49,1.09-.26.29.18.59.26.95.26.99,0,1.5-.65,2.25-1.71.75-1.06,1.69-2.37,3.54-2.37s2.79,1.32,3.55,2.37c.75,1.06,1.26,1.71,2.25,1.71s1.5-.65,2.26-1.71c.75-1.06,1.69-2.37,3.55-2.37s2.79,1.32,3.55,2.37c.75,1.06,1.26,1.71,2.26,1.71s1.51-.65,2.26-1.71c.75-1.06,1.69-2.37,3.55-2.37s2.8,1.32,3.55,2.37c.5.7.97,1.35,1.61,1.6.41.15.62.61.46,1.02-.15.41-.61.62-1.02.46-1.1-.41-1.76-1.34-2.34-2.16-.76-1.06-1.27-1.71-2.26-1.71s-1.51.65-2.26,1.71c-.75,1.06-1.69,2.37-3.55,2.37Z"/>
    <g>
      <path class="cls-3" d="m338.14,158.62v.74h-2.78c0-2.38,1.15-4.63,2.72-6.46h-4.13v-2.15h7.26v1.14c-1.59,1.96-3.07,4.19-3.07,6.73Z"/>
      <path class="cls-3" d="m349.57,155.05c0,2.67-.8,4.46-3.65,4.46s-3.67-1.79-3.67-4.46.81-4.46,3.67-4.46,3.65,1.79,3.65,4.46Zm-4.86-.63v1.24c0,1.51.32,2.15,1.2,2.15s1.18-.64,1.18-2.15v-1.24c0-1.51-.3-2.14-1.18-2.14s-1.2.63-1.2,2.14Z"/>
    </g>
  </g>
  <g>
    <path class="cls-3" d="m405.35,162.75h-24.91c-.33,0-.62-.2-.74-.51l-7.86-20.93c-.15-.41.05-.87.46-1.02.41-.16.86.05,1.02.46l7.66,20.42h23.82l7.66-20.42c.15-.41.61-.62,1.02-.46.41.15.62.61.46,1.02l-7.86,20.93c-.12.31-.41.51-.74.51Z"/>
    <path class="cls-3" d="m399.79,149.23c-1.86,0-2.79-1.32-3.55-2.37-.75-1.06-1.26-1.71-2.26-1.71s-1.5.65-2.25,1.71c-.75,1.06-1.69,2.37-3.55,2.37s-2.79-1.32-3.55-2.37c-.75-1.06-1.26-1.71-2.25-1.71s-1.5.65-2.25,1.71c-.75,1.06-1.69,2.37-3.54,2.37-.65,0-1.25-.17-1.79-.5-.37-.23-.48-.72-.26-1.09.23-.37.71-.49,1.09-.26.29.18.59.26.95.26.99,0,1.5-.65,2.25-1.71.75-1.06,1.68-2.37,3.54-2.37s2.79,1.32,3.55,2.37c.75,1.06,1.26,1.71,2.25,1.71s1.5-.65,2.26-1.71c.75-1.06,1.69-2.37,3.55-2.37s2.79,1.32,3.55,2.37c.75,1.06,1.26,1.71,2.26,1.71s1.51-.65,2.26-1.71c.75-1.06,1.69-2.37,3.55-2.37s2.8,1.32,3.55,2.37c.5.7.97,1.35,1.61,1.6.41.15.62.61.46,1.02-.15.41-.61.62-1.02.46-1.1-.41-1.76-1.34-2.34-2.16-.75-1.06-1.27-1.71-2.26-1.71s-1.51.65-2.26,1.71c-.75,1.06-1.69,2.37-3.55,2.37Z"/>
    <g>
      <path class="cls-3" d="m392.38,154.84c0,3.34-1.23,4.67-3.73,4.67-2.04,0-3.44-1-3.44-2.9h2.23v.09c0,.61.38,1.13,1.18,1.13s1.25-.6,1.25-1.5v-.73c-.51.46-1.28.65-1.81.65-1.7,0-3.05-.93-3.05-2.64,0-1.93,1.43-3,3.65-3,2.5,0,3.73,1.33,3.73,4.24Zm-4.97-1.33c0,.79.43,1.23,1.21,1.23s1.24-.41,1.24-1.2-.44-1.25-1.23-1.25-1.23.44-1.23,1.23Z"/>
      <path class="cls-3" d="m395.99,152.87l-.1,1.3s.67-.56,1.84-.56c1.83,0,2.99,1.1,2.99,2.93,0,1.64-1.36,2.97-3.53,2.97-2.5,0-3.8-1.18-3.8-2.93h2.2c0,.65.45,1.2,1.34,1.2s1.33-.55,1.33-1.28-.46-1.29-1.31-1.29-1.06.46-1.2.63l-1.98-.28.36-4.82h5.96v2.13h-4.09Z"/>
    </g>
  </g>
  <g>
    <path class="cls-3" d="m144.56,226.01h-25.73c-.34,0-.65-.21-.76-.53l-8.11-21.62c-.16-.42.06-.89.48-1.05.42-.16.89.05,1.05.48l7.91,21.09h24.6l7.91-21.09c.16-.42.63-.64,1.05-.48.42.16.64.63.48,1.05l-8.11,21.62c-.12.32-.42.53-.76.53Z"/>
    <path class="cls-3" d="m138.81,212.04c-1.92,0-2.89-1.36-3.66-2.45-.78-1.09-1.31-1.76-2.33-1.76s-1.55.67-2.33,1.76c-.78,1.09-1.74,2.45-3.66,2.45s-2.88-1.36-3.66-2.45c-.78-1.09-1.31-1.76-2.33-1.76s-1.55.67-2.33,1.76c-.78,1.09-1.74,2.45-3.66,2.45-.67,0-1.29-.17-1.85-.52-.38-.24-.5-.74-.26-1.12.24-.38.74-.5,1.12-.26.3.18.61.27.98.27,1.02,0,1.55-.67,2.32-1.76.78-1.09,1.74-2.45,3.66-2.45s2.89,1.36,3.66,2.45c.78,1.09,1.31,1.76,2.33,1.76s1.55-.67,2.33-1.76c.78-1.09,1.74-2.45,3.66-2.45s2.89,1.36,3.66,2.45c.78,1.09,1.31,1.76,2.33,1.76s1.56-.67,2.34-1.76c.78-1.09,1.75-2.45,3.67-2.45s2.89,1.36,3.67,2.45c.51.72,1,1.4,1.66,1.65.42.16.64.63.48,1.05-.16.42-.63.64-1.05.48-1.13-.43-1.82-1.38-2.42-2.23-.78-1.09-1.31-1.77-2.34-1.77s-1.56.67-2.34,1.76c-.78,1.09-1.75,2.45-3.67,2.45Z"/>
    <path class="cls-3" d="m133.75,217.88c0,1.16-.94,2.09-2.09,2.09s-2.09-.94-2.09-2.09.94-2.09,2.09-2.09,2.09.94,2.09,2.09Z"/>
  </g>
  <g>
    <path class="cls-3" d="m198.97,226.01h-25.73c-.34,0-.64-.21-.76-.53l-8.11-21.62c-.16-.42.06-.89.48-1.05.42-.16.89.05,1.05.48l7.91,21.09h24.6l7.91-21.09c.16-.42.63-.64,1.05-.48.42.16.64.63.48,1.05l-8.11,21.62c-.12.32-.42.53-.76.53Z"/>
    <path class="cls-3" d="m193.23,212.04c-1.92,0-2.89-1.36-3.66-2.45-.78-1.09-1.31-1.76-2.33-1.76s-1.55.67-2.33,1.76c-.78,1.09-1.74,2.45-3.66,2.45s-2.88-1.36-3.66-2.45c-.78-1.09-1.31-1.76-2.33-1.76s-1.55.67-2.33,1.76c-.78,1.09-1.74,2.45-3.66,2.45-.67,0-1.29-.17-1.85-.52-.38-.24-.5-.74-.26-1.12.24-.38.74-.5,1.12-.26.3.18.61.27.98.27,1.02,0,1.55-.67,2.32-1.76.78-1.09,1.74-2.45,3.66-2.45s2.89,1.36,3.66,2.45c.78,1.09,1.31,1.76,2.33,1.76s1.55-.67,2.33-1.76c.78-1.09,1.74-2.45,3.66-2.45s2.89,1.36,3.66,2.45c.78,1.09,1.31,1.76,2.33,1.76s1.56-.67,2.34-1.76c.78-1.09,1.75-2.45,3.67-2.45s2.89,1.36,3.67,2.45c.51.72,1,1.4,1.66,1.65.42.16.64.63.48,1.05-.16.42-.63.64-1.05.48-1.13-.43-1.82-1.38-2.42-2.23-.78-1.09-1.31-1.77-2.34-1.77s-1.56.67-2.34,1.76c-.78,1.09-1.75,2.45-3.67,2.45Z"/>
    <path class="cls-3" d="m185.14,217.88c0,1.16-.94,2.09-2.09,2.09s-2.09-.94-2.09-2.09.94-2.09,2.09-2.09,2.09.94,2.09,2.09Z"/>
    <path class="cls-3" d="m191.69,217.88c0,1.16-.94,2.09-2.09,2.09s-2.09-.94-2.09-2.09.94-2.09,2.09-2.09,2.09.94,2.09,2.09Z"/>
  </g>
  <g>
    <path class="cls-3" d="m307.81,226.01h-25.73c-.34,0-.65-.21-.76-.53l-8.11-21.62c-.16-.42.06-.89.48-1.05.42-.16.89.05,1.05.48l7.91,21.09h24.6l7.91-21.09c.16-.42.63-.64,1.05-.48.42.16.64.63.48,1.05l-8.11,21.62c-.12.32-.42.53-.76.53Z"/>
    <path class="cls-3" d="m302.07,212.04c-1.92,0-2.89-1.36-3.66-2.45-.78-1.09-1.31-1.76-2.33-1.76s-1.55.67-2.33,1.76c-.78,1.09-1.74,2.45-3.66,2.45s-2.88-1.36-3.66-2.45c-.78-1.09-1.31-1.76-2.33-1.76s-1.55.67-2.33,1.76c-.78,1.09-1.74,2.45-3.66,2.45-.67,0-1.29-.17-1.85-.51-.38-.24-.5-.74-.26-1.12.24-.38.74-.5,1.12-.27.3.18.61.27.99.27,1.02,0,1.55-.67,2.33-1.76.78-1.09,1.74-2.45,3.66-2.45s2.88,1.36,3.66,2.45c.78,1.09,1.31,1.76,2.33,1.76s1.55-.67,2.33-1.76c.78-1.09,1.74-2.45,3.66-2.45s2.89,1.36,3.66,2.45c.78,1.09,1.31,1.76,2.33,1.76s1.56-.67,2.34-1.76c.78-1.09,1.75-2.45,3.67-2.45s2.89,1.36,3.67,2.45c.51.72,1,1.4,1.66,1.65.42.16.64.63.48,1.05-.16.42-.63.64-1.05.48-1.13-.43-1.82-1.38-2.42-2.23-.78-1.09-1.31-1.76-2.34-1.76s-1.56.67-2.34,1.76c-.78,1.09-1.75,2.45-3.67,2.45Z"/>
    <path class="cls-3" d="m293.72,220.56c0,1.16-.94,2.09-2.09,2.09s-2.09-.94-2.09-2.09.94-2.09,2.09-2.09,2.09.94,2.09,2.09Z"/>
    <path class="cls-3" d="m300.27,220.56c0,1.16-.94,2.09-2.09,2.09s-2.09-.94-2.09-2.09.94-2.09,2.09-2.09,2.09.94,2.09,2.09Z"/>
    <path class="cls-3" d="m293.72,215.21c0,1.16-.94,2.09-2.09,2.09s-2.09-.94-2.09-2.09.94-2.09,2.09-2.09,2.09.94,2.09,2.09Z"/>
    <path class="cls-3" d="m300.27,215.21c0,1.16-.94,2.09-2.09,2.09s-2.09-.94-2.09-2.09.94-2.09,2.09-2.09,2.09.94,2.09,2.09Z"/>
  </g>
  <g>
    <path class="cls-3" d="m362.22,226.01h-25.73c-.34,0-.65-.21-.76-.53l-8.11-21.62c-.16-.42.06-.89.48-1.05.42-.16.89.05,1.05.48l7.91,21.09h24.6l7.91-21.09c.16-.42.63-.64,1.05-.48.42.16.64.63.48,1.05l-8.11,21.62c-.12.32-.42.53-.76.53Z"/>
    <path class="cls-3" d="m356.48,212.04c-1.92,0-2.89-1.36-3.66-2.45-.78-1.09-1.31-1.76-2.33-1.76s-1.55.67-2.33,1.76c-.78,1.09-1.74,2.45-3.66,2.45s-2.88-1.36-3.66-2.45c-.78-1.09-1.31-1.76-2.33-1.76s-1.55.67-2.33,1.76c-.78,1.09-1.74,2.45-3.66,2.45-.67,0-1.29-.17-1.84-.51-.38-.24-.5-.74-.26-1.12.24-.38.74-.5,1.12-.27.3.18.61.27.98.27,1.02,0,1.55-.67,2.33-1.76.78-1.09,1.74-2.45,3.66-2.45s2.88,1.36,3.66,2.45c.78,1.09,1.31,1.76,2.33,1.76s1.55-.67,2.33-1.76c.78-1.09,1.74-2.45,3.66-2.45s2.89,1.36,3.66,2.45c.78,1.09,1.31,1.76,2.33,1.76s1.56-.67,2.34-1.76c.78-1.09,1.75-2.45,3.67-2.45s2.89,1.36,3.67,2.45c.51.72,1,1.4,1.66,1.65.42.16.64.63.48,1.05-.16.42-.63.64-1.05.48-1.13-.43-1.82-1.38-2.42-2.23-.78-1.09-1.31-1.76-2.34-1.76s-1.56.67-2.34,1.76c-.78,1.09-1.75,2.45-3.67,2.45Z"/>
    <path class="cls-3" d="m348.18,220.56c0,1.16-.94,2.09-2.09,2.09s-2.09-.94-2.09-2.09.94-2.09,2.09-2.09,2.09.94,2.09,2.09Z"/>
    <path class="cls-3" d="m354.73,220.56c0,1.16-.94,2.09-2.09,2.09s-2.09-.94-2.09-2.09.94-2.09,2.09-2.09,2.09.94,2.09,2.09Z"/>
    <g>
      <path class="cls-3" d="m344.91,215.21c0,1.16-.94,2.09-2.09,2.09s-2.09-.94-2.09-2.09.94-2.09,2.09-2.09,2.09.94,2.09,2.09Z"/>
      <path class="cls-3" d="m351.45,215.21c0,1.16-.94,2.09-2.09,2.09s-2.09-.94-2.09-2.09.94-2.09,2.09-2.09,2.09.94,2.09,2.09Z"/>
      <path class="cls-3" d="m358,215.21c0,1.16-.94,2.09-2.09,2.09s-2.09-.94-2.09-2.09.94-2.09,2.09-2.09,2.09.94,2.09,2.09Z"/>
    </g>
  </g>
  <g>
    <path class="cls-3" d="m415.07,226.01h-25.73c-.34,0-.65-.21-.76-.53l-8.11-21.62c-.16-.42.06-.89.48-1.05.42-.16.89.05,1.05.48l7.91,21.09h24.6l7.91-21.09c.16-.42.63-.64,1.05-.48.42.16.64.63.48,1.05l-8.11,21.62c-.12.32-.42.53-.76.53Z"/>
    <path class="cls-3" d="m409.33,212.04c-1.92,0-2.89-1.36-3.66-2.45-.78-1.09-1.31-1.76-2.33-1.76s-1.55.67-2.33,1.76c-.78,1.09-1.74,2.45-3.66,2.45s-2.88-1.36-3.66-2.45c-.78-1.09-1.31-1.76-2.33-1.76s-1.55.67-2.33,1.76c-.78,1.09-1.74,2.45-3.66,2.45-.67,0-1.29-.17-1.84-.51-.38-.24-.5-.74-.26-1.12.24-.38.74-.5,1.12-.27.3.18.61.27.98.27,1.02,0,1.55-.67,2.33-1.76.78-1.09,1.74-2.45,3.66-2.45s2.88,1.36,3.66,2.45c.78,1.09,1.31,1.76,2.33,1.76s1.55-.67,2.33-1.76c.78-1.09,1.74-2.45,3.66-2.45s2.89,1.36,3.66,2.45c.78,1.09,1.31,1.76,2.33,1.76s1.56-.67,2.34-1.76c.78-1.09,1.75-2.45,3.67-2.45s2.89,1.36,3.67,2.45c.51.72,1,1.4,1.66,1.65.42.16.64.63.48,1.05-.16.42-.63.64-1.05.48-1.13-.43-1.82-1.38-2.42-2.23-.78-1.09-1.31-1.76-2.34-1.76s-1.56.67-2.34,1.76c-.78,1.09-1.75,2.45-3.67,2.45Z"/>
    <g>
      <path class="cls-3" d="m397.76,215.21c0,1.16-.94,2.09-2.09,2.09s-2.09-.94-2.09-2.09.94-2.09,2.09-2.09,2.09.94,2.09,2.09Z"/>
      <path class="cls-3" d="m404.3,215.21c0,1.16-.94,2.09-2.09,2.09s-2.09-.94-2.09-2.09.94-2.09,2.09-2.09,2.09.94,2.09,2.09Z"/>
      <path class="cls-3" d="m410.84,215.21c0,1.16-.94,2.09-2.09,2.09s-2.09-.94-2.09-2.09.94-2.09,2.09-2.09,2.09.94,2.09,2.09Z"/>
    </g>
    <g>
      <path class="cls-3" d="m397.76,220.56c0,1.16-.94,2.09-2.09,2.09s-2.09-.94-2.09-2.09.94-2.09,2.09-2.09,2.09.94,2.09,2.09Z"/>
      <path class="cls-3" d="m404.3,220.56c0,1.16-.94,2.09-2.09,2.09s-2.09-.94-2.09-2.09.94-2.09,2.09-2.09,2.09.94,2.09,2.09Z"/>
      <path class="cls-3" d="m410.84,220.56c0,1.16-.94,2.09-2.09,2.09s-2.09-.94-2.09-2.09.94-2.09,2.09-2.09,2.09.94,2.09,2.09Z"/>
    </g>
  </g>
  <g>
    <path class="cls-3" d="m253.39,226.01h-25.73c-.34,0-.65-.21-.76-.53l-8.11-21.62c-.16-.42.06-.89.48-1.05.42-.16.89.05,1.05.48l7.91,21.09h24.6l7.91-21.09c.16-.42.63-.64,1.05-.48.42.16.64.63.48,1.05l-8.11,21.62c-.12.32-.42.53-.76.53Z"/>
    <path class="cls-3" d="m247.65,212.04c-1.92,0-2.89-1.36-3.66-2.45-.78-1.09-1.31-1.76-2.33-1.76s-1.55.67-2.33,1.76c-.78,1.09-1.74,2.45-3.66,2.45s-2.88-1.36-3.66-2.45c-.78-1.09-1.31-1.76-2.33-1.76s-1.55.67-2.33,1.76c-.78,1.09-1.74,2.45-3.66,2.45-.67,0-1.29-.17-1.85-.51-.38-.24-.5-.74-.26-1.12.24-.38.74-.5,1.12-.27.3.18.61.27.99.27,1.02,0,1.55-.67,2.33-1.76.78-1.09,1.74-2.45,3.66-2.45s2.88,1.36,3.66,2.45c.78,1.09,1.31,1.76,2.33,1.76s1.55-.67,2.33-1.76c.78-1.09,1.74-2.45,3.66-2.45s2.89,1.36,3.66,2.45c.78,1.09,1.31,1.76,2.33,1.76s1.56-.67,2.34-1.76c.78-1.09,1.75-2.45,3.67-2.45s2.89,1.36,3.67,2.45c.51.72,1,1.4,1.66,1.65.42.16.64.63.48,1.05-.16.42-.63.64-1.05.48-1.13-.43-1.82-1.38-2.42-2.23-.78-1.09-1.31-1.76-2.34-1.76s-1.56.67-2.34,1.76c-.78,1.09-1.75,2.45-3.67,2.45Z"/>
    <path class="cls-3" d="m242.62,217.88c0,1.16-.94,2.09-2.09,2.09s-2.1-.94-2.1-2.09.94-2.09,2.1-2.09,2.09.94,2.09,2.09Z"/>
    <path class="cls-3" d="m232.82,219.45c-.87-.77-.95-2.09-.18-2.96.77-.87,2.09-.95,2.96-.18.87.77.95,2.09.18,2.96-.77.87-2.09.95-2.96.18Z"/>
    <path class="cls-3" d="m248.94,217.88c0,1.16-.94,2.09-2.09,2.09s-2.09-.94-2.09-2.09.94-2.09,2.09-2.09,2.09.94,2.09,2.09Z"/>
  </g>
  <g>
    <path class="cls-3" d="m144.29,92.91h-25.53c-.34,0-.64-.21-.76-.53l-8.05-21.46c-.16-.42.05-.89.47-1.04.42-.16.89.05,1.04.47l7.85,20.93h24.41l7.85-20.93c.16-.42.63-.63,1.04-.47.42.16.63.62.47,1.04l-8.05,21.46c-.12.32-.42.53-.76.53Z"/>
    <path class="cls-3" d="m138.59,79.05c-1.91,0-2.86-1.35-3.63-2.43-.77-1.08-1.3-1.75-2.31-1.75s-1.54.67-2.31,1.75c-.77,1.08-1.73,2.43-3.63,2.43s-2.86-1.35-3.63-2.43c-.77-1.09-1.3-1.75-2.31-1.75s-1.54.67-2.31,1.75c-.77,1.08-1.73,2.43-3.63,2.43-.67,0-1.28-.17-1.83-.51-.38-.24-.5-.74-.26-1.12.24-.38.74-.5,1.12-.26.29.18.61.27.98.27,1.01,0,1.54-.67,2.31-1.75.77-1.08,1.73-2.43,3.63-2.43s2.86,1.35,3.63,2.43c.77,1.08,1.3,1.75,2.31,1.75s1.54-.67,2.31-1.75c.77-1.08,1.73-2.43,3.63-2.43s2.86,1.35,3.63,2.43c.77,1.09,1.3,1.75,2.31,1.75s1.54-.67,2.32-1.75c.77-1.08,1.73-2.43,3.64-2.43s2.87,1.35,3.64,2.43c.51.71.99,1.39,1.65,1.64.42.16.63.62.47,1.04-.16.42-.63.63-1.04.47-1.13-.42-1.8-1.37-2.4-2.21-.77-1.09-1.3-1.75-2.32-1.75s-1.54.67-2.32,1.75c-.77,1.08-1.73,2.43-3.64,2.43Z"/>
  </g>
  <g>
    <path class="cls-3" d="m198.29,92.91h-25.53c-.34,0-.64-.21-.76-.53l-8.05-21.46c-.16-.42.05-.89.47-1.04.42-.16.89.05,1.04.47l7.85,20.93h24.41l7.85-20.93c.16-.42.62-.63,1.04-.47.42.16.63.62.47,1.04l-8.05,21.46c-.12.32-.42.53-.76.53Z"/>
    <path class="cls-3" d="m192.59,79.05c-1.91,0-2.86-1.35-3.63-2.43-.77-1.08-1.3-1.75-2.31-1.75s-1.54.67-2.31,1.75c-.77,1.08-1.73,2.43-3.63,2.43s-2.86-1.35-3.63-2.43c-.77-1.09-1.3-1.75-2.31-1.75s-1.54.67-2.31,1.75c-.77,1.08-1.73,2.43-3.63,2.43-.67,0-1.28-.17-1.83-.51-.38-.24-.5-.74-.26-1.12.24-.38.73-.5,1.12-.26.29.18.61.27.98.27,1.01,0,1.54-.67,2.31-1.75.77-1.08,1.73-2.43,3.63-2.43s2.86,1.35,3.63,2.43c.77,1.08,1.3,1.75,2.31,1.75s1.54-.67,2.31-1.75c.77-1.08,1.73-2.43,3.63-2.43s2.86,1.35,3.63,2.43c.77,1.09,1.3,1.75,2.31,1.75s1.54-.67,2.32-1.75c.77-1.08,1.73-2.43,3.64-2.43s2.87,1.35,3.64,2.43c.51.71.99,1.39,1.65,1.64.42.16.63.62.47,1.04-.16.42-.63.63-1.04.47-1.13-.42-1.8-1.37-2.4-2.21-.77-1.09-1.3-1.75-2.32-1.75s-1.54.67-2.32,1.75c-.77,1.08-1.73,2.43-3.64,2.43Z"/>
    <path class="cls-3" d="m198.79,96.74h-26.54c-.45,0-.81-.36-.81-.81s.36-.81.81-.81h26.54c.45,0,.81.36.81.81s-.36.81-.81.81Z"/>
  </g>
  <g>
    <path class="cls-3" d="m252.29,92.91h-25.53c-.34,0-.64-.21-.76-.53l-8.05-21.46c-.16-.42.05-.89.47-1.04.42-.16.89.05,1.04.47l7.85,20.93h24.41l7.85-20.93c.16-.42.63-.63,1.04-.47.42.16.63.62.47,1.04l-8.05,21.46c-.12.32-.42.53-.76.53Z"/>
    <path class="cls-3" d="m246.59,79.05c-1.91,0-2.86-1.35-3.63-2.43-.77-1.08-1.3-1.75-2.31-1.75s-1.54.67-2.31,1.75c-.77,1.08-1.73,2.43-3.63,2.43s-2.86-1.35-3.63-2.43c-.77-1.09-1.3-1.75-2.31-1.75s-1.54.67-2.31,1.75c-.77,1.08-1.73,2.43-3.63,2.43-.67,0-1.28-.17-1.83-.51-.38-.24-.5-.74-.26-1.12.24-.38.74-.5,1.12-.26.29.18.61.27.98.27,1.01,0,1.54-.67,2.31-1.75.77-1.08,1.73-2.43,3.63-2.43s2.86,1.35,3.63,2.43c.77,1.08,1.3,1.75,2.31,1.75s1.54-.67,2.31-1.75c.77-1.08,1.73-2.43,3.63-2.43s2.86,1.35,3.63,2.43c.77,1.09,1.3,1.75,2.31,1.75s1.54-.67,2.32-1.75c.77-1.08,1.73-2.43,3.64-2.43s2.87,1.35,3.64,2.43c.51.71.99,1.39,1.65,1.64.42.16.63.62.47,1.04-.16.42-.63.63-1.04.47-1.13-.42-1.8-1.37-2.4-2.21-.77-1.09-1.3-1.75-2.32-1.75s-1.54.67-2.32,1.75c-.77,1.08-1.73,2.43-3.64,2.43Z"/>
    <path class="cls-3" d="m252.79,96.74h-26.54c-.45,0-.81-.36-.81-.81s.36-.81.81-.81h26.54c.45,0,.81.36.81.81s-.36.81-.81.81Z"/>
    <path class="cls-3" d="m252.79,100.23h-26.54c-.45,0-.81-.36-.81-.81s.36-.81.81-.81h26.54c.45,0,.81.36.81.81s-.36.81-.81.81Z"/>
  </g>
  <g>
    <path class="cls-3" d="m306.29,92.91h-25.53c-.34,0-.64-.21-.76-.53l-8.05-21.46c-.16-.42.05-.89.47-1.04.42-.16.89.05,1.04.47l7.85,20.93h24.41l7.85-20.93c.16-.42.63-.63,1.04-.47.42.16.63.62.47,1.04l-8.05,21.46c-.12.32-.42.53-.76.53Z"/>
    <path class="cls-3" d="m300.59,79.05c-1.91,0-2.86-1.35-3.63-2.43-.77-1.08-1.3-1.75-2.31-1.75s-1.54.67-2.31,1.75c-.77,1.08-1.73,2.43-3.63,2.43s-2.86-1.35-3.63-2.43c-.77-1.09-1.3-1.75-2.31-1.75s-1.54.67-2.31,1.75c-.77,1.08-1.73,2.43-3.63,2.43-.67,0-1.28-.17-1.83-.51-.38-.24-.5-.74-.26-1.12.24-.38.74-.5,1.12-.26.29.18.6.27.98.27,1.01,0,1.54-.67,2.31-1.75.77-1.08,1.73-2.43,3.63-2.43s2.86,1.35,3.63,2.43c.77,1.08,1.3,1.75,2.31,1.75s1.54-.67,2.31-1.75c.77-1.08,1.73-2.43,3.63-2.43s2.86,1.35,3.63,2.43c.77,1.09,1.3,1.75,2.31,1.75s1.54-.67,2.32-1.75c.77-1.08,1.73-2.43,3.64-2.43s2.87,1.35,3.64,2.43c.51.71.99,1.39,1.65,1.64.42.16.63.62.47,1.04-.16.42-.63.63-1.04.47-1.13-.42-1.8-1.37-2.4-2.21-.77-1.09-1.3-1.75-2.32-1.75s-1.54.67-2.32,1.75c-.77,1.08-1.73,2.43-3.64,2.43Z"/>
    <g>
      <path class="cls-3" d="m310.05,90.92c-.07,0-.15,0-.22-.03l-36.55-10.3c-.43-.12-.68-.57-.56-1,.12-.43.57-.69,1-.56l36.55,10.3c.43.12.68.57.56,1-.1.36-.43.59-.78.59Z"/>
      <path class="cls-3" d="m277,90.92c-.35,0-.68-.23-.78-.59-.12-.43.13-.88.56-1l36.55-10.3c.43-.13.88.13,1,.56.12.43-.13.88-.56,1l-36.55,10.3c-.07.02-.15.03-.22.03Z"/>
    </g>
  </g>
  <g>
    <path class="cls-3" d="m366.34,93.89h-25.08c-.33,0-.63-.21-.75-.52l-7.91-21.08c-.15-.41.05-.87.47-1.03.41-.16.87.05,1.03.47l7.71,20.56h23.98l7.71-20.56c.15-.41.61-.62,1.03-.47.41.15.62.61.47,1.03l-7.91,21.08c-.12.31-.41.52-.75.52Z"/>
    <path class="cls-3" d="m371.51,80.11c-.09,0-.19-.02-.28-.05-1.11-.42-1.77-1.35-2.36-2.17-.76-1.07-1.28-1.72-2.28-1.72-.44,0-.8-.36-.8-.8s.36-.8.8-.8c1.87,0,2.82,1.32,3.57,2.39.5.7.97,1.36,1.62,1.61.41.15.62.61.47,1.03-.12.32-.42.52-.75.52Z"/>
    <path class="cls-3" d="m337.39,80.28c-.66,0-1.26-.17-1.8-.5-.37-.23-.49-.72-.26-1.1.23-.37.72-.49,1.1-.26.29.18.59.26.96.26,1,0,1.51-.65,2.27-1.72.76-1.06,1.7-2.39,3.57-2.39,1.4,0,2.24.75,2.75,1.32.29.33.27.83-.06,1.12-.33.29-.83.27-1.12-.06-.5-.56-.95-.79-1.56-.79-1,0-1.51.65-2.27,1.72-.76,1.07-1.7,2.39-3.57,2.39Z"/>
    <path class="cls-3" d="m366.53,68.97c-.34-.28-.84-.23-1.12.11l-2.25,2.72c-.15.18-.21.42-.17.66l.16.83c.26,1.36-.09,2.75-.97,3.82l-5.75,6.96s0,0,0,0l-2.06,2.5c-.24.28-.66.32-.94.09-.28-.24-.32-.66-.09-.94l4.73-5.72c.28-.34.23-.84-.11-1.12-.34-.28-.84-.23-1.12.11l-4.73,5.72s0,0,0,0c0,0,0,0,0,0l-1.24,1.5c-.11.14-.27.22-.45.24-.19.02-.35-.04-.49-.15-.14-.11-.22-.27-.24-.45-.02-.18.04-.35.15-.49l3.2-3.88,2.76-3.35c.28-.34.23-.84-.11-1.12-.34-.28-.84-.23-1.12.11l-1.15,1.39s0,0,0,0l-1.62,1.96-3.2,3.88s0,0,0,0l-1.15,1.39c-.11.14-.27.22-.45.24-.18.02-.35-.04-.49-.15-.28-.24-.32-.66-.09-.94l1.47-1.78h0s.32-.38.32-.38l4.18-5.06s0,0,0,0l1.47-1.78c.28-.34.23-.84-.11-1.12-.34-.28-.84-.23-1.12.11l-5.65,6.84-.32.38c-.11.14-.27.22-.45.24-.18.02-.35-.04-.49-.15-.28-.24-.32-.66-.09-.94l5.97-7.22s0,0,0,0l1.64-1.99c.2-.24.24-.57.11-.85-.13-.28-.41-.46-.72-.46h-5.7c-.48,0-.87-.39-.87-.87s.39-.87.87-.87h11.84c.24,0,.46-.11.61-.29l2.25-2.72c.28-.34.23-.84-.11-1.12-.34-.28-.84-.23-1.12.11l-2.01,2.43h-11.47c-1.36,0-2.46,1.1-2.46,2.46s1.1,2.46,2.46,2.46h4.01l-3.55,4.3-2.98,3.61c-.79.96-.66,2.39.3,3.18.18.15.38.25.59.34l-.1.12c-.79.96-.66,2.39.3,3.18.41.34.91.52,1.43.52.07,0,.15,0,.22-.01.49-.05.92-.28,1.28-.61.13.21.28.41.47.58.41.34.91.52,1.43.52.07,0,.15,0,.22-.01.54-.05,1.01-.31,1.38-.69.13.2.27.39.47.55.41.34.91.52,1.43.52.07,0,.15,0,.22-.01.6-.06,1.15-.34,1.53-.81l5.97-7.22s0,0,0,0l1.85-2.23c1.19-1.43,1.66-3.31,1.31-5.13l-.09-.46,2.01-2.43c.28-.34.23-.84-.11-1.12Z"/>
  </g>
  <g>
    <g>
      <g>
        <path class="cls-3" d="m386.4,90.18c-.2,0-.4-.08-.55-.22-.16-.15-.25-.36-.25-.58v-16.74c0-.44.36-.8.8-.8s.8.36.8.8v15.84c2.29-.34,8.65-1.81,11.21-7.79,1.61-3.74,4.34-6.34,7.7-7.31,3.29-.95,6.91-.3,9.94,1.79.36.25.45.75.2,1.11-.25.36-.74.45-1.11.2-2.63-1.81-5.76-2.38-8.59-1.57-2.93.85-5.24,3.06-6.68,6.41-3.54,8.24-13.03,8.83-13.43,8.85-.01,0-.03,0-.04,0Z"/>
        <path class="cls-3" d="m386.4,90.18c-.44,0-.8-.36-.8-.8v-16.74c0-.22.09-.43.25-.58.16-.15.37-.23.59-.22.4.02,9.89.61,13.43,8.85.17.4-.01.87-.42,1.05-.4.17-.87-.01-1.05-.42-2.57-6-8.93-7.46-11.21-7.79v15.85c0,.44-.36.8-.8.8Z"/>
      </g>
      <g>
        <path class="cls-3" d="m424.23,90.18c-.44,0-.8-.36-.8-.8v-15.84c-2.29.34-8.65,1.81-11.21,7.79-1.61,3.74-4.34,6.34-7.7,7.31-3.29.95-6.91.3-9.94-1.79-.36-.25-.45-.75-.2-1.11.25-.36.75-.45,1.11-.2,2.63,1.81,5.76,2.38,8.59,1.57,2.93-.85,5.24-3.06,6.68-6.41,3.54-8.24,13.03-8.83,13.43-8.85.22-.02.43.07.59.22.16.15.25.36.25.58v16.74c0,.44-.36.8-.8.8Z"/>
        <path class="cls-3" d="m424.23,90.18s-.03,0-.04,0c-.4-.02-9.89-.61-13.43-8.85-.17-.4.01-.87.42-1.05.4-.17.87.01,1.05.42,2.57,5.98,8.92,7.45,11.21,7.79v-15.84c0-.44.36-.8.8-.8s.8.36.8.8v16.74c0,.22-.09.43-.25.58-.15.14-.34.22-.55.22Z"/>
      </g>
    </g>
    <g>
      <path class="cls-3" d="m396.93,93.89c-.16,0-.32-.05-.45-.14-.36-.25-.45-.75-.2-1.11l16.76-24.15c.25-.36.75-.45,1.11-.2.36.25.45.75.2,1.11l-16.76,24.15c-.15.22-.4.34-.65.34Z"/>
      <path class="cls-3" d="m413.69,93.89c-.25,0-.5-.12-.65-.34l-16.76-24.15c-.25-.36-.16-.86.2-1.11.36-.25.86-.16,1.11.2l16.76,24.15c.25.36.16.86-.2,1.11-.14.1-.3.14-.45.14Z"/>
    </g>
  </g>
  <g>
    <g>
      <path class="cls-3" d="m436.37,90.18c-.2,0-.4-.08-.55-.22-.16-.15-.25-.36-.25-.58v-16.74c0-.44.36-.8.8-.8s.8.36.8.8v15.84c2.29-.34,8.65-1.81,11.21-7.79,1.61-3.74,4.34-6.34,7.7-7.31,3.29-.95,6.91-.3,9.94,1.79.36.25.45.75.2,1.11-.25.36-.74.45-1.11.2-2.63-1.81-5.76-2.38-8.59-1.57-2.93.85-5.24,3.06-6.68,6.41-3.54,8.24-13.03,8.83-13.43,8.85-.01,0-.03,0-.04,0Z"/>
      <path class="cls-3" d="m436.37,90.18c-.44,0-.8-.36-.8-.8v-16.74c0-.22.09-.43.25-.58.16-.15.37-.23.59-.22.4.02,9.89.61,13.43,8.85.17.4-.01.87-.42,1.05-.4.17-.87-.01-1.05-.42-2.57-6-8.93-7.46-11.21-7.79v15.85c0,.44-.36.8-.8.8Z"/>
    </g>
    <g>
      <path class="cls-3" d="m474.2,90.18c-.44,0-.8-.36-.8-.8v-15.84c-2.29.34-8.65,1.81-11.21,7.79-1.61,3.74-4.34,6.34-7.7,7.31-3.29.95-6.91.3-9.94-1.79-.36-.25-.45-.75-.2-1.11.25-.36.75-.45,1.11-.2,2.63,1.81,5.76,2.38,8.59,1.57,2.93-.85,5.24-3.06,6.68-6.41,3.54-8.24,13.03-8.83,13.43-8.85.22-.02.43.07.59.22.16.15.25.36.25.58v16.74c0,.44-.36.8-.8.8Z"/>
      <path class="cls-3" d="m474.2,90.18s-.03,0-.04,0c-.4-.02-9.89-.61-13.43-8.85-.17-.4.01-.87.42-1.05.4-.17.87.01,1.05.42,2.57,5.98,8.92,7.45,11.21,7.79v-15.84c0-.44.36-.8.8-.8s.8.36.8.8v16.74c0,.22-.09.43-.25.58-.15.14-.34.22-.55.22Z"/>
    </g>
  </g>
  <g>
    <path class="cls-3" d="m140.96,376.82h-26.7c-2.41,0-4.37-1.96-4.37-4.37v-26.7c0-2.41,1.96-4.37,4.37-4.37h26.7c2.41,0,4.37,1.96,4.37,4.37v26.7c0,2.41-1.96,4.37-4.37,4.37Zm-26.7-33.63c-1.41,0-2.56,1.15-2.56,2.56v26.7c0,1.41,1.15,2.56,2.56,2.56h26.7c1.41,0,2.56-1.15,2.56-2.56v-26.7c0-1.41-1.15-2.56-2.56-2.56h-26.7Z"/>
    <path class="cls-3" d="m127.62,376.82c-9.77,0-17.72-7.95-17.72-17.72s7.95-17.72,17.72-17.72,17.72,7.95,17.72,17.72-7.95,17.72-17.72,17.72Zm0-33.63c-8.77,0-15.91,7.14-15.91,15.91s7.14,15.91,15.91,15.91,15.91-7.14,15.91-15.91-7.14-15.91-15.91-15.91Z"/>
  </g>
  <g>
    <path class="cls-3" d="m194.32,376.82h-26.7c-2.41,0-4.37-1.96-4.37-4.37v-26.7c0-2.41,1.96-4.37,4.37-4.37h26.7c2.41,0,4.37,1.96,4.37,4.37v26.7c0,2.41-1.96,4.37-4.37,4.37Zm-26.7-33.63c-1.41,0-2.56,1.15-2.56,2.56v26.7c0,1.41,1.15,2.56,2.56,2.56h26.7c1.41,0,2.56-1.15,2.56-2.56v-26.7c0-1.41-1.15-2.56-2.56-2.56h-26.7Z"/>
    <path class="cls-3" d="m180.97,376.82c-9.77,0-17.72-7.95-17.72-17.72s7.95-17.72,17.72-17.72,17.72,7.95,17.72,17.72-7.95,17.72-17.72,17.72Zm0-33.63c-8.77,0-15.91,7.14-15.91,15.91s7.14,15.91,15.91,15.91,15.91-7.14,15.91-15.91-7.14-15.91-15.91-15.91Z"/>
    <path class="cls-3" d="m180.97,363.62c-2.49,0-4.52-2.03-4.52-4.52s2.03-4.52,4.52-4.52,4.52,2.03,4.52,4.52-2.03,4.52-4.52,4.52Zm0-7.24c-1.5,0-2.72,1.22-2.72,2.72s1.22,2.72,2.72,2.72,2.72-1.22,2.72-2.72-1.22-2.72-2.72-2.72Z"/>
  </g>
  <g>
    <path class="cls-3" d="m247.68,376.82h-26.7c-2.41,0-4.37-1.96-4.37-4.37v-26.7c0-2.41,1.96-4.37,4.37-4.37h26.7c2.41,0,4.37,1.96,4.37,4.37v26.7c0,2.41-1.96,4.37-4.37,4.37Zm-26.7-33.63c-1.41,0-2.56,1.15-2.56,2.56v26.7c0,1.41,1.15,2.56,2.56,2.56h26.7c1.41,0,2.56-1.15,2.56-2.56v-26.7c0-1.41-1.15-2.56-2.56-2.56h-26.7Z"/>
    <path class="cls-3" d="m234.33,376.82c-9.77,0-17.72-7.95-17.72-17.72s7.95-17.72,17.72-17.72,17.72,7.95,17.72,17.72-7.95,17.72-17.72,17.72Zm0-33.63c-8.77,0-15.91,7.14-15.91,15.91s7.14,15.91,15.91,15.91,15.91-7.14,15.91-15.91-7.14-15.91-15.91-15.91Z"/>
    <path class="cls-3" d="m228.88,363.62c-2.49,0-4.52-2.03-4.52-4.52s2.03-4.52,4.52-4.52,4.52,2.03,4.52,4.52-2.03,4.52-4.52,4.52Zm0-7.24c-1.5,0-2.72,1.22-2.72,2.72s1.22,2.72,2.72,2.72,2.72-1.22,2.72-2.72-1.22-2.72-2.72-2.72Z"/>
    <path class="cls-3" d="m240.12,363.62c-2.49,0-4.52-2.03-4.52-4.52s2.03-4.52,4.52-4.52,4.52,2.03,4.52,4.52-2.03,4.52-4.52,4.52Zm0-7.24c-1.5,0-2.72,1.22-2.72,2.72s1.22,2.72,2.72,2.72,2.72-1.22,2.72-2.72-1.22-2.72-2.72-2.72Z"/>
  </g>
  <g>
    <path class="cls-3" d="m301.03,376.82h-26.7c-2.41,0-4.37-1.96-4.37-4.37v-26.7c0-2.41,1.96-4.37,4.37-4.37h26.7c2.41,0,4.37,1.96,4.37,4.37v26.7c0,2.41-1.96,4.37-4.37,4.37Zm-26.7-33.63c-1.41,0-2.56,1.15-2.56,2.56v26.7c0,1.41,1.15,2.56,2.56,2.56h26.7c1.41,0,2.56-1.15,2.56-2.56v-26.7c0-1.41-1.15-2.56-2.56-2.56h-26.7Z"/>
    <path class="cls-3" d="m287.68,376.82c-9.77,0-17.72-7.95-17.72-17.72s7.95-17.72,17.72-17.72,17.72,7.95,17.72,17.72-7.95,17.72-17.72,17.72Zm0-33.63c-8.77,0-15.91,7.14-15.91,15.91s7.14,15.91,15.91,15.91,15.91-7.14,15.91-15.91-7.14-15.91-15.91-15.91Z"/>
    <g>
      <path class="cls-3" d="m287.68,363.62c-2.49,0-4.52-2.03-4.52-4.52s2.03-4.52,4.52-4.52,4.52,2.03,4.52,4.52-2.03,4.52-4.52,4.52Zm0-7.24c-1.5,0-2.72,1.22-2.72,2.72s1.22,2.72,2.72,2.72,2.72-1.22,2.72-2.72-1.22-2.72-2.72-2.72Z"/>
      <path class="cls-3" d="m297.71,363.62c-2.49,0-4.52-2.03-4.52-4.52s2.03-4.52,4.52-4.52,4.52,2.03,4.52,4.52-2.03,4.52-4.52,4.52Zm0-7.24c-1.5,0-2.72,1.22-2.72,2.72s1.22,2.72,2.72,2.72,2.71-1.22,2.71-2.72-1.22-2.72-2.71-2.72Z"/>
      <path class="cls-3" d="m277.66,363.62c-2.49,0-4.52-2.03-4.52-4.52s2.03-4.52,4.52-4.52,4.52,2.03,4.52,4.52-2.03,4.52-4.52,4.52Zm0-7.24c-1.5,0-2.72,1.22-2.72,2.72s1.22,2.72,2.72,2.72,2.72-1.22,2.72-2.72-1.22-2.72-2.72-2.72Z"/>
    </g>
  </g>
  <g>
    <path class="cls-3" d="m354.39,376.82h-26.7c-2.41,0-4.37-1.96-4.37-4.37v-26.7c0-2.41,1.96-4.37,4.37-4.37h26.7c2.41,0,4.37,1.96,4.37,4.37v26.7c0,2.41-1.96,4.37-4.37,4.37Zm-26.7-33.63c-1.41,0-2.56,1.15-2.56,2.56v26.7c0,1.41,1.15,2.56,2.56,2.56h26.7c1.41,0,2.56-1.15,2.56-2.56v-26.7c0-1.41-1.15-2.56-2.56-2.56h-26.7Z"/>
    <circle class="cls-3" cx="341.04" cy="359.1" r="16.82"/>
  </g>
  <g>
    <path class="cls-3" d="m407.74,376.82h-26.7c-2.41,0-4.37-1.96-4.37-4.37v-26.7c0-2.41,1.96-4.37,4.37-4.37h26.7c2.41,0,4.37,1.96,4.37,4.37v26.7c0,2.41-1.96,4.37-4.37,4.37Zm-26.7-33.63c-1.41,0-2.56,1.15-2.56,2.56v26.7c0,1.41,1.15,2.56,2.56,2.56h26.7c1.41,0,2.56-1.15,2.56-2.56v-26.7c0-1.41-1.15-2.56-2.56-2.56h-26.7Z"/>
    <path class="cls-3" d="m394.39,376.82c-9.77,0-17.72-7.95-17.72-17.72s7.95-17.72,17.72-17.72,17.72,7.95,17.72,17.72-7.95,17.72-17.72,17.72Zm0-33.63c-8.77,0-15.91,7.14-15.91,15.91s7.14,15.91,15.91,15.91,15.91-7.14,15.91-15.91-7.14-15.91-15.91-15.91Z"/>
    <path class="cls-3" d="m411.21,381.37h-33.63c-.5,0-.9-.4-.9-.9s.4-.9.9-.9h33.63c.5,0,.9.4.9.9s-.4.9-.9.9Z"/>
  </g>
  <g>
    <path class="cls-3" d="m461.1,376.82h-26.7c-2.41,0-4.37-1.96-4.37-4.37v-26.7c0-2.41,1.96-4.37,4.37-4.37h26.7c2.41,0,4.37,1.96,4.37,4.37v26.7c0,2.41-1.96,4.37-4.37,4.37Zm-26.7-33.63c-1.41,0-2.56,1.15-2.56,2.56v26.7c0,1.41,1.15,2.56,2.56,2.56h26.7c1.41,0,2.56-1.15,2.56-2.56v-26.7c0-1.41-1.15-2.56-2.56-2.56h-26.7Z"/>
    <path class="cls-3" d="m447.75,376.82c-9.77,0-17.72-7.95-17.72-17.72s7.95-17.72,17.72-17.72,17.72,7.95,17.72,17.72-7.95,17.72-17.72,17.72Zm0-33.63c-8.77,0-15.91,7.14-15.91,15.91s7.14,15.91,15.91,15.91,15.91-7.14,15.91-15.91-7.14-15.91-15.91-15.91Z"/>
    <path class="cls-3" d="m464.57,381.37h-33.63c-.5,0-.9-.4-.9-.9s.4-.9.9-.9h33.63c.5,0,.9.4.9.9s-.4.9-.9.9Z"/>
    <path class="cls-3" d="m464.57,385.7h-33.63c-.5,0-.9-.4-.9-.9s.4-.9.9-.9h33.63c.5,0,.9.4.9.9s-.4.9-.9.9Z"/>
  </g>
  <g>
    <path class="cls-3" d="m514.15,376.82h-26.7c-2.41,0-4.37-1.96-4.37-4.37v-26.7c0-2.41,1.96-4.37,4.37-4.37h26.7c2.41,0,4.37,1.96,4.37,4.37v26.7c0,2.41-1.96,4.37-4.37,4.37Zm-26.7-33.63c-1.41,0-2.56,1.15-2.56,2.56v26.7c0,1.41,1.15,2.56,2.56,2.56h26.7c1.41,0,2.56-1.15,2.56-2.56v-26.7c0-1.41-1.15-2.56-2.56-2.56h-26.7Z"/>
    <path class="cls-3" d="m500.8,376.82c-9.77,0-17.72-7.95-17.72-17.72s7.95-17.72,17.72-17.72,17.72,7.95,17.72,17.72-7.95,17.72-17.72,17.72Zm0-33.63c-8.77,0-15.91,7.14-15.91,15.91s7.14,15.91,15.91,15.91,15.91-7.14,15.91-15.91-7.14-15.91-15.91-15.91Z"/>
    <g>
      <path class="cls-3" d="m523.1,369.5c-.12,0-.24-.02-.35-.07l-44.59-19c-.46-.2-.67-.73-.48-1.18.2-.46.73-.67,1.18-.48l44.59,19c.46.2.67.73.48,1.18-.15.34-.48.55-.83.55Z"/>
      <path class="cls-3" d="m478.51,369.5c-.35,0-.68-.21-.83-.55-.19-.46.02-.99.48-1.18l44.59-19c.46-.19.99.02,1.18.48.19.46-.02.99-.48,1.18l-44.59,19c-.11.05-.24.07-.35.07Z"/>
    </g>
  </g>
  <g>
    <path class="cls-3" d="m193.88,301.38h-26.66c-2.4,0-4.36-1.96-4.36-4.36v-26.66c0-2.41,1.96-4.36,4.36-4.36h26.66c2.4,0,4.36,1.96,4.36,4.36v26.66c0,2.41-1.96,4.36-4.36,4.36Zm-26.66-33.58c-1.41,0-2.56,1.15-2.56,2.56v26.66c0,1.41,1.15,2.56,2.56,2.56h26.66c1.41,0,2.56-1.15,2.56-2.56v-26.66c0-1.41-1.15-2.56-2.56-2.56h-26.66Z"/>
    <g>
      <path class="cls-3" d="m202.81,294.08c-.12,0-.24-.02-.35-.07l-44.52-18.96c-.46-.2-.67-.72-.48-1.18.2-.46.73-.67,1.18-.48l44.52,18.96c.46.2.67.72.48,1.18-.15.34-.48.55-.83.55Z"/>
      <path class="cls-3" d="m158.29,294.08c-.35,0-.68-.21-.83-.55-.19-.46.02-.99.48-1.18l44.52-18.96c.45-.19.99.02,1.18.48.19.46-.02.99-.48,1.18l-44.52,18.96c-.11.05-.24.07-.35.07Z"/>
    </g>
  </g>
  <path class="cls-3" d="m140.91,301.38h-26.65c-2.41,0-4.36-1.96-4.36-4.36v-26.65c0-2.41,1.96-4.36,4.36-4.36h26.65c2.41,0,4.36,1.96,4.36,4.36v26.65c0,2.41-1.96,4.36-4.36,4.36Zm-26.65-33.58c-1.41,0-2.56,1.15-2.56,2.56v26.65c0,1.41,1.15,2.56,2.56,2.56h26.65c1.41,0,2.56-1.15,2.56-2.56v-26.65c0-1.41-1.15-2.56-2.56-2.56h-26.65Z"/>
  <g>
    <path class="cls-3" d="m299.85,301.38h-26.65c-2.4,0-4.36-1.96-4.36-4.36v-26.66c0-2.41,1.96-4.36,4.36-4.36h26.65c2.4,0,4.36,1.96,4.36,4.36v26.66c0,2.41-1.96,4.36-4.36,4.36Zm-26.65-33.58c-1.41,0-2.56,1.15-2.56,2.56v26.66c0,1.41,1.15,2.56,2.56,2.56h26.65c1.41,0,2.56-1.15,2.56-2.56v-26.66c0-1.41-1.15-2.56-2.56-2.56h-26.65Z"/>
    <path class="cls-3" d="m294.91,284.6h-16.79c-.5,0-.9-.4-.9-.9s.4-.9.9-.9h16.79c.5,0,.9.4.9.9s-.4.9-.9.9Z"/>
  </g>
  <g>
    <path class="cls-3" d="m352.63,301.38h-26.43c-2.4,0-4.36-1.96-4.36-4.36v-26.66c0-2.41,1.96-4.36,4.36-4.36h26.43c2.4,0,4.36,1.96,4.36,4.36v26.66c0,2.41-1.96,4.36-4.36,4.36Zm-26.43-33.58c-1.41,0-2.56,1.15-2.56,2.56v26.66c0,1.41,1.15,2.56,2.56,2.56h26.43c1.41,0,2.56-1.15,2.56-2.56v-26.66c0-1.41-1.15-2.56-2.56-2.56h-26.43Z"/>
    <g>
      <path class="cls-3" d="m339.41,292.99c-.5,0-.9-.4-.9-.9v-16.79c0-.5.4-.9.9-.9s.9.4.9.9v16.79c0,.5-.4.9-.9.9Z"/>
      <path class="cls-3" d="m331.55,292.99c-.5,0-.9-.4-.9-.9v-16.79c0-.5.4-.9.9-.9s.9.4.9.9v16.79c0,.5-.4.9-.9.9Z"/>
      <path class="cls-3" d="m347.27,292.99c-.5,0-.9-.4-.9-.9v-16.79c0-.5.4-.9.9-.9s.9.4.9.9v16.79c0,.5-.4.9-.9.9Z"/>
    </g>
  </g>
  <g>
    <path class="cls-3" d="m511.64,301.38h-26.66c-2.4,0-4.36-1.96-4.36-4.36v-26.66c0-2.41,1.96-4.36,4.36-4.36h26.66c2.4,0,4.36,1.96,4.36,4.36v26.66c0,2.41-1.96,4.36-4.36,4.36Zm-26.66-33.58c-1.41,0-2.56,1.15-2.56,2.56v26.66c0,1.41,1.15,2.56,2.56,2.56h26.66c1.41,0,2.56-1.15,2.56-2.56v-26.66c0-1.41-1.15-2.56-2.56-2.56h-26.66Z"/>
    <path class="cls-3" d="m481.52,277.23c-.23,0-.46-.09-.64-.26-.35-.35-.35-.92,0-1.27l9.42-9.42c.35-.35.92-.35,1.27,0s.35.92,0,1.27l-9.42,9.42c-.18.18-.41.26-.64.26Z"/>
    <path class="cls-3" d="m481.52,284.6c-.23,0-.46-.09-.64-.26-.35-.35-.35-.92,0-1.27l16.79-16.79c.35-.35.92-.35,1.27,0s.35.92,0,1.27l-16.79,16.79c-.18.18-.41.26-.64.26Z"/>
    <path class="cls-3" d="m506.7,284.6h-16.79c-.5,0-.9-.4-.9-.9s.4-.9.9-.9h16.79c.5,0,.9.4.9.9s-.4.9-.9.9Z"/>
  </g>
  <g>
    <path class="cls-3" d="m405.63,301.38h-26.66c-2.4,0-4.36-1.96-4.36-4.36v-26.66c0-2.41,1.96-4.36,4.36-4.36h26.66c2.4,0,4.36,1.96,4.36,4.36v26.66c0,2.41-1.96,4.36-4.36,4.36Zm-26.66-33.58c-1.41,0-2.56,1.15-2.56,2.56v26.66c0,1.41,1.15,2.56,2.56,2.56h26.66c1.41,0,2.56-1.15,2.56-2.56v-26.66c0-1.41-1.15-2.56-2.56-2.56h-26.66Z"/>
    <path class="cls-3" d="m375.51,277.23c-.23,0-.46-.09-.64-.26-.35-.35-.35-.92,0-1.27l9.42-9.42c.35-.35.92-.35,1.27,0,.35.35.35.92,0,1.27l-9.42,9.42c-.18.18-.41.26-.64.26Z"/>
    <path class="cls-3" d="m375.51,284.6c-.23,0-.46-.09-.64-.26-.35-.35-.35-.92,0-1.27l16.79-16.79c.35-.35.92-.35,1.27,0,.35.35.35.92,0,1.27l-16.79,16.79c-.18.18-.41.26-.64.26Z"/>
  </g>
  <g>
    <path class="cls-3" d="m458.63,301.38h-26.65c-2.4,0-4.36-1.96-4.36-4.36v-26.66c0-2.41,1.96-4.36,4.36-4.36h26.65c2.4,0,4.36,1.96,4.36,4.36v26.66c0,2.41-1.96,4.36-4.36,4.36Zm-26.65-33.58c-1.41,0-2.56,1.15-2.56,2.56v26.66c0,1.41,1.15,2.56,2.56,2.56h26.65c1.41,0,2.56-1.15,2.56-2.56v-26.66c0-1.41-1.15-2.56-2.56-2.56h-26.65Z"/>
    <path class="cls-3" d="m428.52,277.23c-.23,0-.46-.09-.64-.26-.35-.35-.35-.92,0-1.27l9.42-9.42c.35-.35.92-.35,1.27,0,.35.35.35.92,0,1.27l-9.42,9.42c-.18.18-.41.26-.64.26Z"/>
    <path class="cls-3" d="m428.52,284.6c-.23,0-.46-.09-.64-.26-.35-.35-.35-.92,0-1.27l16.79-16.79c.35-.35.92-.35,1.27,0s.35.92,0,1.27l-16.79,16.79c-.18.18-.41.26-.64.26Z"/>
    <path class="cls-3" d="m445.3,276.49c-6.46,0-12.51-2.86-16.6-7.85-.32-.38-.26-.95.13-1.27.38-.32.95-.26,1.27.13,3.75,4.57,9.3,7.2,15.21,7.2s11.46-2.62,15.21-7.2c.31-.39.88-.44,1.27-.13.39.32.44.88.13,1.27-4.09,4.99-10.15,7.85-16.6,7.85Z"/>
  </g>
  <g>
    <path class="cls-3" d="m564.64,301.38h-26.66c-2.4,0-4.36-1.96-4.36-4.36v-26.66c0-2.41,1.96-4.36,4.36-4.36h26.66c2.4,0,4.36,1.96,4.36,4.36v26.66c0,2.41-1.96,4.36-4.36,4.36Zm-26.66-33.58c-1.41,0-2.56,1.15-2.56,2.56v26.66c0,1.41,1.15,2.56,2.56,2.56h26.66c1.41,0,2.56-1.15,2.56-2.56v-26.66c0-1.41-1.15-2.56-2.56-2.56h-26.66Z"/>
    <path class="cls-3" d="m534.52,277.23c-.23,0-.46-.09-.64-.26-.35-.35-.35-.92,0-1.27l9.42-9.42c.35-.35.92-.35,1.27,0s.35.92,0,1.27l-9.42,9.42c-.18.18-.41.26-.64.26Z"/>
    <path class="cls-3" d="m534.52,284.6c-.23,0-.46-.09-.64-.26-.35-.35-.35-.92,0-1.27l16.79-16.79c.35-.35.92-.35,1.27,0s.35.92,0,1.27l-16.79,16.79c-.18.18-.41.26-.64.26Z"/>
    <g>
      <path class="cls-3" d="m551.31,292.99c-.5,0-.9-.4-.9-.9v-16.79c0-.5.4-.9.9-.9s.9.4.9.9v16.79c0,.5-.4.9-.9.9Z"/>
      <path class="cls-3" d="m543.4,292.99c-.5,0-.9-.4-.9-.9v-16.79c0-.5.4-.9.9-.9s.9.4.9.9v16.79c0,.5-.4.9-.9.9Z"/>
      <path class="cls-3" d="m559.22,292.99c-.5,0-.9-.4-.9-.9v-16.79c0-.5.4-.9.9-.9s.9.4.9.9v16.79c0,.5-.4.9-.9.9Z"/>
    </g>
  </g>
  <g>
    <path class="cls-3" d="m246.84,301.38h-26.65c-2.41,0-4.37-1.96-4.37-4.37v-26.65c0-2.41,1.96-4.36,4.37-4.36h26.65c2.41,0,4.36,1.96,4.36,4.36v26.65c0,2.41-1.96,4.37-4.36,4.37Zm-26.65-33.58c-1.41,0-2.57,1.15-2.57,2.56v26.65c0,1.41,1.15,2.56,2.57,2.56h26.65c1.41,0,2.56-1.15,2.56-2.56v-26.65c0-1.41-1.15-2.56-2.56-2.56h-26.65Z"/>
    <path class="cls-3" d="m233.52,276.49c-6.46,0-12.51-2.86-16.6-7.85-.32-.38-.26-.95.12-1.27.38-.31.95-.26,1.27.13,3.75,4.57,9.3,7.2,15.21,7.2s11.46-2.62,15.21-7.2c.31-.39.88-.44,1.27-.13.39.32.44.88.12,1.27-4.09,4.99-10.15,7.85-16.6,7.85Z"/>
  </g>
  <path class="cls-3" d="m149.39,460.67h-38.55c-.34,0-.65-.18-.82-.47-.17-.29-.17-.65,0-.94l19.27-33.38c.34-.58,1.3-.58,1.63,0l19.27,33.38c.17.29.17.65,0,.94-.17.29-.48.47-.82.47Zm-36.91-1.89h35.28l-17.64-30.56-17.64,30.56Z"/>
  <g>
    <path class="cls-3" d="m424.06,460.67h-38.55c-.34,0-.65-.18-.82-.47-.17-.29-.17-.65,0-.94l19.27-33.38c.34-.58,1.3-.58,1.63,0l19.27,33.38c.17.29.17.65,0,.94-.17.29-.48.47-.82.47Zm-36.91-1.89h35.28l-17.64-30.56-17.64,30.56Z"/>
    <path class="cls-3" d="m394.94,460.67c-.16,0-.32-.04-.47-.13-.45-.26-.61-.84-.35-1.29l14.56-25.22c.26-.45.84-.6,1.29-.34.45.26.61.84.35,1.29l-14.56,25.22c-.17.3-.49.47-.82.47Z"/>
    <path class="cls-3" d="m406.55,460.67c-.16,0-.32-.04-.47-.13-.45-.26-.61-.84-.35-1.29l8.75-15.16c.26-.45.84-.6,1.29-.34.45.26.61.84.35,1.29l-8.75,15.16c-.17.3-.49.47-.82.47Z"/>
  </g>
  <g>
    <path class="cls-3" d="m206.59,460.67h-38.55c-.34,0-.65-.18-.82-.47-.17-.29-.17-.65,0-.94l19.27-33.38c.34-.58,1.3-.58,1.63,0l19.27,33.38c.17.29.17.65,0,.94-.17.29-.48.47-.82.47Zm-36.91-1.89h35.28l-17.64-30.56-17.64,30.56Z"/>
    <path class="cls-3" d="m210.61,458.43c-.12,0-.25-.02-.37-.07l-46.59-19.85c-.48-.21-.7-.76-.5-1.24.2-.48.76-.7,1.24-.5l46.59,19.85c.48.21.7.76.5,1.24-.15.36-.5.57-.87.57Z"/>
    <path class="cls-3" d="m164.02,458.43c-.37,0-.71-.21-.87-.57-.2-.48.02-1.03.5-1.24l46.59-19.85c.48-.2,1.03.02,1.24.5.2.48-.02,1.03-.5,1.24l-46.59,19.85c-.12.05-.25.07-.37.07Z"/>
  </g>
  <path class="cls-3" d="m262.83,459.26l-19.27-33.38c-.33-.58-1.3-.58-1.63,0l-19.27,33.38c-.17.29-.17.65,0,.94.17.29.48.47.82.47h38.55c.34,0,.65-.18.82-.47.17-.29.17-.65,0-.94Z"/>
  <g>
    <path class="cls-3" d="m316.03,460.67h-38.55c-.34,0-.65-.18-.82-.47-.17-.29-.17-.65,0-.94l19.27-33.38c.34-.58,1.3-.58,1.63,0l19.27,33.38c.17.29.17.65,0,.94-.17.29-.48.47-.82.47Zm-36.91-1.89h35.28l-17.64-30.56-17.64,30.56Z"/>
    <g>
      <path class="cls-3" d="m298.01,448.61h-3.15c0-1.18-.63-1.94-1.81-1.94-1.4,0-1.94.97-1.94,2.37v.95c0,1.4.57,2.37,1.91,2.37s1.94-.7,1.94-1.88h3.04c0,2.82-1.8,4.34-4.94,4.34-3.51,0-5.33-1.81-5.33-5.31s1.82-5.31,5.33-5.31c2.98,0,4.94,1.54,4.94,4.4Z"/>
      <polygon class="cls-3" points="299.78 444.39 303.08 444.39 303.08 452.03 308.35 452.03 308.35 454.65 299.78 454.65 299.78 444.39"/>
    </g>
  </g>
  <g>
    <path class="cls-3" d="m370.04,460.67h-38.55c-.34,0-.65-.18-.82-.47-.17-.29-.17-.65,0-.94l19.27-33.38c.34-.58,1.3-.58,1.63,0l19.27,33.38c.17.29.17.65,0,.94-.17.29-.48.47-.82.47Zm-36.92-1.89h35.28l-17.64-30.56-17.64,30.56Z"/>
    <g>
      <path class="cls-3" d="m352.03,448.61h-3.15c0-1.18-.63-1.94-1.81-1.94-1.4,0-1.94.97-1.94,2.37v.95c0,1.4.57,2.37,1.91,2.37s1.94-.7,1.94-1.88h3.04c0,2.82-1.8,4.34-4.94,4.34-3.51,0-5.33-1.81-5.33-5.31s1.82-5.31,5.33-5.31c2.98,0,4.94,1.54,4.94,4.4Z"/>
      <polygon class="cls-3" points="353.8 444.39 357.09 444.39 357.09 452.03 362.36 452.03 362.36 454.65 353.8 454.65 353.8 444.39"/>
    </g>
    <g>
      <path class="cls-3" d="m366.46,445.99c-.13,0-.27-.03-.4-.09l-28.48-13.36c-.47-.22-.67-.78-.45-1.25.22-.47.79-.67,1.25-.45l28.48,13.36c.47.22.67.78.45,1.25-.16.34-.5.54-.85.54Z"/>
      <path class="cls-3" d="m335.08,445.99c-.35,0-.69-.2-.85-.54-.22-.47-.02-1.03.45-1.25l28.48-13.36c.47-.22,1.03-.02,1.25.45.22.47.02,1.03-.45,1.25l-28.48,13.36c-.13.06-.27.09-.4.09Z"/>
    </g>
  </g>
  <g>
    <path class="cls-3" d="m136.6,544.59c-4.53,0-8.79-1.76-11.99-4.97-6.61-6.61-6.61-17.37,0-23.98,3.2-3.2,7.46-4.97,11.99-4.97s8.79,1.76,11.99,4.97c6.61,6.61,6.61,17.37,0,23.98-3.2,3.2-7.46,4.97-11.99,4.97Zm0-32.19c-4.07,0-7.89,1.58-10.77,4.46-5.94,5.94-5.94,15.6,0,21.54,2.88,2.88,6.7,4.46,10.77,4.46s7.89-1.58,10.77-4.46c5.94-5.94,5.94-15.6,0-21.54-2.88-2.88-6.7-4.46-10.77-4.46Z"/>
    <path class="cls-3" d="m133.52,554.34c-.22,0-.44-.08-.61-.25l-22.76-22.76c-.34-.34-.34-.88,0-1.22.34-.34.88-.34,1.22,0l22.76,22.76c.34.34.34.88,0,1.22-.17.17-.39.25-.61.25Z"/>
  </g>
  <g>
    <path class="cls-3" d="m191.41,544.61c-4.34,0-8.68-1.65-11.99-4.96h0c-6.61-6.61-6.61-17.37,0-23.98,6.61-6.61,17.37-6.61,23.98,0,6.61,6.61,6.61,17.37,0,23.98-3.31,3.31-7.65,4.96-11.99,4.96Zm-10.77-6.18c5.94,5.94,15.6,5.94,21.54,0,5.94-5.94,5.94-15.6,0-21.54-5.94-5.94-15.6-5.94-21.54,0-5.94,5.94-5.94,15.6,0,21.54h0Z"/>
    <path class="cls-3" d="m165.57,525.45c-.22,0-.44-.08-.61-.25-.34-.34-.34-.88,0-1.22l22.76-22.76c.34-.34.88-.34,1.22,0,.34.34.34.88,0,1.22l-22.76,22.76c-.17.17-.39.25-.61.25Z"/>
  </g>
  <g>
    <path class="cls-3" d="m248.24,544.57c-4.34,0-8.68-1.65-11.99-4.96-6.61-6.61-6.61-17.37,0-23.98,6.61-6.61,17.37-6.61,23.98,0h0c6.61,6.61,6.61,17.37,0,23.98-3.31,3.31-7.65,4.96-11.99,4.96Zm0-32.17c-3.9,0-7.8,1.48-10.77,4.45-5.94,5.94-5.94,15.6,0,21.54,5.94,5.94,15.6,5.94,21.54,0,5.94-5.94,5.94-15.6,0-21.54-2.97-2.97-6.87-4.45-10.77-4.45Z"/>
    <path class="cls-3" d="m251.32,554.33c-.22,0-.44-.08-.61-.25-.34-.34-.34-.88,0-1.22l22.76-22.76c.34-.34.88-.34,1.22,0,.34.34.34.88,0,1.22l-22.76,22.76c-.17.17-.39.25-.61.25Z"/>
  </g>
  <g>
    <path class="cls-3" d="m302.17,544.59c-4.53,0-8.79-1.76-11.99-4.97-6.61-6.61-6.61-17.37,0-23.98,3.2-3.2,7.46-4.97,11.99-4.97s8.79,1.76,11.99,4.97c6.61,6.61,6.61,17.37,0,23.98-3.2,3.2-7.46,4.97-11.99,4.97Zm0-32.19c-4.07,0-7.89,1.58-10.77,4.46-5.94,5.94-5.94,15.6,0,21.54,2.88,2.88,6.7,4.46,10.77,4.46s7.89-1.58,10.77-4.46c5.94-5.94,5.94-15.6,0-21.54-2.88-2.88-6.7-4.46-10.77-4.46Z"/>
    <path class="cls-3" d="m328.01,525.42c-.22,0-.44-.08-.61-.25l-22.76-22.76c-.34-.34-.34-.88,0-1.22.34-.34.88-.34,1.22,0l22.76,22.76c.34.34.34.88,0,1.22-.17.17-.39.25-.61.25Z"/>
  </g>
  <path class="cls-3" d="m430.37,535.93l-5.78-2.46c.67-1.82,1.06-3.78,1.06-5.83s-.39-4.01-1.06-5.83l5.78-2.46c.44-.19.64-.69.46-1.13-.19-.44-.7-.64-1.13-.46l-5.78,2.46c-2.76-5.63-8.54-9.53-15.22-9.53s-12.46,3.9-15.22,9.53l-5.78-2.46c-.44-.19-.95.02-1.13.46-.19.44.02.95.46,1.13l5.78,2.46c-.67,1.82-1.06,3.78-1.06,5.83s.38,4.01,1.06,5.83l-5.78,2.46c-.44.19-.64.69-.46,1.13.14.33.46.52.79.52.11,0,.23-.02.34-.07l5.78-2.46c2.76,5.63,8.54,9.53,15.22,9.53s12.46-3.9,15.22-9.53l5.78,2.46c.11.05.23.07.34.07.34,0,.65-.2.8-.52.19-.44-.02-.95-.46-1.13Zm-8.35-3.56c.44.19.64.69.46,1.13-.14.33-.46.52-.8.52-.11,0-.23-.02-.34-.07l-12.65-5.39-12.65,5.39c-.11.05-.23.07-.34.07-.34,0-.65-.2-.79-.52-.19-.44.02-.95.46-1.13l11.12-4.74-11.12-4.74c-.44-.19-.64-.69-.46-1.13.19-.44.7-.64,1.13-.46l12.65,5.39,12.65-5.39c.43-.18.95.02,1.13.46.19.44-.02.95-.46,1.13l-11.12,4.74,11.12,4.74Z"/>
  <g>
    <path class="cls-3" d="m355.52,544.59c-9.35,0-16.96-7.61-16.96-16.96s7.61-16.96,16.96-16.96,16.96,7.61,16.96,16.96-7.61,16.96-16.96,16.96Zm0-32.19c-8.4,0-15.23,6.83-15.23,15.23s6.83,15.23,15.23,15.23,15.23-6.83,15.23-15.23-6.83-15.23-15.23-15.23Z"/>
    <polygon class="cls-3" points="356.76 532.73 355.54 527.01 355.49 527.01 354.27 532.73 350.95 532.73 348.75 523.33 351.9 523.33 352.98 528.66 353.03 528.66 354.1 523.33 357.08 523.33 358.21 528.66 358.26 528.66 359.28 523.33 362.28 523.33 360.08 532.73 356.76 532.73"/>
  </g>
  <g>
    <path class="cls-3" d="m461.87,544.59c-9.35,0-16.96-7.61-16.96-16.96s7.61-16.96,16.96-16.96,16.96,7.61,16.96,16.96-7.61,16.96-16.96,16.96Zm0-32.19c-8.4,0-15.23,6.83-15.23,15.23s6.83,15.23,15.23,15.23,15.23-6.83,15.23-15.23-6.83-15.23-15.23-15.23Z"/>
    <path class="cls-3" d="m477.96,548.95h-32.19c-.48,0-.86-.39-.86-.86s.39-.86.86-.86h32.19c.48,0,.86.39.86.86s-.39.86-.86.86Z"/>
    <polygon class="cls-3" points="463.11 532.73 461.9 527.01 461.84 527.01 460.63 532.73 457.3 532.73 455.1 523.33 458.25 523.33 459.33 528.66 459.38 528.66 460.45 523.33 463.43 523.33 464.56 528.66 464.62 528.66 465.63 523.33 468.63 523.33 466.43 532.73 463.11 532.73"/>
  </g>
  <g>
    <path class="cls-3" d="m515.04,544.59c-9.35,0-16.96-7.61-16.96-16.96s7.61-16.96,16.96-16.96,16.96,7.61,16.96,16.96-7.61,16.96-16.96,16.96Zm0-32.19c-8.4,0-15.23,6.83-15.23,15.23s6.83,15.23,15.23,15.23,15.23-6.83,15.23-15.23-6.83-15.23-15.23-15.23Z"/>
    <path class="cls-3" d="m531.14,548.95h-32.19c-.48,0-.86-.39-.86-.86s.39-.86.86-.86h32.19c.48,0,.86.39.86.86s-.39.86-.86.86Z"/>
    <path class="cls-3" d="m531.14,553.48h-32.19c-.48,0-.86-.39-.86-.86s.39-.86.86-.86h32.19c.48,0,.86.39.86.86s-.39.86-.86.86Z"/>
    <polygon class="cls-3" points="516.29 532.73 515.07 527.01 515.02 527.01 513.8 532.73 510.48 532.73 508.28 523.33 511.42 523.33 512.5 528.66 512.56 528.66 513.62 523.33 516.6 523.33 517.74 528.66 517.79 528.66 518.8 523.33 521.81 523.33 519.61 532.73 516.29 532.73"/>
  </g>
  <g>
    <path class="cls-3" d="m183.34,629.7c-9.56,0-17.34-7.78-17.34-17.34s7.78-17.34,17.34-17.34,17.34,7.78,17.34,17.34-7.78,17.34-17.34,17.34Zm0-32.92c-8.59,0-15.58,6.99-15.58,15.58s6.99,15.58,15.58,15.58,15.58-6.99,15.58-15.58-6.99-15.58-15.58-15.58Z"/>
    <g>
      <path class="cls-3" d="m205.17,622.53c-.12,0-.23-.02-.35-.07l-43.65-18.6c-.45-.19-.66-.71-.47-1.16.19-.45.72-.66,1.16-.47l43.65,18.6c.45.19.66.71.47,1.16-.14.34-.47.54-.81.54Z"/>
      <path class="cls-3" d="m161.52,622.53c-.34,0-.67-.2-.81-.54-.19-.45.02-.97.47-1.16l43.65-18.6c.44-.19.97.02,1.16.47.19.45-.02.97-.47,1.16l-43.65,18.6c-.11.05-.23.07-.35.07Z"/>
    </g>
  </g>
  <path class="cls-3" d="m127.24,629.7c-9.56,0-17.34-7.78-17.34-17.34s7.78-17.34,17.34-17.34,17.34,7.78,17.34,17.34-7.78,17.34-17.34,17.34Zm0-32.92c-8.59,0-15.58,6.99-15.58,15.58s6.99,15.58,15.58,15.58,15.58-6.99,15.58-15.58-6.99-15.58-15.58-15.58Z"/>
  <g>
    <path class="cls-3" d="m459.87,629.7c-9.56,0-17.34-7.78-17.34-17.34s7.78-17.34,17.34-17.34,17.34,7.78,17.34,17.34-7.78,17.34-17.34,17.34Zm0-32.92c-8.59,0-15.58,6.99-15.58,15.58s6.99,15.58,15.58,15.58,15.58-6.99,15.58-15.58-6.99-15.58-15.58-15.58Z"/>
    <path class="cls-3" d="m464.33,611.11v.18c0,1.82-1.26,3.17-3.08,3.17h-2.31v3.1h-3.09v-9.62h5.4c1.82,0,3.08,1.34,3.08,3.16Zm-5.38,1.11h1.27c.66,0,.98-.36.98-.94v-.11c0-.57-.31-.94-.98-.94h-1.27v1.99Z"/>
  </g>
  <g>
    <path class="cls-3" d="m242.3,629.7c-9.56,0-17.34-7.78-17.34-17.34s7.78-17.34,17.34-17.34,17.34,7.78,17.34,17.34-7.78,17.34-17.34,17.34Zm0-32.92c-8.59,0-15.58,6.99-15.58,15.58s6.99,15.58,15.58,15.58,15.58-6.99,15.58-15.58-6.99-15.58-15.58-15.58Z"/>
    <path class="cls-3" d="m244.35,617.56l-.41-1.36h-3.37l-.41,1.36h-3.16l3.51-9.62h3.59l3.51,9.62h-3.27Zm-3.13-3.51h2.08l-1.01-3.42h-.06l-1.02,3.42Z"/>
  </g>
  <g>
    <path class="cls-3" d="m514.26,629.7c-9.56,0-17.34-7.78-17.34-17.34s7.78-17.34,17.34-17.34,17.34,7.78,17.34,17.34-7.78,17.34-17.34,17.34Zm0-32.92c-8.59,0-15.58,6.99-15.58,15.58s6.99,15.58,15.58,15.58,15.58-6.99,15.58-15.58-6.99-15.58-15.58-15.58Z"/>
    <path class="cls-3" d="m530.72,634.15h-32.92c-.49,0-.88-.4-.88-.88s.4-.88.88-.88h32.92c.49,0,.88.4.88.88s-.4.88-.88.88Z"/>
    <path class="cls-3" d="m518.72,611.11v.18c0,1.82-1.26,3.17-3.08,3.17h-2.31v3.1h-3.09v-9.62h5.4c1.82,0,3.08,1.34,3.08,3.16Zm-5.38,1.11h1.27c.66,0,.98-.36.98-.94v-.11c0-.57-.31-.94-.98-.94h-1.27v1.99Z"/>
  </g>
  <g>
    <path class="cls-3" d="m568.66,629.7c-9.56,0-17.34-7.78-17.34-17.34s7.78-17.34,17.34-17.34,17.34,7.78,17.34,17.34-7.78,17.34-17.34,17.34Zm0-32.92c-8.59,0-15.58,6.99-15.58,15.58s6.99,15.58,15.58,15.58,15.58-6.99,15.58-15.58-6.99-15.58-15.58-15.58Z"/>
    <path class="cls-3" d="m585.12,634.15h-32.92c-.49,0-.88-.4-.88-.88s.4-.88.88-.88h32.92c.49,0,.88.4.88.88s-.4.88-.88.88Z"/>
    <path class="cls-3" d="m585.12,638.78h-32.92c-.49,0-.88-.4-.88-.88s.4-.88.88-.88h32.92c.49,0,.88.4.88.88s-.4.88-.88.88Z"/>
    <path class="cls-3" d="m573.12,611.11v.18c0,1.82-1.26,3.17-3.08,3.17h-2.31v3.1h-3.09v-9.62h5.4c1.82,0,3.08,1.34,3.08,3.16Zm-5.38,1.11h1.27c.66,0,.98-.36.98-.94v-.11c0-.57-.31-.94-.98-.94h-1.27v1.99Z"/>
  </g>
  <g>
    <path class="cls-3" d="m296.7,629.03c-9.56,0-17.34-7.78-17.34-17.34s7.78-17.34,17.34-17.34,17.34,7.78,17.34,17.34-7.78,17.34-17.34,17.34Zm0-32.92c-8.59,0-15.58,6.99-15.58,15.58s6.99,15.58,15.58,15.58,15.58-6.99,15.58-15.58-6.99-15.58-15.58-15.58Z"/>
    <polygon class="cls-3" points="293.07 607.28 300.84 607.28 300.84 609.58 296.16 609.58 296.16 611.23 300.19 611.23 300.19 613.44 296.16 613.44 296.16 616.9 293.07 616.9 293.07 607.28"/>
  </g>
  <g>
    <path class="cls-3" d="m351.09,629.03c-9.56,0-17.34-7.78-17.34-17.34s7.78-17.34,17.34-17.34,17.34,7.78,17.34,17.34-7.78,17.34-17.34,17.34Zm0-32.92c-8.59,0-15.58,6.99-15.58,15.58s6.99,15.58,15.58,15.58,15.58-6.99,15.58-15.58-6.99-15.58-15.58-15.58Z"/>
    <path class="cls-3" d="m367.55,633.48h-32.92c-.49,0-.88-.4-.88-.88s.4-.88.88-.88h32.92c.49,0,.88.4.88.88s-.4.88-.88.88Z"/>
    <polygon class="cls-3" points="347.46 607.28 355.24 607.28 355.24 609.58 350.55 609.58 350.55 611.23 354.58 611.23 354.58 613.44 350.55 613.44 350.55 616.9 347.46 616.9 347.46 607.28"/>
  </g>
  <g>
    <path class="cls-3" d="m405.48,629.03c-9.56,0-17.34-7.78-17.34-17.34s7.78-17.34,17.34-17.34,17.34,7.78,17.34,17.34-7.78,17.34-17.34,17.34Zm0-32.92c-8.59,0-15.58,6.99-15.58,15.58s6.99,15.58,15.58,15.58,15.58-6.99,15.58-15.58-6.99-15.58-15.58-15.58Z"/>
    <path class="cls-3" d="m421.94,633.48h-32.92c-.49,0-.88-.4-.88-.88s.4-.88.88-.88h32.92c.49,0,.88.4.88.88s-.4.88-.88.88Z"/>
    <path class="cls-3" d="m421.94,638.11h-32.92c-.49,0-.88-.4-.88-.88s.4-.88.88-.88h32.92c.49,0,.88.4.88.88s-.4.88-.88.88Z"/>
    <polygon class="cls-3" points="401.85 607.28 409.63 607.28 409.63 609.58 404.94 609.58 404.94 611.23 408.97 611.23 408.97 613.44 404.94 613.44 404.94 616.9 401.85 616.9 401.85 607.28"/>
  </g>
  <path class="cls-3" d="m150.62,705.69s-.01,0-.02,0h-39.85c-.3,0-.57-.15-.73-.41-.16-.25-.17-.57-.04-.83l2.07-4.09c3.12-6.18,9.35-10.01,16.27-10.01h17.85l-.92-3.74c-.88-3.6-4.09-6.11-7.79-6.11h-18.95c-.47,0-.85-.38-.85-.85s.38-.85.85-.85h18.95c4.49,0,8.38,3.05,9.45,7.41l1.18,4.79h0s3.35,13.63,3.35,13.63c.01.04.02.08.02.12.01.1,0,.2-.02.29-.03.13-.09.24-.16.34-.08.1-.17.18-.29.23-.09.04-.18.07-.28.09-.04,0-.07,0-.1,0Zm-38.48-1.71h37.39l-2.93-11.93h-18.27c-6.27,0-11.92,3.48-14.74,9.07l-1.44,2.85Z"/>
  <g>
    <path class="cls-3" d="m260.75,705.69s-.01,0-.02,0h-39.85c-.3,0-.57-.15-.73-.41-.16-.25-.17-.57-.04-.83l2.07-4.09c3.12-6.18,9.35-10.01,16.27-10.01h17.85l-.92-3.74c-.88-3.6-4.09-6.11-7.79-6.11h-18.95c-.47,0-.85-.38-.85-.85s.38-.85.85-.85h18.95c4.49,0,8.38,3.05,9.45,7.41l1.18,4.79h0s3.35,13.63,3.35,13.63c.01.04.02.08.02.12.01.1,0,.2-.02.29-.03.13-.09.24-.16.34-.08.1-.17.18-.29.23-.09.04-.18.07-.28.09-.04,0-.07,0-.1,0Zm-38.48-1.71h37.39l-2.93-11.93h-18.27c-6.27,0-11.92,3.48-14.74,9.07l-1.44,2.85Z"/>
    <path class="cls-3" d="m242.27,701.89c-1.9,0-3.45-1.55-3.45-3.45s1.55-3.45,3.45-3.45,3.45,1.55,3.45,3.45-1.55,3.45-3.45,3.45Zm0-5.19c-.96,0-1.74.78-1.74,1.74s.78,1.74,1.74,1.74,1.74-.78,1.74-1.74-.78-1.74-1.74-1.74Z"/>
  </g>
  <g>
    <path class="cls-3" d="m315.81,705.69s-.01,0-.02,0h-39.85c-.3,0-.57-.15-.73-.41-.16-.25-.17-.57-.04-.83l2.07-4.09c3.12-6.18,9.35-10.01,16.27-10.01h17.85l-.92-3.74c-.88-3.6-4.09-6.11-7.79-6.11h-18.95c-.47,0-.85-.38-.85-.85s.38-.85.85-.85h18.95c4.49,0,8.38,3.05,9.45,7.41l1.18,4.79h0s3.35,13.63,3.35,13.63c.01.04.02.08.02.12.01.1,0,.2-.02.29-.03.13-.08.24-.16.34-.08.1-.17.18-.29.23-.09.04-.18.07-.28.09-.04,0-.07,0-.1,0Zm-38.48-1.71h37.39l-2.93-11.93h-18.27c-6.27,0-11.92,3.48-14.74,9.07l-1.44,2.85Z"/>
    <path class="cls-3" d="m292.31,701.89c-1.9,0-3.45-1.55-3.45-3.45s1.55-3.45,3.45-3.45,3.45,1.55,3.45,3.45-1.55,3.45-3.45,3.45Zm0-5.19c-.96,0-1.74.78-1.74,1.74s.78,1.74,1.74,1.74,1.74-.78,1.74-1.74-.78-1.74-1.74-1.74Z"/>
    <path class="cls-3" d="m303.97,701.89c-1.9,0-3.45-1.55-3.45-3.45s1.55-3.45,3.45-3.45,3.45,1.55,3.45,3.45-1.55,3.45-3.45,3.45Zm0-5.19c-.96,0-1.74.78-1.74,1.74s.78,1.74,1.74,1.74,1.74-.78,1.74-1.74-.78-1.74-1.74-1.74Z"/>
  </g>
  <g>
    <path class="cls-3" d="m370.88,705.69s-.01,0-.02,0h-39.85c-.3,0-.57-.15-.73-.41-.16-.25-.17-.57-.04-.83l2.07-4.09c3.12-6.18,9.35-10.01,16.27-10.01h17.85l-.92-3.74c-.88-3.6-4.09-6.11-7.79-6.11h-18.95c-.47,0-.85-.38-.85-.85s.38-.85.85-.85h18.95c4.49,0,8.38,3.05,9.45,7.41l1.18,4.79s0,0,0,0l3.35,13.62s.02.08.02.12c.01.1,0,.2-.02.29-.03.13-.08.24-.16.34-.08.1-.17.18-.29.23-.09.04-.18.07-.28.09-.04,0-.07,0-.1,0Zm-38.48-1.71h37.39l-2.93-11.93h-18.27c-6.27,0-11.92,3.48-14.74,9.07l-1.44,2.85Z"/>
    <g>
      <path class="cls-3" d="m344.87,701.89c-1.9,0-3.45-1.55-3.45-3.45s1.55-3.45,3.45-3.45,3.45,1.55,3.45,3.45-1.55,3.45-3.45,3.45Zm0-5.19c-.96,0-1.74.78-1.74,1.74s.78,1.74,1.74,1.74,1.74-.78,1.74-1.74-.78-1.74-1.74-1.74Z"/>
      <path class="cls-3" d="m353.1,701.89c-1.9,0-3.45-1.55-3.45-3.45s1.55-3.45,3.45-3.45,3.45,1.55,3.45,3.45-1.55,3.45-3.45,3.45Zm0-5.19c-.96,0-1.74.78-1.74,1.74s.78,1.74,1.74,1.74,1.74-.78,1.74-1.74-.78-1.74-1.74-1.74Z"/>
      <path class="cls-3" d="m361.32,701.89c-1.9,0-3.45-1.55-3.45-3.45s1.55-3.45,3.45-3.45,3.45,1.55,3.45,3.45-1.55,3.45-3.45,3.45Zm0-5.19c-.96,0-1.74.78-1.74,1.74s.78,1.74,1.74,1.74,1.74-.78,1.74-1.74-.78-1.74-1.74-1.74Z"/>
    </g>
  </g>
  <g>
    <path class="cls-3" d="m205.89,705.69s-.01,0-.02,0h-39.85c-.3,0-.57-.15-.73-.41-.16-.25-.17-.57-.04-.83l2.07-4.09c3.12-6.18,9.35-10.01,16.27-10.01h17.85l-.92-3.74c-.88-3.6-4.09-6.11-7.79-6.11h-18.95c-.47,0-.85-.38-.85-.85s.38-.85.85-.85h18.95c4.49,0,8.38,3.05,9.45,7.41l1.18,4.79s0,0,0,0l3.35,13.62s.02.08.02.12c.01.1,0,.2-.02.29-.03.13-.08.24-.16.34-.08.1-.17.18-.29.23-.09.04-.18.07-.28.09-.04,0-.07,0-.1,0Zm-38.48-1.71h37.39l-2.93-11.93h-18.27c-6.27,0-11.92,3.48-14.74,9.07l-1.44,2.85Z"/>
    <g>
      <path class="cls-3" d="m198.57,708.55c-.2,0-.4-.07-.57-.21l-22.89-20.24c-.35-.31-.39-.85-.07-1.21.31-.36.85-.39,1.21-.07l22.89,20.24c.35.31.39.85.07,1.21-.17.19-.4.29-.64.29Z"/>
      <path class="cls-3" d="m175.68,708.55c-.24,0-.47-.1-.64-.29-.31-.35-.28-.89.07-1.21l22.89-20.24c.35-.31.89-.28,1.21.07.31.35.28.89-.07,1.21l-22.89,20.24c-.16.14-.36.21-.57.21Z"/>
    </g>
  </g>
  <g>
    <path class="cls-3" d="m473.46,708.55c-.2,0-.4-.07-.57-.21l-22.89-20.24c-.35-.31-.39-.85-.07-1.21.31-.36.85-.39,1.21-.07l22.89,20.24c.35.31.39.85.07,1.21-.17.19-.4.29-.64.29Z"/>
    <path class="cls-3" d="m450.57,708.55c-.24,0-.47-.1-.64-.29-.31-.35-.28-.89.07-1.21l22.89-20.24c.35-.31.89-.28,1.21.07.31.35.28.89-.07,1.21l-22.89,20.24c-.16.14-.36.21-.57.21Z"/>
    <path class="cls-3" d="m481,705.69s-.01,0-.02,0h-39.85c-.3,0-.57-.15-.73-.41-.16-.25-.17-.57-.04-.83l2.07-4.09c3.12-6.18,9.35-10.01,16.27-10.01h17.85l-.92-3.74c-.88-3.6-4.09-6.11-7.79-6.11h-18.95c-.47,0-.85-.38-.85-.85s.38-.85.85-.85h18.95c4.49,0,8.38,3.05,9.45,7.41l1.18,4.79h0s3.35,13.63,3.35,13.63c0,.04.02.08.02.12.01.1,0,.2-.01.29-.03.13-.08.24-.16.34-.08.1-.17.18-.29.23-.09.04-.18.07-.28.09-.03,0-.07,0-.1,0Zm-38.48-1.71h37.39l-2.94-11.93h-18.27c-6.27,0-11.92,3.48-14.74,9.07l-1.44,2.85Z"/>
    <g>
      <path class="cls-3" d="m475.78,706.45c-.34,0-.67-.21-.8-.55l-.3-.77c-.17-.44.05-.93.49-1.11.44-.17.93.05,1.11.49l.3.77c.17.44-.05.93-.49,1.11-.1.04-.21.06-.31.06Z"/>
      <path class="cls-3" d="m477.12,709.92c-.34,0-.67-.21-.8-.55l-.45-1.16c-.17-.44.05-.94.49-1.11.44-.17.94.05,1.11.49l.45,1.16c.17.44-.05.94-.49,1.11-.1.04-.21.06-.31.06Z"/>
      <path class="cls-3" d="m478.31,713c-.34,0-.67-.21-.8-.55l-.3-.77c-.17-.44.05-.93.49-1.11.44-.17.94.05,1.11.49l.3.77c.17.44-.05.93-.49,1.11-.1.04-.21.06-.31.06Z"/>
    </g>
    <g>
      <path class="cls-3" d="m448.41,706.45c-.1,0-.21-.02-.31-.06-.44-.17-.66-.67-.49-1.11l.3-.77c.17-.44.67-.66,1.11-.49.44.17.66.67.49,1.11l-.3.77c-.13.34-.45.55-.8.55Z"/>
      <path class="cls-3" d="m447.07,709.92c-.1,0-.21-.02-.31-.06-.44-.17-.66-.67-.49-1.11l.45-1.16c.17-.44.66-.66,1.11-.49.44.17.66.67.49,1.11l-.45,1.16c-.13.34-.46.55-.8.55Z"/>
      <path class="cls-3" d="m445.88,713c-.1,0-.21-.02-.31-.06-.44-.17-.66-.67-.49-1.11l.3-.77c.17-.44.67-.66,1.11-.49.44.17.66.67.49,1.11l-.3.77c-.13.34-.45.55-.8.55Z"/>
    </g>
    <g>
      <path class="cls-3" d="m462.09,706.51c-.47,0-.85-.38-.85-.85v-.82c0-.47.38-.85.85-.85s.85.38.85.85v.82c0,.47-.38.85-.85.85Z"/>
      <path class="cls-3" d="m462.09,709.91c-.47,0-.85-.38-.85-.85v-1.13c0-.47.38-.85.85-.85s.85.38.85.85v1.13c0,.47-.38.85-.85.85Z"/>
      <path class="cls-3" d="m462.09,713c-.47,0-.85-.38-.85-.85v-.82c0-.47.38-.85.85-.85s.85.38.85.85v.82c0,.47-.38.85-.85.85Z"/>
    </g>
  </g>
  <g>
    <path class="cls-3" d="m425.94,705.69s-.01,0-.02,0h-39.85c-.3,0-.57-.15-.73-.41-.16-.25-.17-.57-.04-.83l2.07-4.09c3.12-6.18,9.35-10.01,16.27-10.01h17.85l-.92-3.74c-.89-3.6-4.09-6.11-7.79-6.11h-18.95c-.47,0-.85-.38-.85-.85s.38-.85.85-.85h18.95c4.49,0,8.38,3.05,9.45,7.41l1.17,4.77s0,.02,0,.03l3.35,13.62s.02.08.02.12c.01.1,0,.2-.01.29h0c-.03.12-.08.24-.16.34-.08.1-.18.18-.29.24-.08.04-.18.07-.27.08-.04,0-.07,0-.11,0Zm-38.48-1.71h37.39l-2.94-11.93h-18.27c-6.27,0-11.92,3.48-14.74,9.07l-1.44,2.85Z"/>
    <g>
      <path class="cls-3" d="m420.71,706.45c-.34,0-.67-.21-.8-.55l-.3-.77c-.17-.44.05-.93.49-1.1.44-.17.93.05,1.11.49l.3.77c.17.44-.05.93-.49,1.1-.1.04-.21.06-.31.06Z"/>
      <path class="cls-3" d="m422.05,709.92c-.34,0-.67-.21-.8-.55l-.45-1.16c-.17-.44.05-.94.49-1.11.44-.17.93.05,1.1.49l.45,1.16c.17.44-.05.94-.49,1.11-.1.04-.21.06-.31.06Z"/>
      <path class="cls-3" d="m423.24,713c-.34,0-.67-.21-.8-.55l-.29-.77c-.17-.44.05-.93.49-1.1.44-.17.94.05,1.11.49l.3.77c.17.44-.05.93-.49,1.1-.1.04-.21.06-.31.06Z"/>
    </g>
    <g>
      <path class="cls-3" d="m393.35,706.45c-.1,0-.21-.02-.31-.06-.44-.17-.66-.67-.49-1.11l.3-.77c.17-.44.66-.66,1.11-.49.44.17.66.67.49,1.11l-.3.77c-.13.34-.45.55-.8.55Z"/>
      <path class="cls-3" d="m392.01,709.92c-.1,0-.21-.02-.31-.06-.44-.17-.66-.67-.49-1.11l.45-1.16c.17-.44.67-.66,1.1-.49.44.17.66.67.49,1.11l-.45,1.16c-.13.34-.45.55-.8.55Z"/>
      <path class="cls-3" d="m390.81,713c-.1,0-.21-.02-.31-.06-.44-.17-.66-.67-.49-1.11l.3-.77c.17-.44.66-.66,1.11-.49.44.17.66.67.49,1.11l-.3.77c-.13.34-.45.55-.8.55Z"/>
    </g>
    <g>
      <path class="cls-3" d="m407.03,706.51c-.47,0-.85-.38-.85-.85v-.82c0-.47.38-.85.85-.85s.85.38.85.85v.82c0,.47-.38.85-.85.85Z"/>
      <path class="cls-3" d="m407.03,709.91c-.47,0-.85-.38-.85-.85v-1.13c0-.47.38-.85.85-.85s.85.38.85.85v1.13c0,.47-.38.85-.85.85Z"/>
      <path class="cls-3" d="m407.03,713c-.47,0-.85-.38-.85-.85v-.82c0-.47.38-.85.85-.85s.85.38.85.85v.82c0,.47-.38.85-.85.85Z"/>
    </g>
  </g>
  <text class="cls-4" transform="translate(25.05 74.92)"><tspan class="cls-2" x="0" y="0">W</tspan><tspan class="cls-7" x="11.29" y="0">ash</tspan></text>
  <text class="cls-4" transform="translate(25.05 276.27)"><tspan x="0" y="0">D</tspan><tspan class="cls-1" x="8.64" y="0">r</tspan><tspan class="cls-11" x="13.66" y="0">y</tspan></text>
  <text class="cls-4" transform="translate(25.05 435.7)"><tspan x="0" y="0">Bl</tspan><tspan class="cls-9" x="11.17" y="0">e</tspan><tspan class="cls-6" x="17.82" y="0">ach</tspan></text>
  <text class="cls-4" transform="translate(25.05 511.19)"><tspan x="0" y="0">D</tspan><tspan class="cls-1" x="8.64" y="0">r</tspan><tspan class="cls-8" x="13.66" y="0">y</tspan><tspan class="cls-6" x="19.82" y="0">cl</tspan><tspan class="cls-5" x="29.15" y="0">e</tspan><tspan x="35.8" y="0">an</tspan></text>
  <text class="cls-4" transform="translate(25.05 689.04)"><tspan x="0" y="0">I</tspan><tspan class="cls-10" x="3.6" y="0">r</tspan><tspan x="8.09" y="0">on</tspan></text>
</svg>