<?xml version="1.0" encoding="UTF-8"?>
<svg id="Layer_2" data-name="Layer 2" xmlns="http://www.w3.org/2000/svg" viewBox="0 0 46.4 35.43">
  <g id="Layer_1-2" data-name="Layer 1">
    <g>
      <path d="m36.55,35.43H9.85c-2.41,0-4.37-1.96-4.37-4.37V4.37C5.48,1.96,7.44,0,9.85,0h26.7c2.41,0,4.37,1.96,4.37,4.37v26.7c0,2.41-1.96,4.37-4.37,4.37ZM9.85,1.8c-1.41,0-2.56,1.15-2.56,2.56v26.7c0,1.41,1.15,2.56,2.56,2.56h26.7c1.41,0,2.56-1.15,2.56-2.56V4.37c0-1.41-1.15-2.56-2.56-2.56H9.85Z"/>
      <path d="m23.2,35.43c-9.77,0-17.72-7.95-17.72-17.72S13.43,0,23.2,0s17.72,7.95,17.72,17.72-7.95,17.72-17.72,17.72Zm0-33.63c-8.77,0-15.91,7.14-15.91,15.91s7.14,15.91,15.91,15.91,15.91-7.14,15.91-15.91S31.97,1.8,23.2,1.8Z"/>
      <g>
        <path d="m45.49,28.12c-.12,0-.24-.02-.35-.07L.55,9.05c-.46-.2-.67-.73-.48-1.18.2-.46.73-.67,1.18-.48l44.59,19c.46.2.67.73.48,1.18-.15.34-.48.55-.83.55Z"/>
        <path d="m.9,28.12c-.35,0-.68-.21-.83-.55-.19-.46.02-.99.48-1.18L45.14,7.39c.46-.19.99.02,1.18.48.19.46-.02.99-.48,1.18L1.26,28.05c-.11.05-.24.07-.35.07Z"/>
      </g>
    </g>
  </g>
</svg>