<?xml version="1.0" encoding="UTF-8"?>
<svg id="Layer_2" data-name="Layer 2" xmlns="http://www.w3.org/2000/svg" viewBox="0 0 48.48 35.24">
  <g id="Layer_1-2" data-name="Layer 1">
    <g>
      <path d="m43.51,35.24H4.96c-.34,0-.65-.18-.82-.47-.17-.29-.17-.65,0-.94L23.42.44c.34-.58,1.3-.58,1.63,0l19.27,33.38c.17.29.17.65,0,.94-.17.29-.48.47-.82.47Zm-36.91-1.89h35.28L24.24,2.79,6.6,33.35Z"/>
      <path d="m47.53,32.99c-.12,0-.25-.02-.37-.07L.57,13.07c-.48-.21-.7-.76-.5-1.24.2-.48.76-.7,1.24-.5l46.59,19.85c.48.21.7.76.5,1.24-.15.36-.5.57-.87.57Z"/>
      <path d="m.94,32.99c-.37,0-.71-.21-.87-.57-.2-.48.02-1.03.5-1.24L47.16,11.33c.48-.2,1.03.02,1.24.5.2.48-.02,1.03-.5,1.24L1.31,32.91c-.12.05-.25.07-.37.07Z"/>
    </g>
  </g>
</svg>