<?xml version="1.0" encoding="UTF-8"?>
<svg id="Layer_2" data-name="Layer 2" xmlns="http://www.w3.org/2000/svg" viewBox="0 0 45.42 34.69">
  <g id="Layer_1-2" data-name="Layer 1">
    <g>
      <path d="m22.71,34.69c-9.56,0-17.34-7.78-17.34-17.34S13.15,0,22.71,0s17.34,7.78,17.34,17.34-7.78,17.34-17.34,17.34Zm0-32.92c-8.59,0-15.58,6.99-15.58,15.58s6.99,15.58,15.58,15.58,15.58-6.99,15.58-15.58S31.3,1.77,22.71,1.77Z"/>
      <g>
        <path d="m44.54,27.53c-.12,0-.23-.02-.35-.07L.54,8.86c-.45-.19-.66-.71-.47-1.16.19-.45.72-.66,1.16-.47l43.65,18.6c.45.19.66.71.47,1.16-.14.34-.47.54-.81.54Z"/>
        <path d="m.88,27.53c-.34,0-.67-.2-.81-.54-.19-.45.02-.97.47-1.16L44.19,7.23c.44-.19.97.02,1.16.47.19.45-.02.97-.47,1.16L1.23,27.46c-.11.05-.23.07-.35.07Z"/>
      </g>
    </g>
  </g>
</svg>