<?xml version="1.0" encoding="UTF-8"?>
<svg id="Layer_2" data-name="Layer 2" xmlns="http://www.w3.org/2000/svg" viewBox="0 0 44.41 33.91">
  <g id="Layer_1-2" data-name="Layer 1">
    <path d="m43.88,25.25l-5.78-2.46c.67-1.82,1.06-3.78,1.06-5.83s-.39-4.01-1.06-5.83l5.78-2.46c.44-.19.64-.69.46-1.13-.19-.44-.7-.64-1.13-.46l-5.78,2.46C34.66,3.9,28.89,0,22.2,0S9.74,3.9,6.98,9.53L1.2,7.07c-.44-.19-.95.02-1.13.46-.19.44.02.95.46,1.13l5.78,2.46c-.67,1.82-1.06,3.78-1.06,5.83s.38,4.01,1.06,5.83l-5.78,2.46c-.44.19-.64.69-.46,1.13.14.33.46.52.79.52.11,0,.23-.02.34-.07l5.78-2.46c2.76,5.63,8.54,9.53,15.22,9.53s12.46-3.9,15.22-9.53l5.78,2.46c.11.05.23.07.34.07.34,0,.65-.2.8-.52.19-.44-.02-.95-.46-1.13Zm-8.35-3.56c.44.19.64.69.46,1.13-.14.33-.46.52-.8.52-.11,0-.23-.02-.34-.07l-12.65-5.39-12.65,5.39c-.11.05-.23.07-.34.07-.34,0-.65-.2-.79-.52-.19-.44.02-.95.46-1.13l11.12-4.74-11.12-4.74c-.44-.19-.64-.69-.46-1.13.19-.44.7-.64,1.13-.46l12.65,5.39,12.65-5.39c.43-.18.95.02,1.13.46.19.44-.02.95-.46,1.13l-11.12,4.74,11.12,4.74Z"/>
  </g>
</svg>