<?xml version="1.0" encoding="UTF-8"?>
<svg id="Layer_2" data-name="Layer 2" xmlns="http://www.w3.org/2000/svg" viewBox="0 0 46.32 35.38">
  <g id="Layer_1-2" data-name="Layer 1">
    <g>
      <path d="m36.49,35.38H9.83c-2.4,0-4.36-1.96-4.36-4.36V4.36C5.47,1.96,7.43,0,9.83,0h26.66c2.4,0,4.36,1.96,4.36,4.36v26.66c0,2.41-1.96,4.36-4.36,4.36ZM9.83,1.8c-1.41,0-2.56,1.15-2.56,2.56v26.66c0,1.41,1.15,2.56,2.56,2.56h26.66c1.41,0,2.56-1.15,2.56-2.56V4.36c0-1.41-1.15-2.56-2.56-2.56H9.83Z"/>
      <g>
        <path d="m45.42,28.07c-.12,0-.24-.02-.35-.07L.55,9.04c-.46-.2-.67-.72-.48-1.18.2-.46.73-.67,1.18-.48l44.52,18.96c.46.2.67.72.48,1.18-.15.34-.48.55-.83.55Z"/>
        <path d="m.9,28.07c-.35,0-.68-.21-.83-.55-.19-.46.02-.99.48-1.18L45.07,7.38c.45-.19.99.02,1.18.48.19.46-.02.99-.48,1.18L1.25,28c-.11.05-.24.07-.35.07Z"/>
      </g>
    </g>
  </g>
</svg>