<?xml version="1.0" encoding="UTF-8"?>
<svg id="Layer_2" data-name="Layer 2" xmlns="http://www.w3.org/2000/svg" viewBox="0 0 43.65 43.65">
  <g id="Layer_1-2" data-name="Layer 1">
    <g>
      <path d="m16.95,33.9c-4.34,0-8.68-1.65-11.99-4.96C-1.65,22.33-1.65,11.57,4.96,4.96c6.61-6.61,17.37-6.61,23.98,0h0c6.61,6.61,6.61,17.37,0,23.98-3.31,3.31-7.65,4.96-11.99,4.96Zm0-32.17c-3.9,0-7.8,1.48-10.77,4.45C.24,12.12.24,21.78,6.18,27.72c5.94,5.94,15.6,5.94,21.54,0,5.94-5.94,5.94-15.6,0-21.54-2.97-2.97-6.87-4.45-10.77-4.45Z"/>
      <path d="m20.03,43.65c-.22,0-.44-.08-.61-.25-.34-.34-.34-.88,0-1.22l22.76-22.76c.34-.34.88-.34,1.22,0,.34.34.34.88,0,1.22l-22.76,22.76c-.17.17-.39.25-.61.25Z"/>
    </g>
  </g>
</svg>