<?xml version="1.0" encoding="UTF-8"?>
<svg id="Layer_2" data-name="Layer 2" xmlns="http://www.w3.org/2000/svg" viewBox="0 0 43.65 43.66">
  <g id="Layer_1-2" data-name="Layer 1">
    <g>
      <path d="m16.95,43.66c-4.53,0-8.79-1.76-11.99-4.97-6.61-6.61-6.61-17.37,0-23.98,3.2-3.2,7.46-4.97,11.99-4.97s8.79,1.76,11.99,4.97c6.61,6.61,6.61,17.37,0,23.98-3.2,3.2-7.46,4.97-11.99,4.97Zm0-32.19c-4.07,0-7.89,1.58-10.77,4.46C.24,21.87.24,31.53,6.18,37.47c2.88,2.88,6.7,4.46,10.77,4.46s7.89-1.58,10.77-4.46c5.94-5.94,5.94-15.6,0-21.54-2.88-2.88-6.7-4.46-10.77-4.46Z"/>
      <path d="m42.79,24.49c-.22,0-.44-.08-.61-.25L19.42,1.47c-.34-.34-.34-.88,0-1.22.34-.34.88-.34,1.22,0l22.76,22.76c.34.34.34.88,0,1.22-.17.17-.39.25-.61.25Z"/>
    </g>
  </g>
</svg>