<?xml version="1.0" encoding="UTF-8"?>
<svg id="Layer_2" data-name="Layer 2" xmlns="http://www.w3.org/2000/svg" viewBox="0 0 35.38 35.38">
  <g id="Layer_1-2" data-name="Layer 1">
    <g>
      <path d="m31.01,35.38H4.36c-2.4,0-4.36-1.96-4.36-4.36V4.36C0,1.96,1.96,0,4.36,0h26.65c2.4,0,4.36,1.96,4.36,4.36v26.66c0,2.41-1.96,4.36-4.36,4.36ZM4.36,1.8c-1.41,0-2.56,1.15-2.56,2.56v26.66c0,1.41,1.15,2.56,2.56,2.56h26.65c1.41,0,2.56-1.15,2.56-2.56V4.36c0-1.41-1.15-2.56-2.56-2.56H4.36Z"/>
      <path d="m26.08,18.59H9.29c-.5,0-.9-.4-.9-.9s.4-.9.9-.9h16.79c.5,0,.9.4.9.9s-.4.9-.9.9Z"/>
    </g>
  </g>
</svg>