<?xml version="1.0" encoding="UTF-8"?>
<svg id="Layer_2" data-name="Layer 2" xmlns="http://www.w3.org/2000/svg" viewBox="0 0 43.65 43.65">
  <g id="Layer_1-2" data-name="Layer 1">
    <g>
      <path d="m26.7,43.65c-4.34,0-8.68-1.65-11.99-4.96h0c-6.61-6.61-6.61-17.37,0-23.98,6.61-6.61,17.37-6.61,23.98,0,6.61,6.61,6.61,17.37,0,23.98-3.31,3.31-7.65,4.96-11.99,4.96Zm-10.77-6.18c5.94,5.94,15.6,5.94,21.54,0,5.94-5.94,5.94-15.6,0-21.54-5.94-5.94-15.6-5.94-21.54,0-5.94,5.94-5.94,15.6,0,21.54h0Z"/>
      <path d="m.86,24.49c-.22,0-.44-.08-.61-.25-.34-.34-.34-.88,0-1.22L23.01.25c.34-.34.88-.34,1.22,0,.34.34.34.88,0,1.22L1.47,24.23c-.17.17-.39.25-.61.25Z"/>
    </g>
  </g>
</svg>