<?xml version="1.0" encoding="UTF-8"?>
<svg id="Layer_2" data-name="Layer 2" xmlns="http://www.w3.org/2000/svg" viewBox="0 0 34.69 34.69">
  <g id="Layer_1-2" data-name="Layer 1">
    <g>
      <path d="m17.34,34.69C7.78,34.69,0,26.91,0,17.34S7.78,0,17.34,0s17.34,7.78,17.34,17.34-7.78,17.34-17.34,17.34Zm0-32.92C8.76,1.77,1.77,8.75,1.77,17.34s6.99,15.58,15.58,15.58,15.58-6.99,15.58-15.58S25.93,1.77,17.34,1.77Z"/>
      <path d="m21.81,16.1v.18c0,1.82-1.26,3.17-3.08,3.17h-2.31v3.1h-3.09v-9.62h5.4c1.82,0,3.08,1.34,3.08,3.16Zm-5.38,1.11h1.27c.66,0,.98-.36.98-.94v-.11c0-.57-.31-.94-.98-.94h-1.27v1.99Z"/>
    </g>
  </g>
</svg>