<?xml version="1.0" encoding="UTF-8"?>
<svg id="Layer_2" data-name="Layer 2" xmlns="http://www.w3.org/2000/svg" viewBox="0 0 34.69 34.69">
  <g id="Layer_1-2" data-name="Layer 1">
    <g>
      <path d="m17.34,34.69C7.78,34.69,0,26.91,0,17.34S7.78,0,17.34,0s17.34,7.78,17.34,17.34-7.78,17.34-17.34,17.34Zm0-32.92C8.75,1.77,1.77,8.76,1.77,17.34s6.99,15.58,15.58,15.58,15.58-6.99,15.58-15.58S25.93,1.77,17.34,1.77Z"/>
      <polygon points="13.72 12.94 21.49 12.94 21.49 15.25 16.81 15.25 16.81 16.9 20.83 16.9 20.83 19.1 16.81 19.1 16.81 22.56 13.72 22.56 13.72 12.94"/>
    </g>
  </g>
</svg>