<?xml version="1.0" encoding="UTF-8"?>
<svg id="Layer_2" data-name="Layer 2" xmlns="http://www.w3.org/2000/svg" viewBox="0 0 42.49 29.22">
  <g id="Layer_1-2" data-name="Layer 1">
    <g>
      <path d="m33.78,29.22H8.7c-.33,0-.63-.21-.75-.52L.05,7.63c-.15-.41.05-.87.47-1.03.41-.16.87.05,1.03.47l7.71,20.56h23.98l7.71-20.56c.15-.41.61-.62,1.03-.47.41.15.62.61.47,1.03l-7.91,21.08c-.12.31-.41.52-.75.52Z"/>
      <path d="m38.95,15.45c-.09,0-.19-.02-.28-.05-1.11-.42-1.77-1.35-2.36-2.17-.76-1.07-1.28-1.72-2.28-1.72-.44,0-.8-.36-.8-.8s.36-.8.8-.8c1.87,0,2.82,1.32,3.57,2.39.5.7.97,1.36,1.62,1.61.41.15.62.61.47,1.03-.12.32-.42.52-.75.52Z"/>
      <path d="m4.83,15.61c-.66,0-1.26-.17-1.8-.5-.37-.23-.49-.72-.26-1.1.23-.37.72-.49,1.1-.26.29.18.59.26.96.26,1,0,1.51-.65,2.27-1.72.76-1.06,1.7-2.39,3.57-2.39,1.4,0,2.24.75,2.75,1.32.29.33.27.83-.06,1.12-.33.29-.83.27-1.12-.06-.5-.56-.95-.79-1.56-.79-1,0-1.51.65-2.27,1.72-.76,1.07-1.7,2.39-3.57,2.39Z"/>
      <path d="m33.97,4.31c-.34-.28-.84-.23-1.12.11l-2.25,2.72c-.15.18-.21.42-.17.66l.16.83c.26,1.36-.09,2.75-.97,3.82l-5.75,6.96s0,0,0,0l-2.06,2.5c-.24.28-.66.32-.94.09-.28-.24-.32-.66-.09-.94l4.73-5.72c.28-.34.23-.84-.11-1.12-.34-.28-.84-.23-1.12.11l-4.73,5.72s0,0,0,0c0,0,0,0,0,0l-1.24,1.5c-.11.14-.27.22-.45.24-.19.02-.35-.04-.49-.15-.14-.11-.22-.27-.24-.45-.02-.18.04-.35.15-.49l3.2-3.88,2.76-3.35c.28-.34.23-.84-.11-1.12-.34-.28-.84-.23-1.12.11l-1.15,1.39s0,0,0,0l-1.62,1.96-3.2,3.88s0,0,0,0l-1.15,1.39c-.11.14-.27.22-.45.24-.18.02-.35-.04-.49-.15-.28-.24-.32-.66-.09-.94l1.47-1.78h0s.32-.38.32-.38l4.18-5.06s0,0,0,0l1.47-1.78c.28-.34.23-.84-.11-1.12-.34-.28-.84-.23-1.12.11l-5.65,6.84-.32.38c-.11.14-.27.22-.45.24-.18.02-.35-.04-.49-.15-.28-.24-.32-.66-.09-.94l5.97-7.22s0,0,0,0l1.64-1.99c.2-.24.24-.57.11-.85-.13-.28-.41-.46-.72-.46h-5.7c-.48,0-.87-.39-.87-.87s.39-.87.87-.87h11.84c.24,0,.46-.11.61-.29l2.25-2.72c.28-.34.23-.84-.11-1.12-.34-.28-.84-.23-1.12.11l-2.01,2.43h-11.47c-1.36,0-2.46,1.1-2.46,2.46s1.1,2.46,2.46,2.46h4.01l-3.55,4.3-2.98,3.61c-.79.96-.66,2.39.3,3.18.18.15.38.25.59.34l-.1.12c-.79.96-.66,2.39.3,3.18.41.34.91.52,1.43.52.07,0,.15,0,.22-.01.49-.05.92-.28,1.28-.61.13.21.28.41.47.58.41.34.91.52,1.43.52.07,0,.15,0,.22-.01.54-.05,1.01-.31,1.38-.69.13.2.27.39.47.55.41.34.91.52,1.43.52.07,0,.15,0,.22-.01.6-.06,1.15-.34,1.53-.81l5.97-7.22s0,0,0,0l1.85-2.23c1.19-1.43,1.66-3.31,1.31-5.13l-.09-.46,2.01-2.43c.28-.34.23-.84-.11-1.12Z"/>
    </g>
  </g>
</svg>