<?xml version="1.0" encoding="UTF-8"?>
<svg id="Layer_2" data-name="Layer 2" xmlns="http://www.w3.org/2000/svg" viewBox="0 0 41.58 26.9">
  <g id="Layer_1-2" data-name="Layer 1">
    <g>
      <path d="m40.72,26.9s-.01,0-.02,0H.85c-.3,0-.57-.15-.73-.41-.16-.25-.17-.57-.04-.83l2.07-4.09c3.12-6.18,9.35-10.01,16.27-10.01h17.85l-.92-3.74c-.88-3.6-4.09-6.11-7.79-6.11H8.62c-.47,0-.85-.38-.85-.85s.38-.85.85-.85h18.95c4.49,0,8.38,3.05,9.45,7.41l1.18,4.79s0,0,0,0l3.35,13.62s.02.08.02.12c.01.1,0,.2-.02.29-.03.13-.08.24-.16.34-.08.1-.17.18-.29.23-.09.04-.18.07-.28.09-.04,0-.07,0-.1,0Zm-38.48-1.71h37.39l-2.93-11.93h-18.27c-6.27,0-11.92,3.48-14.74,9.07l-1.44,2.85Z"/>
      <g>
        <path d="m14.72,23.1c-1.9,0-3.45-1.55-3.45-3.45s1.55-3.45,3.45-3.45,3.45,1.55,3.45,3.45-1.55,3.45-3.45,3.45Zm0-5.19c-.96,0-1.74.78-1.74,1.74s.78,1.74,1.74,1.74,1.74-.78,1.74-1.74-.78-1.74-1.74-1.74Z"/>
        <path d="m22.94,23.1c-1.9,0-3.45-1.55-3.45-3.45s1.55-3.45,3.45-3.45,3.45,1.55,3.45,3.45-1.55,3.45-3.45,3.45Zm0-5.19c-.96,0-1.74.78-1.74,1.74s.78,1.74,1.74,1.74,1.74-.78,1.74-1.74-.78-1.74-1.74-1.74Z"/>
        <path d="m31.16,23.1c-1.9,0-3.45-1.55-3.45-3.45s1.55-3.45,3.45-3.45,3.45,1.55,3.45,3.45-1.55,3.45-3.45,3.45Zm0-5.19c-.96,0-1.74.78-1.74,1.74s.78,1.74,1.74,1.74,1.74-.78,1.74-1.74-.78-1.74-1.74-1.74Z"/>
      </g>
    </g>
  </g>
</svg>