<?xml version="1.0" encoding="UTF-8"?>
<svg id="Layer_2" data-name="Layer 2" xmlns="http://www.w3.org/2000/svg" viewBox="0 0 35.38 35.38">
  <g id="Layer_1-2" data-name="Layer 1">
    <g>
      <path d="m31.01,35.38H4.37c-2.41,0-4.37-1.96-4.37-4.37V4.36C0,1.96,1.96,0,4.37,0h26.65c2.41,0,4.36,1.96,4.36,4.36v26.65c0,2.41-1.96,4.37-4.36,4.37ZM4.37,1.8c-1.41,0-2.57,1.15-2.57,2.56v26.65c0,1.41,1.15,2.56,2.57,2.56h26.65c1.41,0,2.56-1.15,2.56-2.56V4.36c0-1.41-1.15-2.56-2.56-2.56H4.37Z"/>
      <path d="m17.69,10.48c-6.46,0-12.51-2.86-16.6-7.85-.32-.38-.26-.95.12-1.27.38-.31.95-.26,1.27.13,3.75,4.57,9.3,7.2,15.21,7.2s11.46-2.62,15.21-7.2c.31-.39.88-.44,1.27-.13.39.32.44.88.12,1.27-4.09,4.99-10.15,7.85-16.6,7.85Z"/>
    </g>
  </g>
</svg>