<?xml version="1.0" encoding="UTF-8"?>
<svg id="Layer_2" data-name="Layer 2" xmlns="http://www.w3.org/2000/svg" viewBox="0 0 35.38 35.38">
  <g id="Layer_1-2" data-name="Layer 1">
    <g>
      <path d="m31.02,35.38H4.36C1.96,35.38,0,33.42,0,31.02V4.36C0,1.96,1.96,0,4.36,0h26.65C33.42,0,35.38,1.96,35.38,4.36v26.66c0,2.41-1.96,4.36-4.36,4.36ZM4.36,1.8c-1.41,0-2.56,1.15-2.56,2.56v26.66c0,1.41,1.15,2.56,2.56,2.56h26.65c1.41,0,2.56-1.15,2.56-2.56V4.36c0-1.41-1.15-2.56-2.56-2.56H4.36Z"/>
      <path d="m.9,11.22c-.23,0-.46-.09-.64-.26-.35-.35-.35-.92,0-1.27L9.68.26c.35-.35.92-.35,1.27,0,.35.35.35.92,0,1.27L1.54,10.96c-.18.18-.41.26-.64.26Z"/>
      <path d="m.9,18.59c-.23,0-.46-.09-.64-.26-.35-.35-.35-.92,0-1.27L17.05.26c.35-.35.92-.35,1.27,0s.35.92,0,1.27L1.54,18.33c-.18.18-.41.26-.64.26Z"/>
      <path d="m17.69,10.48c-6.46,0-12.51-2.86-16.6-7.85-.32-.38-.26-.95.13-1.27.38-.32.95-.26,1.27.13,3.75,4.57,9.3,7.2,15.21,7.2s11.46-2.62,15.21-7.2c.31-.39.88-.44,1.27-.13.39.32.44.88.13,1.27-4.09,4.99-10.15,7.85-16.6,7.85Z"/>
    </g>
  </g>
</svg>