<?xml version="1.0" encoding="UTF-8"?>
<svg id="Layer_2" data-name="Layer 2" xmlns="http://www.w3.org/2000/svg" viewBox="0 0 40.43 35.24">
  <g id="Layer_1-2" data-name="Layer 1">
    <g>
      <path d="m39.49,35.24H.94c-.34,0-.65-.18-.82-.47-.17-.29-.17-.65,0-.94L19.4.44c.34-.58,1.3-.58,1.63,0l19.27,33.38c.17.29.17.65,0,.94-.17.29-.48.47-.82.47Zm-36.91-1.89h35.28L20.22,2.79,2.58,33.35Z"/>
      <path d="m10.37,35.24c-.16,0-.32-.04-.47-.13-.45-.26-.61-.84-.35-1.29l14.56-25.22c.26-.45.84-.6,1.29-.34.45.26.61.84.35,1.29l-14.56,25.22c-.17.3-.49.47-.82.47Z"/>
      <path d="m21.98,35.24c-.16,0-.32-.04-.47-.13-.45-.26-.61-.84-.35-1.29l8.75-15.16c.26-.45.84-.6,1.29-.34.45.26.61.84.35,1.29l-8.75,15.16c-.17.3-.49.47-.82.47Z"/>
    </g>
  </g>
</svg>