<?xml version="1.0" encoding="UTF-8"?>
<svg id="Layer_2" data-name="Layer 2" xmlns="http://www.w3.org/2000/svg" viewBox="0 0 40.43 35.24">
  <g id="Layer_1-2" data-name="Layer 1">
    <g>
      <path d="m39.49,35.24H.94c-.34,0-.65-.18-.82-.47-.17-.29-.17-.65,0-.94L19.4.44c.34-.58,1.3-.58,1.63,0l19.27,33.38c.17.29.17.65,0,.94-.17.29-.48.47-.82.47Zm-36.92-1.89h35.28L20.22,2.79,2.58,33.35Z"/>
      <g>
        <path d="m21.47,23.17h-3.15c0-1.18-.63-1.94-1.81-1.94-1.4,0-1.94.97-1.94,2.37v.95c0,1.4.57,2.37,1.91,2.37s1.94-.7,1.94-1.88h3.04c0,2.82-1.8,4.34-4.94,4.34-3.51,0-5.33-1.81-5.33-5.31s1.82-5.31,5.33-5.31c2.98,0,4.94,1.54,4.94,4.4Z"/>
        <polygon points="23.24 18.95 26.54 18.95 26.54 26.59 31.81 26.59 31.81 29.22 23.24 29.22 23.24 18.95"/>
      </g>
      <g>
        <path d="m35.9,20.55c-.13,0-.27-.03-.4-.09L7.02,7.1c-.47-.22-.67-.78-.45-1.25.22-.47.79-.67,1.25-.45l28.48,13.36c.47.22.67.78.45,1.25-.16.34-.5.54-.85.54Z"/>
        <path d="m4.53,20.55c-.35,0-.69-.2-.85-.54-.22-.47-.02-1.03.45-1.25l28.48-13.36c.47-.22,1.03-.02,1.25.45.22.47.02,1.03-.45,1.25L4.93,20.46c-.13.06-.27.09-.4.09Z"/>
      </g>
    </g>
  </g>
</svg>