<?xml version="1.0" encoding="UTF-8"?>
<svg id="Layer_2" data-name="Layer 2" xmlns="http://www.w3.org/2000/svg" viewBox="0 0 41.58 34.22">
  <g id="Layer_1-2" data-name="Layer 1">
    <g>
      <path d="m40.72,26.9s-.01,0-.02,0H.85c-.3,0-.57-.15-.73-.41-.16-.25-.17-.57-.04-.83l2.07-4.09c3.12-6.18,9.35-10.01,16.27-10.01h17.85l-.92-3.74c-.89-3.6-4.09-6.11-7.79-6.11H8.62c-.47,0-.85-.38-.85-.85s.38-.85.85-.85h18.95c4.49,0,8.38,3.05,9.45,7.41l1.17,4.77s0,.02,0,.03l3.35,13.62s.02.08.02.12c.01.1,0,.2-.01.29h0c-.03.12-.08.24-.16.34-.08.1-.18.18-.29.24-.08.04-.18.07-.27.08-.04,0-.07,0-.11,0Zm-38.48-1.71h37.39l-2.94-11.93h-18.27c-6.27,0-11.92,3.48-14.74,9.07l-1.44,2.85Z"/>
      <g>
        <path d="m35.49,27.67c-.34,0-.67-.21-.8-.55l-.3-.77c-.17-.44.05-.93.49-1.1.44-.17.93.05,1.11.49l.3.77c.17.44-.05.93-.49,1.1-.1.04-.21.06-.31.06Z"/>
        <path d="m36.84,31.14c-.34,0-.67-.21-.8-.55l-.45-1.16c-.17-.44.05-.94.49-1.11.44-.17.93.05,1.1.49l.45,1.16c.17.44-.05.94-.49,1.11-.1.04-.21.06-.31.06Z"/>
        <path d="m38.03,34.22c-.34,0-.67-.21-.8-.55l-.29-.77c-.17-.44.05-.93.49-1.1.44-.17.94.05,1.11.49l.3.77c.17.44-.05.93-.49,1.1-.1.04-.21.06-.31.06Z"/>
      </g>
      <g>
        <path d="m8.13,27.67c-.1,0-.21-.02-.31-.06-.44-.17-.66-.67-.49-1.11l.3-.77c.17-.44.66-.66,1.11-.49.44.17.66.67.49,1.11l-.3.77c-.13.34-.45.55-.8.55Z"/>
        <path d="m6.79,31.14c-.1,0-.21-.02-.31-.06-.44-.17-.66-.67-.49-1.11l.45-1.16c.17-.44.67-.66,1.1-.49.44.17.66.67.49,1.11l-.45,1.16c-.13.34-.45.55-.8.55Z"/>
        <path d="m5.6,34.22c-.1,0-.21-.02-.31-.06-.44-.17-.66-.67-.49-1.11l.3-.77c.17-.44.66-.66,1.11-.49.44.17.66.67.49,1.11l-.3.77c-.13.34-.45.55-.8.55Z"/>
      </g>
      <g>
        <path d="m21.81,27.72c-.47,0-.85-.38-.85-.85v-.82c0-.47.38-.85.85-.85s.85.38.85.85v.82c0,.47-.38.85-.85.85Z"/>
        <path d="m21.81,31.13c-.47,0-.85-.38-.85-.85v-1.13c0-.47.38-.85.85-.85s.85.38.85.85v1.13c0,.47-.38.85-.85.85Z"/>
        <path d="m21.81,34.22c-.47,0-.85-.38-.85-.85v-.82c0-.47.38-.85.85-.85s.85.38.85.85v.82c0,.47-.38.85-.85.85Z"/>
      </g>
    </g>
  </g>
</svg>