<?xml version="1.0" encoding="UTF-8"?>
<svg id="Layer_2" data-name="Layer 2" xmlns="http://www.w3.org/2000/svg" viewBox="0 0 35.43 44.31">
  <g id="Layer_1-2" data-name="Layer 1">
    <g>
      <path d="m31.07,35.43H4.37c-2.41,0-4.37-1.96-4.37-4.37V4.37C0,1.96,1.96,0,4.37,0h26.7c2.41,0,4.37,1.96,4.37,4.37v26.7c0,2.41-1.96,4.37-4.37,4.37ZM4.37,1.8c-1.41,0-2.56,1.15-2.56,2.56v26.7c0,1.41,1.15,2.56,2.56,2.56h26.7c1.41,0,2.56-1.15,2.56-2.56V4.37c0-1.41-1.15-2.56-2.56-2.56H4.37Z"/>
      <path d="m17.72,35.43C7.95,35.43,0,27.49,0,17.72S7.95,0,17.72,0s17.72,7.95,17.72,17.72-7.95,17.72-17.72,17.72Zm0-33.63C8.94,1.8,1.8,8.94,1.8,17.72s7.14,15.91,15.91,15.91,15.91-7.14,15.91-15.91S26.49,1.8,17.72,1.8Z"/>
      <path d="m34.53,39.98H.9c-.5,0-.9-.4-.9-.9s.4-.9.9-.9h33.63c.5,0,.9.4.9.9s-.4.9-.9.9Z"/>
      <path d="m34.53,44.31H.9c-.5,0-.9-.4-.9-.9s.4-.9.9-.9h33.63c.5,0,.9.4.9.9s-.4.9-.9.9Z"/>
    </g>
  </g>
</svg>