<?xml version="1.0" encoding="UTF-8"?>
<svg id="Layer_2" data-name="Layer 2" xmlns="http://www.w3.org/2000/svg" viewBox="0 0 35.43 35.43">
  <g id="Layer_1-2" data-name="Layer 1">
    <g>
      <path d="m31.07,35.43H4.37c-2.41,0-4.37-1.96-4.37-4.37V4.37C0,1.96,1.96,0,4.37,0h26.7c2.41,0,4.37,1.96,4.37,4.37v26.7c0,2.41-1.96,4.37-4.37,4.37ZM4.37,1.8c-1.41,0-2.56,1.15-2.56,2.56v26.7c0,1.41,1.15,2.56,2.56,2.56h26.7c1.41,0,2.56-1.15,2.56-2.56V4.37c0-1.41-1.15-2.56-2.56-2.56H4.37Z"/>
      <circle cx="17.72" cy="17.72" r="16.82"/>
    </g>
  </g>
</svg>