<?xml version="1.0" encoding="UTF-8"?>
<svg id="Layer_2" data-name="Layer 2" xmlns="http://www.w3.org/2000/svg" viewBox="0 0 33.91 42.8">
  <g id="Layer_1-2" data-name="Layer 1">
    <g>
      <path d="m16.96,33.91C7.61,33.91,0,26.31,0,16.96S7.61,0,16.96,0s16.96,7.61,16.96,16.96-7.61,16.96-16.96,16.96Zm0-32.19C8.56,1.73,1.73,8.56,1.73,16.96s6.83,15.23,15.23,15.23,15.23-6.83,15.23-15.23S25.35,1.73,16.96,1.73Z"/>
      <path d="m33.05,38.27H.86c-.48,0-.86-.39-.86-.86s.39-.86.86-.86h32.19c.48,0,.86.39.86.86s-.39.86-.86.86Z"/>
      <path d="m33.05,42.8H.86c-.48,0-.86-.39-.86-.86s.39-.86.86-.86h32.19c.48,0,.86.39.86.86s-.39.86-.86.86Z"/>
      <polygon points="18.2 22.05 16.99 16.33 16.93 16.33 15.72 22.05 12.39 22.05 10.19 12.65 13.34 12.65 14.42 17.98 14.47 17.98 15.54 12.65 18.52 12.65 19.65 17.98 19.71 17.98 20.72 12.65 23.72 12.65 21.52 22.05 18.2 22.05"/>
    </g>
  </g>
</svg>