<?xml version="1.0" encoding="UTF-8"?>
<svg id="Layer_2" data-name="Layer 2" xmlns="http://www.w3.org/2000/svg" viewBox="0 0 42.2 22.52">
  <g id="Layer_1-2" data-name="Layer 1">
    <g>
      <path d="m33.56,22.52H8.65c-.33,0-.62-.2-.74-.51L.05,1.07C-.1.66.1.21.51.05c.41-.16.86.05,1.02.46l7.66,20.42h23.82L40.67.51c.15-.41.61-.62,1.02-.46.41.15.62.61.46,1.02l-7.86,20.93c-.12.31-.41.51-.74.51Z"/>
      <path d="m28,9c-1.86,0-2.79-1.32-3.55-2.37-.75-1.06-1.26-1.71-2.26-1.71s-1.5.65-2.25,1.71c-.75,1.06-1.69,2.37-3.55,2.37s-2.79-1.32-3.55-2.37c-.75-1.06-1.26-1.71-2.25-1.71s-1.5.65-2.25,1.71c-.75,1.06-1.69,2.37-3.54,2.37-.65,0-1.25-.17-1.79-.5-.37-.23-.48-.72-.26-1.09.23-.37.71-.49,1.09-.26.29.18.59.26.95.26.99,0,1.5-.65,2.25-1.71.75-1.06,1.68-2.37,3.54-2.37s2.79,1.32,3.55,2.37c.75,1.06,1.26,1.71,2.25,1.71s1.5-.65,2.26-1.71c.75-1.06,1.69-2.37,3.55-2.37s2.79,1.32,3.55,2.37c.75,1.06,1.26,1.71,2.26,1.71s1.51-.65,2.26-1.71c.75-1.06,1.69-2.37,3.55-2.37s2.8,1.32,3.55,2.37c.5.7.97,1.35,1.61,1.6.41.15.62.61.46,1.02-.15.41-.61.62-1.02.46-1.1-.41-1.76-1.34-2.34-2.16-.75-1.06-1.27-1.71-2.26-1.71s-1.51.65-2.26,1.71c-.75,1.06-1.69,2.37-3.55,2.37Z"/>
      <g>
        <path d="m20.59,14.61c0,3.34-1.23,4.67-3.73,4.67-2.04,0-3.44-1-3.44-2.9h2.23v.09c0,.61.38,1.13,1.18,1.13s1.25-.6,1.25-1.5v-.73c-.51.46-1.28.65-1.81.65-1.7,0-3.05-.93-3.05-2.64,0-1.93,1.43-3,3.65-3,2.5,0,3.73,1.33,3.73,4.24Zm-4.97-1.33c0,.79.43,1.23,1.21,1.23s1.24-.41,1.24-1.2-.44-1.25-1.23-1.25-1.23.44-1.23,1.23Z"/>
        <path d="m24.19,12.64l-.1,1.3s.67-.56,1.84-.56c1.83,0,2.99,1.1,2.99,2.93,0,1.64-1.36,2.97-3.53,2.97-2.5,0-3.8-1.18-3.8-2.93h2.2c0,.65.45,1.2,1.34,1.2s1.33-.55,1.33-1.28-.46-1.29-1.31-1.29-1.06.46-1.2.63l-1.98-.28.36-4.82h5.96v2.13h-4.09Z"/>
      </g>
    </g>
  </g>
</svg>