<?xml version="1.0" encoding="UTF-8"?>
<svg id="Layer_2" data-name="Layer 2" xmlns="http://www.w3.org/2000/svg" viewBox="0 0 43.59 23.26">
  <g id="Layer_1-2" data-name="Layer 1">
    <g>
      <path d="m34.66,23.26H8.93c-.34,0-.65-.21-.76-.53L.05,1.11C-.11.68.11.21.53.05c.42-.16.89.05,1.05.48l7.91,21.09h24.6L42.01.53c.16-.42.63-.64,1.05-.48.42.16.64.63.48,1.05l-8.11,21.62c-.12.32-.42.53-.76.53Z"/>
      <path d="m28.92,9.29c-1.92,0-2.89-1.36-3.66-2.45-.78-1.09-1.31-1.76-2.33-1.76s-1.55.67-2.33,1.76c-.78,1.09-1.74,2.45-3.66,2.45s-2.88-1.36-3.66-2.45c-.78-1.09-1.31-1.76-2.33-1.76s-1.55.67-2.33,1.76c-.78,1.09-1.74,2.45-3.66,2.45-.67,0-1.29-.17-1.85-.51-.38-.24-.5-.74-.26-1.12.24-.38.74-.5,1.12-.27.3.18.61.27.99.27,1.02,0,1.55-.67,2.33-1.76.78-1.09,1.74-2.45,3.66-2.45s2.88,1.36,3.66,2.45c.78,1.09,1.31,1.76,2.33,1.76s1.55-.67,2.33-1.76c.78-1.09,1.74-2.45,3.66-2.45s2.89,1.36,3.66,2.45c.78,1.09,1.31,1.76,2.33,1.76s1.56-.67,2.34-1.76c.78-1.09,1.75-2.45,3.67-2.45s2.89,1.36,3.67,2.45c.51.72,1,1.4,1.66,1.65.42.16.64.63.48,1.05-.16.42-.63.64-1.05.48-1.13-.43-1.82-1.38-2.42-2.23-.78-1.09-1.31-1.76-2.34-1.76s-1.56.67-2.34,1.76c-.78,1.09-1.75,2.45-3.67,2.45Z"/>
      <path d="m20.58,17.81c0,1.16-.94,2.09-2.09,2.09s-2.09-.94-2.09-2.09.94-2.09,2.09-2.09,2.09.94,2.09,2.09Z"/>
      <path d="m27.12,17.81c0,1.16-.94,2.09-2.09,2.09s-2.09-.94-2.09-2.09.94-2.09,2.09-2.09,2.09.94,2.09,2.09Z"/>
      <path d="m20.58,12.46c0,1.16-.94,2.09-2.09,2.09s-2.09-.94-2.09-2.09.94-2.09,2.09-2.09,2.09.94,2.09,2.09Z"/>
      <path d="m27.12,12.46c0,1.16-.94,2.09-2.09,2.09s-2.09-.94-2.09-2.09.94-2.09,2.09-2.09,2.09.94,2.09,2.09Z"/>
    </g>
  </g>
</svg>