<?xml version="1.0" encoding="UTF-8"?>
<svg id="Layer_2" data-name="Layer 2" xmlns="http://www.w3.org/2000/svg" viewBox="0 0 43.25 23.08">
  <g id="Layer_1-2" data-name="Layer 1">
    <g>
      <path d="m34.39,23.08H8.86c-.34,0-.64-.21-.76-.53L.05,1.1C-.11.68.11.21.53.05c.42-.16.89.05,1.04.47l7.85,20.93h24.41L41.69.53c.16-.42.63-.63,1.04-.47.42.16.63.62.47,1.04l-8.05,21.46c-.12.32-.42.53-.76.53Z"/>
      <path d="m28.69,9.22c-1.91,0-2.86-1.35-3.63-2.43-.77-1.08-1.3-1.75-2.31-1.75s-1.54.67-2.31,1.75c-.77,1.08-1.73,2.43-3.63,2.43s-2.86-1.35-3.63-2.43c-.77-1.09-1.3-1.75-2.31-1.75s-1.54.67-2.31,1.75c-.77,1.08-1.73,2.43-3.63,2.43-.67,0-1.28-.17-1.83-.51-.38-.24-.5-.74-.26-1.12.24-.38.74-.5,1.12-.26.29.18.61.27.98.27,1.01,0,1.54-.67,2.31-1.75.77-1.08,1.73-2.43,3.63-2.43s2.86,1.35,3.63,2.43c.77,1.08,1.3,1.75,2.31,1.75s1.54-.67,2.31-1.75c.77-1.08,1.73-2.43,3.63-2.43s2.86,1.35,3.63,2.43c.77,1.09,1.3,1.75,2.31,1.75s1.54-.67,2.32-1.75c.77-1.08,1.73-2.43,3.64-2.43s2.87,1.35,3.64,2.43c.51.71.99,1.39,1.65,1.64.42.16.63.62.47,1.04-.16.42-.63.63-1.04.47-1.13-.42-1.8-1.37-2.4-2.21-.77-1.09-1.3-1.75-2.32-1.75s-1.54.67-2.32,1.75c-.77,1.08-1.73,2.43-3.64,2.43Z"/>
    </g>
  </g>
</svg>