<?xml version="1.0" encoding="UTF-8"?>
<svg id="Layer_2" data-name="Layer 2" xmlns="http://www.w3.org/2000/svg" viewBox="0 0 42.2 22.52">
  <g id="Layer_1-2" data-name="Layer 1">
    <g>
      <path d="m33.56,22.52H8.65c-.33,0-.62-.2-.74-.51L.05,1.07C-.1.66.1.2.51.05c.41-.15.86.05,1.02.46l7.66,20.42h23.81L40.67.51c.15-.41.61-.61,1.02-.46.41.15.62.61.46,1.02l-7.85,20.93c-.12.31-.41.51-.74.51Z"/>
      <path d="m28,9c-1.86,0-2.79-1.32-3.55-2.37-.75-1.06-1.26-1.71-2.26-1.71s-1.5.65-2.26,1.71c-.75,1.06-1.69,2.37-3.55,2.37s-2.79-1.32-3.54-2.37c-.75-1.06-1.26-1.71-2.26-1.71s-1.5.65-2.25,1.71c-.75,1.06-1.69,2.37-3.54,2.37-.65,0-1.25-.17-1.79-.5-.37-.23-.49-.72-.26-1.09.23-.37.72-.49,1.09-.26.29.18.59.26.95.26.99,0,1.5-.65,2.25-1.71.75-1.06,1.68-2.37,3.54-2.37s2.79,1.32,3.55,2.37c.75,1.06,1.26,1.71,2.26,1.71s1.5-.65,2.26-1.71c.75-1.06,1.69-2.37,3.55-2.37s2.79,1.32,3.55,2.37c.75,1.06,1.26,1.71,2.26,1.71s1.51-.65,2.26-1.71c.75-1.06,1.69-2.37,3.55-2.37s2.8,1.32,3.55,2.37c.5.7.96,1.35,1.61,1.6.41.15.62.61.46,1.02-.15.41-.61.62-1.02.46-1.1-.41-1.76-1.34-2.34-2.16-.75-1.06-1.27-1.71-2.26-1.71s-1.51.65-2.26,1.71c-.75,1.06-1.69,2.37-3.55,2.37Z"/>
      <path d="m20.32,12.71c0,.86-.51,1.63-1.25,1.9v.05c.95.3,1.5,1.08,1.5,2.13-.06,1.38-1.15,2.49-3.63,2.49s-3.67-1.11-3.67-2.48v-.26h2.2c0,.56.3,1.03,1.3,1.03s1.3-.49,1.3-1.15c0-.61-.39-.9-.88-.9h-.91v-1.54h.71c.49,0,.88-.29.88-.9,0-.51-.39-.99-1.1-.99-.75,0-1.14.44-1.14.95h-2.09v-.31c0-1.29,1.24-2.35,3.44-2.35s3.33,1.06,3.33,2.34Zm8.61,2.11c0,2.66-.8,4.45-3.65,4.45s-3.67-1.79-3.67-4.45.81-4.45,3.67-4.45,3.65,1.79,3.65,4.45Zm-4.85-.63v1.24c0,1.51.33,2.15,1.2,2.15s1.18-.64,1.18-2.15v-1.24c0-1.51-.3-2.14-1.18-2.14s-1.2.63-1.2,2.14Z"/>
    </g>
  </g>
</svg>