<?xml version="1.0" encoding="UTF-8"?>
<svg id="Layer_2" data-name="Layer 2" xmlns="http://www.w3.org/2000/svg" viewBox="0 0 42.2 22.52">
  <g id="Layer_1-2" data-name="Layer 1">
    <g>
      <path d="m33.56,22.52H8.65c-.33,0-.62-.2-.74-.51L.05,1.07C-.1.66.1.21.51.05c.41-.16.86.05,1.02.46l7.66,20.42h23.82L40.67.51c.15-.41.61-.62,1.02-.46.41.15.62.61.46,1.02l-7.86,20.93c-.12.31-.41.51-.74.51Z"/>
      <path d="m28,9c-1.86,0-2.79-1.32-3.55-2.37-.75-1.06-1.26-1.71-2.26-1.71s-1.5.65-2.25,1.71c-.75,1.06-1.69,2.37-3.55,2.37s-2.79-1.32-3.55-2.37c-.75-1.06-1.26-1.71-2.25-1.71s-1.5.65-2.25,1.71c-.75,1.06-1.69,2.37-3.54,2.37-.65,0-1.25-.17-1.79-.5-.37-.23-.48-.72-.26-1.09.23-.37.71-.49,1.09-.26.29.18.59.26.95.26.99,0,1.5-.65,2.25-1.71.75-1.06,1.69-2.37,3.54-2.37s2.79,1.32,3.55,2.37c.75,1.06,1.26,1.71,2.25,1.71s1.5-.65,2.26-1.71c.75-1.06,1.69-2.37,3.55-2.37s2.79,1.32,3.55,2.37c.75,1.06,1.26,1.71,2.26,1.71s1.51-.65,2.26-1.71c.75-1.06,1.69-2.37,3.55-2.37s2.8,1.32,3.55,2.37c.5.7.97,1.35,1.61,1.6.41.15.62.61.46,1.02-.15.41-.61.62-1.02.46-1.1-.41-1.76-1.34-2.34-2.16-.76-1.06-1.27-1.71-2.26-1.71s-1.51.65-2.26,1.71c-.75,1.06-1.69,2.37-3.55,2.37Z"/>
      <g>
        <path d="m17.51,18.39v.74h-2.78c0-2.38,1.15-4.63,2.72-6.46h-4.13v-2.15h7.26v1.14c-1.59,1.96-3.07,4.19-3.07,6.73Z"/>
        <path d="m28.93,14.82c0,2.67-.8,4.46-3.65,4.46s-3.67-1.79-3.67-4.46.81-4.46,3.67-4.46,3.65,1.79,3.65,4.46Zm-4.86-.63v1.24c0,1.51.32,2.15,1.2,2.15s1.18-.64,1.18-2.15v-1.24c0-1.51-.3-2.14-1.18-2.14s-1.2.63-1.2,2.14Z"/>
      </g>
    </g>
  </g>
</svg>