<?xml version="1.0" encoding="UTF-8"?>
<svg id="Layer_2" data-name="Layer 2" xmlns="http://www.w3.org/2000/svg" viewBox="0 0 39.42 18.33">
  <g id="Layer_1-2" data-name="Layer 1">
    <g>
      <g>
        <path d="m.8,18.33c-.2,0-.4-.08-.55-.22-.16-.15-.25-.36-.25-.58V.8C0,.36.36,0,.8,0s.8.36.8.8v15.84c2.29-.34,8.65-1.81,11.21-7.79,1.61-3.74,4.34-6.34,7.7-7.31,3.29-.95,6.91-.3,9.94,1.79.36.25.45.75.2,1.11-.25.36-.74.45-1.11.2-2.63-1.81-5.76-2.38-8.59-1.57-2.93.85-5.24,3.06-6.68,6.41C10.73,17.72,1.24,18.31.84,18.33c-.01,0-.03,0-.04,0Z"/>
        <path d="m.8,18.33c-.44,0-.8-.36-.8-.8V.8c0-.22.09-.43.25-.58C.41.07.62-.01.84,0c.4.02,9.89.61,13.43,8.85.17.4-.01.87-.42,1.05-.4.17-.87-.01-1.05-.42C10.23,3.48,3.88,2.02,1.59,1.69v15.85c0,.44-.36.8-.8.8Z"/>
      </g>
      <g>
        <path d="m38.63,18.33c-.44,0-.8-.36-.8-.8V1.69c-2.29.34-8.65,1.81-11.21,7.79-1.61,3.74-4.34,6.34-7.7,7.31-3.29.95-6.91.3-9.94-1.79-.36-.25-.45-.75-.2-1.11.25-.36.75-.45,1.11-.2,2.63,1.81,5.76,2.38,8.59,1.57,2.93-.85,5.24-3.06,6.68-6.41C28.69.61,38.18.02,38.59,0c.22-.02.43.07.59.22.16.15.25.36.25.58v16.74c0,.44-.36.8-.8.8Z"/>
        <path d="m38.63,18.33s-.03,0-.04,0c-.4-.02-9.89-.61-13.43-8.85-.17-.4.01-.87.42-1.05.4-.17.87.01,1.05.42,2.57,5.98,8.92,7.45,11.21,7.79V.8c0-.44.36-.8.8-.8s.8.36.8.8v16.74c0,.22-.09.43-.25.58-.15.14-.34.22-.55.22Z"/>
      </g>
    </g>
  </g>
</svg>